<mxfile host="app.diagrams.net" agent="Mozilla/5.0 (Windows NT 10.0; Win64; x64) AppleWebKit/537.36 (KHTML, like Gecko) Chrome/134.0.0.0 Safari/537.36" version="26.1.1" pages="2">
  <diagram id="OkBmsCtyxUtv0G9vOhyC" name="Страница — 2">
    <mxGraphModel dx="1313" dy="653" grid="1" gridSize="10" guides="1" tooltips="1" connect="1" arrows="1" fold="1" page="1" pageScale="1" pageWidth="827" pageHeight="1169" math="0" shadow="0">
      <root>
        <mxCell id="0" />
        <mxCell id="1" parent="0" />
        <mxCell id="i-dMMfXqlk09ZkL_Bo82-2" value="USERS" style="shape=table;startSize=25;container=1;collapsible=0;childLayout=tableLayout;fixedRows=1;rowLines=1;fontStyle=1;align=center;resizeLast=1;" parent="1" vertex="1">
          <mxGeometry x="1772" y="392" width="160" height="179" as="geometry" />
        </mxCell>
        <mxCell id="i-dMMfXqlk09ZkL_Bo82-3" style="shape=tableRow;horizontal=0;startSize=0;swimlaneHead=0;swimlaneBody=0;fillColor=none;collapsible=0;dropTarget=0;points=[[0,0.5],[1,0.5]];portConstraint=eastwest;top=0;left=0;right=0;bottom=0;" parent="i-dMMfXqlk09ZkL_Bo82-2" vertex="1">
          <mxGeometry y="25" width="160" height="22" as="geometry" />
        </mxCell>
        <mxCell id="i-dMMfXqlk09ZkL_Bo82-4" value="int" style="shape=partialRectangle;connectable=0;fillColor=none;top=0;left=0;bottom=0;right=0;align=left;spacingLeft=2;overflow=hidden;fontSize=11;" parent="i-dMMfXqlk09ZkL_Bo82-3" vertex="1">
          <mxGeometry width="54" height="22" as="geometry">
            <mxRectangle width="54" height="22" as="alternateBounds" />
          </mxGeometry>
        </mxCell>
        <mxCell id="i-dMMfXqlk09ZkL_Bo82-5" value="user_id" style="shape=partialRectangle;connectable=0;fillColor=none;top=0;left=0;bottom=0;right=0;align=left;spacingLeft=2;overflow=hidden;fontSize=11;" parent="i-dMMfXqlk09ZkL_Bo82-3" vertex="1">
          <mxGeometry x="54" width="84" height="22" as="geometry">
            <mxRectangle width="84" height="22" as="alternateBounds" />
          </mxGeometry>
        </mxCell>
        <mxCell id="i-dMMfXqlk09ZkL_Bo82-6" value="PK" style="shape=partialRectangle;connectable=0;fillColor=none;top=0;left=0;bottom=0;right=0;align=left;spacingLeft=2;overflow=hidden;fontSize=11;" parent="i-dMMfXqlk09ZkL_Bo82-3" vertex="1">
          <mxGeometry x="138" width="22" height="22" as="geometry">
            <mxRectangle width="22" height="22" as="alternateBounds" />
          </mxGeometry>
        </mxCell>
        <mxCell id="i-dMMfXqlk09ZkL_Bo82-7" style="shape=tableRow;horizontal=0;startSize=0;swimlaneHead=0;swimlaneBody=0;fillColor=none;collapsible=0;dropTarget=0;points=[[0,0.5],[1,0.5]];portConstraint=eastwest;top=0;left=0;right=0;bottom=0;" parent="i-dMMfXqlk09ZkL_Bo82-2" vertex="1">
          <mxGeometry y="47" width="160" height="22" as="geometry" />
        </mxCell>
        <mxCell id="i-dMMfXqlk09ZkL_Bo82-8" value="string" style="shape=partialRectangle;connectable=0;fillColor=none;top=0;left=0;bottom=0;right=0;align=left;spacingLeft=2;overflow=hidden;fontSize=11;" parent="i-dMMfXqlk09ZkL_Bo82-7" vertex="1">
          <mxGeometry width="54" height="22" as="geometry">
            <mxRectangle width="54" height="22" as="alternateBounds" />
          </mxGeometry>
        </mxCell>
        <mxCell id="i-dMMfXqlk09ZkL_Bo82-9" value="name" style="shape=partialRectangle;connectable=0;fillColor=none;top=0;left=0;bottom=0;right=0;align=left;spacingLeft=2;overflow=hidden;fontSize=11;" parent="i-dMMfXqlk09ZkL_Bo82-7" vertex="1">
          <mxGeometry x="54" width="84" height="22" as="geometry">
            <mxRectangle width="84" height="22" as="alternateBounds" />
          </mxGeometry>
        </mxCell>
        <mxCell id="i-dMMfXqlk09ZkL_Bo82-10" value="" style="shape=partialRectangle;connectable=0;fillColor=none;top=0;left=0;bottom=0;right=0;align=left;spacingLeft=2;overflow=hidden;fontSize=11;" parent="i-dMMfXqlk09ZkL_Bo82-7" vertex="1">
          <mxGeometry x="138" width="22" height="22" as="geometry">
            <mxRectangle width="22" height="22" as="alternateBounds" />
          </mxGeometry>
        </mxCell>
        <mxCell id="i-dMMfXqlk09ZkL_Bo82-11" style="shape=tableRow;horizontal=0;startSize=0;swimlaneHead=0;swimlaneBody=0;fillColor=none;collapsible=0;dropTarget=0;points=[[0,0.5],[1,0.5]];portConstraint=eastwest;top=0;left=0;right=0;bottom=0;" parent="i-dMMfXqlk09ZkL_Bo82-2" vertex="1">
          <mxGeometry y="69" width="160" height="22" as="geometry" />
        </mxCell>
        <mxCell id="i-dMMfXqlk09ZkL_Bo82-12" value="string" style="shape=partialRectangle;connectable=0;fillColor=none;top=0;left=0;bottom=0;right=0;align=left;spacingLeft=2;overflow=hidden;fontSize=11;" parent="i-dMMfXqlk09ZkL_Bo82-11" vertex="1">
          <mxGeometry width="54" height="22" as="geometry">
            <mxRectangle width="54" height="22" as="alternateBounds" />
          </mxGeometry>
        </mxCell>
        <mxCell id="i-dMMfXqlk09ZkL_Bo82-13" value="email" style="shape=partialRectangle;connectable=0;fillColor=none;top=0;left=0;bottom=0;right=0;align=left;spacingLeft=2;overflow=hidden;fontSize=11;" parent="i-dMMfXqlk09ZkL_Bo82-11" vertex="1">
          <mxGeometry x="54" width="84" height="22" as="geometry">
            <mxRectangle width="84" height="22" as="alternateBounds" />
          </mxGeometry>
        </mxCell>
        <mxCell id="i-dMMfXqlk09ZkL_Bo82-14" value="UK" style="shape=partialRectangle;connectable=0;fillColor=none;top=0;left=0;bottom=0;right=0;align=left;spacingLeft=2;overflow=hidden;fontSize=11;" parent="i-dMMfXqlk09ZkL_Bo82-11" vertex="1">
          <mxGeometry x="138" width="22" height="22" as="geometry">
            <mxRectangle width="22" height="22" as="alternateBounds" />
          </mxGeometry>
        </mxCell>
        <mxCell id="i-dMMfXqlk09ZkL_Bo82-15" style="shape=tableRow;horizontal=0;startSize=0;swimlaneHead=0;swimlaneBody=0;fillColor=none;collapsible=0;dropTarget=0;points=[[0,0.5],[1,0.5]];portConstraint=eastwest;top=0;left=0;right=0;bottom=0;" parent="i-dMMfXqlk09ZkL_Bo82-2" vertex="1">
          <mxGeometry y="91" width="160" height="22" as="geometry" />
        </mxCell>
        <mxCell id="i-dMMfXqlk09ZkL_Bo82-16" value="string" style="shape=partialRectangle;connectable=0;fillColor=none;top=0;left=0;bottom=0;right=0;align=left;spacingLeft=2;overflow=hidden;fontSize=11;" parent="i-dMMfXqlk09ZkL_Bo82-15" vertex="1">
          <mxGeometry width="54" height="22" as="geometry">
            <mxRectangle width="54" height="22" as="alternateBounds" />
          </mxGeometry>
        </mxCell>
        <mxCell id="i-dMMfXqlk09ZkL_Bo82-17" value="phone" style="shape=partialRectangle;connectable=0;fillColor=none;top=0;left=0;bottom=0;right=0;align=left;spacingLeft=2;overflow=hidden;fontSize=11;" parent="i-dMMfXqlk09ZkL_Bo82-15" vertex="1">
          <mxGeometry x="54" width="84" height="22" as="geometry">
            <mxRectangle width="84" height="22" as="alternateBounds" />
          </mxGeometry>
        </mxCell>
        <mxCell id="i-dMMfXqlk09ZkL_Bo82-18" value="UK" style="shape=partialRectangle;connectable=0;fillColor=none;top=0;left=0;bottom=0;right=0;align=left;spacingLeft=2;overflow=hidden;fontSize=11;" parent="i-dMMfXqlk09ZkL_Bo82-15" vertex="1">
          <mxGeometry x="138" width="22" height="22" as="geometry">
            <mxRectangle width="22" height="22" as="alternateBounds" />
          </mxGeometry>
        </mxCell>
        <mxCell id="i-dMMfXqlk09ZkL_Bo82-19" style="shape=tableRow;horizontal=0;startSize=0;swimlaneHead=0;swimlaneBody=0;fillColor=none;collapsible=0;dropTarget=0;points=[[0,0.5],[1,0.5]];portConstraint=eastwest;top=0;left=0;right=0;bottom=0;" parent="i-dMMfXqlk09ZkL_Bo82-2" vertex="1">
          <mxGeometry y="113" width="160" height="22" as="geometry" />
        </mxCell>
        <mxCell id="i-dMMfXqlk09ZkL_Bo82-20" value="string" style="shape=partialRectangle;connectable=0;fillColor=none;top=0;left=0;bottom=0;right=0;align=left;spacingLeft=2;overflow=hidden;fontSize=11;" parent="i-dMMfXqlk09ZkL_Bo82-19" vertex="1">
          <mxGeometry width="54" height="22" as="geometry">
            <mxRectangle width="54" height="22" as="alternateBounds" />
          </mxGeometry>
        </mxCell>
        <mxCell id="i-dMMfXqlk09ZkL_Bo82-21" value="password_hash" style="shape=partialRectangle;connectable=0;fillColor=none;top=0;left=0;bottom=0;right=0;align=left;spacingLeft=2;overflow=hidden;fontSize=11;" parent="i-dMMfXqlk09ZkL_Bo82-19" vertex="1">
          <mxGeometry x="54" width="84" height="22" as="geometry">
            <mxRectangle width="84" height="22" as="alternateBounds" />
          </mxGeometry>
        </mxCell>
        <mxCell id="i-dMMfXqlk09ZkL_Bo82-22" value="" style="shape=partialRectangle;connectable=0;fillColor=none;top=0;left=0;bottom=0;right=0;align=left;spacingLeft=2;overflow=hidden;fontSize=11;" parent="i-dMMfXqlk09ZkL_Bo82-19" vertex="1">
          <mxGeometry x="138" width="22" height="22" as="geometry">
            <mxRectangle width="22" height="22" as="alternateBounds" />
          </mxGeometry>
        </mxCell>
        <mxCell id="i-dMMfXqlk09ZkL_Bo82-23" style="shape=tableRow;horizontal=0;startSize=0;swimlaneHead=0;swimlaneBody=0;fillColor=none;collapsible=0;dropTarget=0;points=[[0,0.5],[1,0.5]];portConstraint=eastwest;top=0;left=0;right=0;bottom=0;" parent="i-dMMfXqlk09ZkL_Bo82-2" vertex="1">
          <mxGeometry y="135" width="160" height="22" as="geometry" />
        </mxCell>
        <mxCell id="i-dMMfXqlk09ZkL_Bo82-24" value="int" style="shape=partialRectangle;connectable=0;fillColor=none;top=0;left=0;bottom=0;right=0;align=left;spacingLeft=2;overflow=hidden;fontSize=11;" parent="i-dMMfXqlk09ZkL_Bo82-23" vertex="1">
          <mxGeometry width="54" height="22" as="geometry">
            <mxRectangle width="54" height="22" as="alternateBounds" />
          </mxGeometry>
        </mxCell>
        <mxCell id="i-dMMfXqlk09ZkL_Bo82-25" value="role_id" style="shape=partialRectangle;connectable=0;fillColor=none;top=0;left=0;bottom=0;right=0;align=left;spacingLeft=2;overflow=hidden;fontSize=11;" parent="i-dMMfXqlk09ZkL_Bo82-23" vertex="1">
          <mxGeometry x="54" width="84" height="22" as="geometry">
            <mxRectangle width="84" height="22" as="alternateBounds" />
          </mxGeometry>
        </mxCell>
        <mxCell id="i-dMMfXqlk09ZkL_Bo82-26" value="FK" style="shape=partialRectangle;connectable=0;fillColor=none;top=0;left=0;bottom=0;right=0;align=left;spacingLeft=2;overflow=hidden;fontSize=11;" parent="i-dMMfXqlk09ZkL_Bo82-23" vertex="1">
          <mxGeometry x="138" width="22" height="22" as="geometry">
            <mxRectangle width="22" height="22" as="alternateBounds" />
          </mxGeometry>
        </mxCell>
        <mxCell id="i-dMMfXqlk09ZkL_Bo82-27" style="shape=tableRow;horizontal=0;startSize=0;swimlaneHead=0;swimlaneBody=0;fillColor=none;collapsible=0;dropTarget=0;points=[[0,0.5],[1,0.5]];portConstraint=eastwest;top=0;left=0;right=0;bottom=0;" parent="i-dMMfXqlk09ZkL_Bo82-2" vertex="1">
          <mxGeometry y="157" width="160" height="22" as="geometry" />
        </mxCell>
        <mxCell id="i-dMMfXqlk09ZkL_Bo82-28" value="timestamp" style="shape=partialRectangle;connectable=0;fillColor=none;top=0;left=0;bottom=0;right=0;align=left;spacingLeft=2;overflow=hidden;fontSize=11;" parent="i-dMMfXqlk09ZkL_Bo82-27" vertex="1">
          <mxGeometry width="54" height="22" as="geometry">
            <mxRectangle width="54" height="22" as="alternateBounds" />
          </mxGeometry>
        </mxCell>
        <mxCell id="i-dMMfXqlk09ZkL_Bo82-29" value="created_at" style="shape=partialRectangle;connectable=0;fillColor=none;top=0;left=0;bottom=0;right=0;align=left;spacingLeft=2;overflow=hidden;fontSize=11;" parent="i-dMMfXqlk09ZkL_Bo82-27" vertex="1">
          <mxGeometry x="54" width="84" height="22" as="geometry">
            <mxRectangle width="84" height="22" as="alternateBounds" />
          </mxGeometry>
        </mxCell>
        <mxCell id="i-dMMfXqlk09ZkL_Bo82-30" value="" style="shape=partialRectangle;connectable=0;fillColor=none;top=0;left=0;bottom=0;right=0;align=left;spacingLeft=2;overflow=hidden;fontSize=11;" parent="i-dMMfXqlk09ZkL_Bo82-27" vertex="1">
          <mxGeometry x="138" width="22" height="22" as="geometry">
            <mxRectangle width="22" height="22" as="alternateBounds" />
          </mxGeometry>
        </mxCell>
        <mxCell id="i-dMMfXqlk09ZkL_Bo82-31" value="MESSAGES" style="shape=table;startSize=25;container=1;collapsible=0;childLayout=tableLayout;fixedRows=1;rowLines=1;fontStyle=1;align=center;resizeLast=1;" parent="1" vertex="1">
          <mxGeometry x="897" y="692" width="144" height="157" as="geometry" />
        </mxCell>
        <mxCell id="i-dMMfXqlk09ZkL_Bo82-32" style="shape=tableRow;horizontal=0;startSize=0;swimlaneHead=0;swimlaneBody=0;fillColor=none;collapsible=0;dropTarget=0;points=[[0,0.5],[1,0.5]];portConstraint=eastwest;top=0;left=0;right=0;bottom=0;" parent="i-dMMfXqlk09ZkL_Bo82-31" vertex="1">
          <mxGeometry y="25" width="144" height="22" as="geometry" />
        </mxCell>
        <mxCell id="i-dMMfXqlk09ZkL_Bo82-33" value="int" style="shape=partialRectangle;connectable=0;fillColor=none;top=0;left=0;bottom=0;right=0;align=left;spacingLeft=2;overflow=hidden;fontSize=11;" parent="i-dMMfXqlk09ZkL_Bo82-32" vertex="1">
          <mxGeometry width="54" height="22" as="geometry">
            <mxRectangle width="54" height="22" as="alternateBounds" />
          </mxGeometry>
        </mxCell>
        <mxCell id="i-dMMfXqlk09ZkL_Bo82-34" value="message_id" style="shape=partialRectangle;connectable=0;fillColor=none;top=0;left=0;bottom=0;right=0;align=left;spacingLeft=2;overflow=hidden;fontSize=11;" parent="i-dMMfXqlk09ZkL_Bo82-32" vertex="1">
          <mxGeometry x="54" width="68" height="22" as="geometry">
            <mxRectangle width="68" height="22" as="alternateBounds" />
          </mxGeometry>
        </mxCell>
        <mxCell id="i-dMMfXqlk09ZkL_Bo82-35" value="PK" style="shape=partialRectangle;connectable=0;fillColor=none;top=0;left=0;bottom=0;right=0;align=left;spacingLeft=2;overflow=hidden;fontSize=11;" parent="i-dMMfXqlk09ZkL_Bo82-32" vertex="1">
          <mxGeometry x="122" width="22" height="22" as="geometry">
            <mxRectangle width="22" height="22" as="alternateBounds" />
          </mxGeometry>
        </mxCell>
        <mxCell id="i-dMMfXqlk09ZkL_Bo82-36" style="shape=tableRow;horizontal=0;startSize=0;swimlaneHead=0;swimlaneBody=0;fillColor=none;collapsible=0;dropTarget=0;points=[[0,0.5],[1,0.5]];portConstraint=eastwest;top=0;left=0;right=0;bottom=0;" parent="i-dMMfXqlk09ZkL_Bo82-31" vertex="1">
          <mxGeometry y="47" width="144" height="22" as="geometry" />
        </mxCell>
        <mxCell id="i-dMMfXqlk09ZkL_Bo82-37" value="int" style="shape=partialRectangle;connectable=0;fillColor=none;top=0;left=0;bottom=0;right=0;align=left;spacingLeft=2;overflow=hidden;fontSize=11;" parent="i-dMMfXqlk09ZkL_Bo82-36" vertex="1">
          <mxGeometry width="54" height="22" as="geometry">
            <mxRectangle width="54" height="22" as="alternateBounds" />
          </mxGeometry>
        </mxCell>
        <mxCell id="i-dMMfXqlk09ZkL_Bo82-38" value="sender_id" style="shape=partialRectangle;connectable=0;fillColor=none;top=0;left=0;bottom=0;right=0;align=left;spacingLeft=2;overflow=hidden;fontSize=11;" parent="i-dMMfXqlk09ZkL_Bo82-36" vertex="1">
          <mxGeometry x="54" width="68" height="22" as="geometry">
            <mxRectangle width="68" height="22" as="alternateBounds" />
          </mxGeometry>
        </mxCell>
        <mxCell id="i-dMMfXqlk09ZkL_Bo82-39" value="FK" style="shape=partialRectangle;connectable=0;fillColor=none;top=0;left=0;bottom=0;right=0;align=left;spacingLeft=2;overflow=hidden;fontSize=11;" parent="i-dMMfXqlk09ZkL_Bo82-36" vertex="1">
          <mxGeometry x="122" width="22" height="22" as="geometry">
            <mxRectangle width="22" height="22" as="alternateBounds" />
          </mxGeometry>
        </mxCell>
        <mxCell id="i-dMMfXqlk09ZkL_Bo82-40" style="shape=tableRow;horizontal=0;startSize=0;swimlaneHead=0;swimlaneBody=0;fillColor=none;collapsible=0;dropTarget=0;points=[[0,0.5],[1,0.5]];portConstraint=eastwest;top=0;left=0;right=0;bottom=0;" parent="i-dMMfXqlk09ZkL_Bo82-31" vertex="1">
          <mxGeometry y="69" width="144" height="22" as="geometry" />
        </mxCell>
        <mxCell id="i-dMMfXqlk09ZkL_Bo82-41" value="int" style="shape=partialRectangle;connectable=0;fillColor=none;top=0;left=0;bottom=0;right=0;align=left;spacingLeft=2;overflow=hidden;fontSize=11;" parent="i-dMMfXqlk09ZkL_Bo82-40" vertex="1">
          <mxGeometry width="54" height="22" as="geometry">
            <mxRectangle width="54" height="22" as="alternateBounds" />
          </mxGeometry>
        </mxCell>
        <mxCell id="i-dMMfXqlk09ZkL_Bo82-42" value="receiver_id" style="shape=partialRectangle;connectable=0;fillColor=none;top=0;left=0;bottom=0;right=0;align=left;spacingLeft=2;overflow=hidden;fontSize=11;" parent="i-dMMfXqlk09ZkL_Bo82-40" vertex="1">
          <mxGeometry x="54" width="68" height="22" as="geometry">
            <mxRectangle width="68" height="22" as="alternateBounds" />
          </mxGeometry>
        </mxCell>
        <mxCell id="i-dMMfXqlk09ZkL_Bo82-43" value="FK" style="shape=partialRectangle;connectable=0;fillColor=none;top=0;left=0;bottom=0;right=0;align=left;spacingLeft=2;overflow=hidden;fontSize=11;" parent="i-dMMfXqlk09ZkL_Bo82-40" vertex="1">
          <mxGeometry x="122" width="22" height="22" as="geometry">
            <mxRectangle width="22" height="22" as="alternateBounds" />
          </mxGeometry>
        </mxCell>
        <mxCell id="i-dMMfXqlk09ZkL_Bo82-44" style="shape=tableRow;horizontal=0;startSize=0;swimlaneHead=0;swimlaneBody=0;fillColor=none;collapsible=0;dropTarget=0;points=[[0,0.5],[1,0.5]];portConstraint=eastwest;top=0;left=0;right=0;bottom=0;" parent="i-dMMfXqlk09ZkL_Bo82-31" vertex="1">
          <mxGeometry y="91" width="144" height="22" as="geometry" />
        </mxCell>
        <mxCell id="i-dMMfXqlk09ZkL_Bo82-45" value="int" style="shape=partialRectangle;connectable=0;fillColor=none;top=0;left=0;bottom=0;right=0;align=left;spacingLeft=2;overflow=hidden;fontSize=11;" parent="i-dMMfXqlk09ZkL_Bo82-44" vertex="1">
          <mxGeometry width="54" height="22" as="geometry">
            <mxRectangle width="54" height="22" as="alternateBounds" />
          </mxGeometry>
        </mxCell>
        <mxCell id="i-dMMfXqlk09ZkL_Bo82-46" value="listing_id" style="shape=partialRectangle;connectable=0;fillColor=none;top=0;left=0;bottom=0;right=0;align=left;spacingLeft=2;overflow=hidden;fontSize=11;" parent="i-dMMfXqlk09ZkL_Bo82-44" vertex="1">
          <mxGeometry x="54" width="68" height="22" as="geometry">
            <mxRectangle width="68" height="22" as="alternateBounds" />
          </mxGeometry>
        </mxCell>
        <mxCell id="i-dMMfXqlk09ZkL_Bo82-47" value="FK" style="shape=partialRectangle;connectable=0;fillColor=none;top=0;left=0;bottom=0;right=0;align=left;spacingLeft=2;overflow=hidden;fontSize=11;" parent="i-dMMfXqlk09ZkL_Bo82-44" vertex="1">
          <mxGeometry x="122" width="22" height="22" as="geometry">
            <mxRectangle width="22" height="22" as="alternateBounds" />
          </mxGeometry>
        </mxCell>
        <mxCell id="i-dMMfXqlk09ZkL_Bo82-48" style="shape=tableRow;horizontal=0;startSize=0;swimlaneHead=0;swimlaneBody=0;fillColor=none;collapsible=0;dropTarget=0;points=[[0,0.5],[1,0.5]];portConstraint=eastwest;top=0;left=0;right=0;bottom=0;" parent="i-dMMfXqlk09ZkL_Bo82-31" vertex="1">
          <mxGeometry y="113" width="144" height="22" as="geometry" />
        </mxCell>
        <mxCell id="i-dMMfXqlk09ZkL_Bo82-49" value="text" style="shape=partialRectangle;connectable=0;fillColor=none;top=0;left=0;bottom=0;right=0;align=left;spacingLeft=2;overflow=hidden;fontSize=11;" parent="i-dMMfXqlk09ZkL_Bo82-48" vertex="1">
          <mxGeometry width="54" height="22" as="geometry">
            <mxRectangle width="54" height="22" as="alternateBounds" />
          </mxGeometry>
        </mxCell>
        <mxCell id="i-dMMfXqlk09ZkL_Bo82-50" value="content" style="shape=partialRectangle;connectable=0;fillColor=none;top=0;left=0;bottom=0;right=0;align=left;spacingLeft=2;overflow=hidden;fontSize=11;" parent="i-dMMfXqlk09ZkL_Bo82-48" vertex="1">
          <mxGeometry x="54" width="68" height="22" as="geometry">
            <mxRectangle width="68" height="22" as="alternateBounds" />
          </mxGeometry>
        </mxCell>
        <mxCell id="i-dMMfXqlk09ZkL_Bo82-51" value="" style="shape=partialRectangle;connectable=0;fillColor=none;top=0;left=0;bottom=0;right=0;align=left;spacingLeft=2;overflow=hidden;fontSize=11;" parent="i-dMMfXqlk09ZkL_Bo82-48" vertex="1">
          <mxGeometry x="122" width="22" height="22" as="geometry">
            <mxRectangle width="22" height="22" as="alternateBounds" />
          </mxGeometry>
        </mxCell>
        <mxCell id="i-dMMfXqlk09ZkL_Bo82-52" style="shape=tableRow;horizontal=0;startSize=0;swimlaneHead=0;swimlaneBody=0;fillColor=none;collapsible=0;dropTarget=0;points=[[0,0.5],[1,0.5]];portConstraint=eastwest;top=0;left=0;right=0;bottom=0;" parent="i-dMMfXqlk09ZkL_Bo82-31" vertex="1">
          <mxGeometry y="135" width="144" height="22" as="geometry" />
        </mxCell>
        <mxCell id="i-dMMfXqlk09ZkL_Bo82-53" value="timestamp" style="shape=partialRectangle;connectable=0;fillColor=none;top=0;left=0;bottom=0;right=0;align=left;spacingLeft=2;overflow=hidden;fontSize=11;" parent="i-dMMfXqlk09ZkL_Bo82-52" vertex="1">
          <mxGeometry width="54" height="22" as="geometry">
            <mxRectangle width="54" height="22" as="alternateBounds" />
          </mxGeometry>
        </mxCell>
        <mxCell id="i-dMMfXqlk09ZkL_Bo82-54" value="sent_at" style="shape=partialRectangle;connectable=0;fillColor=none;top=0;left=0;bottom=0;right=0;align=left;spacingLeft=2;overflow=hidden;fontSize=11;" parent="i-dMMfXqlk09ZkL_Bo82-52" vertex="1">
          <mxGeometry x="54" width="68" height="22" as="geometry">
            <mxRectangle width="68" height="22" as="alternateBounds" />
          </mxGeometry>
        </mxCell>
        <mxCell id="i-dMMfXqlk09ZkL_Bo82-55" value="" style="shape=partialRectangle;connectable=0;fillColor=none;top=0;left=0;bottom=0;right=0;align=left;spacingLeft=2;overflow=hidden;fontSize=11;" parent="i-dMMfXqlk09ZkL_Bo82-52" vertex="1">
          <mxGeometry x="122" width="22" height="22" as="geometry">
            <mxRectangle width="22" height="22" as="alternateBounds" />
          </mxGeometry>
        </mxCell>
        <mxCell id="i-dMMfXqlk09ZkL_Bo82-56" value="REVIEWS" style="shape=table;startSize=25;container=1;collapsible=0;childLayout=tableLayout;fixedRows=1;rowLines=1;fontStyle=1;align=center;resizeLast=1;" parent="1" vertex="1">
          <mxGeometry x="2122" y="692" width="172" height="157" as="geometry" />
        </mxCell>
        <mxCell id="i-dMMfXqlk09ZkL_Bo82-57" style="shape=tableRow;horizontal=0;startSize=0;swimlaneHead=0;swimlaneBody=0;fillColor=none;collapsible=0;dropTarget=0;points=[[0,0.5],[1,0.5]];portConstraint=eastwest;top=0;left=0;right=0;bottom=0;" parent="i-dMMfXqlk09ZkL_Bo82-56" vertex="1">
          <mxGeometry y="25" width="172" height="22" as="geometry" />
        </mxCell>
        <mxCell id="i-dMMfXqlk09ZkL_Bo82-58" value="int" style="shape=partialRectangle;connectable=0;fillColor=none;top=0;left=0;bottom=0;right=0;align=left;spacingLeft=2;overflow=hidden;fontSize=11;" parent="i-dMMfXqlk09ZkL_Bo82-57" vertex="1">
          <mxGeometry width="54" height="22" as="geometry">
            <mxRectangle width="54" height="22" as="alternateBounds" />
          </mxGeometry>
        </mxCell>
        <mxCell id="i-dMMfXqlk09ZkL_Bo82-59" value="review_id" style="shape=partialRectangle;connectable=0;fillColor=none;top=0;left=0;bottom=0;right=0;align=left;spacingLeft=2;overflow=hidden;fontSize=11;" parent="i-dMMfXqlk09ZkL_Bo82-57" vertex="1">
          <mxGeometry x="54" width="96" height="22" as="geometry">
            <mxRectangle width="96" height="22" as="alternateBounds" />
          </mxGeometry>
        </mxCell>
        <mxCell id="i-dMMfXqlk09ZkL_Bo82-60" value="PK" style="shape=partialRectangle;connectable=0;fillColor=none;top=0;left=0;bottom=0;right=0;align=left;spacingLeft=2;overflow=hidden;fontSize=11;" parent="i-dMMfXqlk09ZkL_Bo82-57" vertex="1">
          <mxGeometry x="150" width="22" height="22" as="geometry">
            <mxRectangle width="22" height="22" as="alternateBounds" />
          </mxGeometry>
        </mxCell>
        <mxCell id="i-dMMfXqlk09ZkL_Bo82-61" style="shape=tableRow;horizontal=0;startSize=0;swimlaneHead=0;swimlaneBody=0;fillColor=none;collapsible=0;dropTarget=0;points=[[0,0.5],[1,0.5]];portConstraint=eastwest;top=0;left=0;right=0;bottom=0;" parent="i-dMMfXqlk09ZkL_Bo82-56" vertex="1">
          <mxGeometry y="47" width="172" height="22" as="geometry" />
        </mxCell>
        <mxCell id="i-dMMfXqlk09ZkL_Bo82-62" value="int" style="shape=partialRectangle;connectable=0;fillColor=none;top=0;left=0;bottom=0;right=0;align=left;spacingLeft=2;overflow=hidden;fontSize=11;" parent="i-dMMfXqlk09ZkL_Bo82-61" vertex="1">
          <mxGeometry width="54" height="22" as="geometry">
            <mxRectangle width="54" height="22" as="alternateBounds" />
          </mxGeometry>
        </mxCell>
        <mxCell id="i-dMMfXqlk09ZkL_Bo82-63" value="reviewer_id" style="shape=partialRectangle;connectable=0;fillColor=none;top=0;left=0;bottom=0;right=0;align=left;spacingLeft=2;overflow=hidden;fontSize=11;" parent="i-dMMfXqlk09ZkL_Bo82-61" vertex="1">
          <mxGeometry x="54" width="96" height="22" as="geometry">
            <mxRectangle width="96" height="22" as="alternateBounds" />
          </mxGeometry>
        </mxCell>
        <mxCell id="i-dMMfXqlk09ZkL_Bo82-64" value="FK" style="shape=partialRectangle;connectable=0;fillColor=none;top=0;left=0;bottom=0;right=0;align=left;spacingLeft=2;overflow=hidden;fontSize=11;" parent="i-dMMfXqlk09ZkL_Bo82-61" vertex="1">
          <mxGeometry x="150" width="22" height="22" as="geometry">
            <mxRectangle width="22" height="22" as="alternateBounds" />
          </mxGeometry>
        </mxCell>
        <mxCell id="i-dMMfXqlk09ZkL_Bo82-65" style="shape=tableRow;horizontal=0;startSize=0;swimlaneHead=0;swimlaneBody=0;fillColor=none;collapsible=0;dropTarget=0;points=[[0,0.5],[1,0.5]];portConstraint=eastwest;top=0;left=0;right=0;bottom=0;" parent="i-dMMfXqlk09ZkL_Bo82-56" vertex="1">
          <mxGeometry y="69" width="172" height="22" as="geometry" />
        </mxCell>
        <mxCell id="i-dMMfXqlk09ZkL_Bo82-66" value="int" style="shape=partialRectangle;connectable=0;fillColor=none;top=0;left=0;bottom=0;right=0;align=left;spacingLeft=2;overflow=hidden;fontSize=11;" parent="i-dMMfXqlk09ZkL_Bo82-65" vertex="1">
          <mxGeometry width="54" height="22" as="geometry">
            <mxRectangle width="54" height="22" as="alternateBounds" />
          </mxGeometry>
        </mxCell>
        <mxCell id="i-dMMfXqlk09ZkL_Bo82-67" value="reviewed_user_id" style="shape=partialRectangle;connectable=0;fillColor=none;top=0;left=0;bottom=0;right=0;align=left;spacingLeft=2;overflow=hidden;fontSize=11;" parent="i-dMMfXqlk09ZkL_Bo82-65" vertex="1">
          <mxGeometry x="54" width="96" height="22" as="geometry">
            <mxRectangle width="96" height="22" as="alternateBounds" />
          </mxGeometry>
        </mxCell>
        <mxCell id="i-dMMfXqlk09ZkL_Bo82-68" value="FK" style="shape=partialRectangle;connectable=0;fillColor=none;top=0;left=0;bottom=0;right=0;align=left;spacingLeft=2;overflow=hidden;fontSize=11;" parent="i-dMMfXqlk09ZkL_Bo82-65" vertex="1">
          <mxGeometry x="150" width="22" height="22" as="geometry">
            <mxRectangle width="22" height="22" as="alternateBounds" />
          </mxGeometry>
        </mxCell>
        <mxCell id="i-dMMfXqlk09ZkL_Bo82-69" style="shape=tableRow;horizontal=0;startSize=0;swimlaneHead=0;swimlaneBody=0;fillColor=none;collapsible=0;dropTarget=0;points=[[0,0.5],[1,0.5]];portConstraint=eastwest;top=0;left=0;right=0;bottom=0;" parent="i-dMMfXqlk09ZkL_Bo82-56" vertex="1">
          <mxGeometry y="91" width="172" height="22" as="geometry" />
        </mxCell>
        <mxCell id="i-dMMfXqlk09ZkL_Bo82-70" value="int" style="shape=partialRectangle;connectable=0;fillColor=none;top=0;left=0;bottom=0;right=0;align=left;spacingLeft=2;overflow=hidden;fontSize=11;" parent="i-dMMfXqlk09ZkL_Bo82-69" vertex="1">
          <mxGeometry width="54" height="22" as="geometry">
            <mxRectangle width="54" height="22" as="alternateBounds" />
          </mxGeometry>
        </mxCell>
        <mxCell id="i-dMMfXqlk09ZkL_Bo82-71" value="rating" style="shape=partialRectangle;connectable=0;fillColor=none;top=0;left=0;bottom=0;right=0;align=left;spacingLeft=2;overflow=hidden;fontSize=11;" parent="i-dMMfXqlk09ZkL_Bo82-69" vertex="1">
          <mxGeometry x="54" width="96" height="22" as="geometry">
            <mxRectangle width="96" height="22" as="alternateBounds" />
          </mxGeometry>
        </mxCell>
        <mxCell id="i-dMMfXqlk09ZkL_Bo82-72" value="" style="shape=partialRectangle;connectable=0;fillColor=none;top=0;left=0;bottom=0;right=0;align=left;spacingLeft=2;overflow=hidden;fontSize=11;" parent="i-dMMfXqlk09ZkL_Bo82-69" vertex="1">
          <mxGeometry x="150" width="22" height="22" as="geometry">
            <mxRectangle width="22" height="22" as="alternateBounds" />
          </mxGeometry>
        </mxCell>
        <mxCell id="i-dMMfXqlk09ZkL_Bo82-73" style="shape=tableRow;horizontal=0;startSize=0;swimlaneHead=0;swimlaneBody=0;fillColor=none;collapsible=0;dropTarget=0;points=[[0,0.5],[1,0.5]];portConstraint=eastwest;top=0;left=0;right=0;bottom=0;" parent="i-dMMfXqlk09ZkL_Bo82-56" vertex="1">
          <mxGeometry y="113" width="172" height="22" as="geometry" />
        </mxCell>
        <mxCell id="i-dMMfXqlk09ZkL_Bo82-74" value="text" style="shape=partialRectangle;connectable=0;fillColor=none;top=0;left=0;bottom=0;right=0;align=left;spacingLeft=2;overflow=hidden;fontSize=11;" parent="i-dMMfXqlk09ZkL_Bo82-73" vertex="1">
          <mxGeometry width="54" height="22" as="geometry">
            <mxRectangle width="54" height="22" as="alternateBounds" />
          </mxGeometry>
        </mxCell>
        <mxCell id="i-dMMfXqlk09ZkL_Bo82-75" value="comment" style="shape=partialRectangle;connectable=0;fillColor=none;top=0;left=0;bottom=0;right=0;align=left;spacingLeft=2;overflow=hidden;fontSize=11;" parent="i-dMMfXqlk09ZkL_Bo82-73" vertex="1">
          <mxGeometry x="54" width="96" height="22" as="geometry">
            <mxRectangle width="96" height="22" as="alternateBounds" />
          </mxGeometry>
        </mxCell>
        <mxCell id="i-dMMfXqlk09ZkL_Bo82-76" value="" style="shape=partialRectangle;connectable=0;fillColor=none;top=0;left=0;bottom=0;right=0;align=left;spacingLeft=2;overflow=hidden;fontSize=11;" parent="i-dMMfXqlk09ZkL_Bo82-73" vertex="1">
          <mxGeometry x="150" width="22" height="22" as="geometry">
            <mxRectangle width="22" height="22" as="alternateBounds" />
          </mxGeometry>
        </mxCell>
        <mxCell id="i-dMMfXqlk09ZkL_Bo82-77" style="shape=tableRow;horizontal=0;startSize=0;swimlaneHead=0;swimlaneBody=0;fillColor=none;collapsible=0;dropTarget=0;points=[[0,0.5],[1,0.5]];portConstraint=eastwest;top=0;left=0;right=0;bottom=0;" parent="i-dMMfXqlk09ZkL_Bo82-56" vertex="1">
          <mxGeometry y="135" width="172" height="22" as="geometry" />
        </mxCell>
        <mxCell id="i-dMMfXqlk09ZkL_Bo82-78" value="timestamp" style="shape=partialRectangle;connectable=0;fillColor=none;top=0;left=0;bottom=0;right=0;align=left;spacingLeft=2;overflow=hidden;fontSize=11;" parent="i-dMMfXqlk09ZkL_Bo82-77" vertex="1">
          <mxGeometry width="54" height="22" as="geometry">
            <mxRectangle width="54" height="22" as="alternateBounds" />
          </mxGeometry>
        </mxCell>
        <mxCell id="i-dMMfXqlk09ZkL_Bo82-79" value="review_date" style="shape=partialRectangle;connectable=0;fillColor=none;top=0;left=0;bottom=0;right=0;align=left;spacingLeft=2;overflow=hidden;fontSize=11;" parent="i-dMMfXqlk09ZkL_Bo82-77" vertex="1">
          <mxGeometry x="54" width="96" height="22" as="geometry">
            <mxRectangle width="96" height="22" as="alternateBounds" />
          </mxGeometry>
        </mxCell>
        <mxCell id="i-dMMfXqlk09ZkL_Bo82-80" value="" style="shape=partialRectangle;connectable=0;fillColor=none;top=0;left=0;bottom=0;right=0;align=left;spacingLeft=2;overflow=hidden;fontSize=11;" parent="i-dMMfXqlk09ZkL_Bo82-77" vertex="1">
          <mxGeometry x="150" width="22" height="22" as="geometry">
            <mxRectangle width="22" height="22" as="alternateBounds" />
          </mxGeometry>
        </mxCell>
        <mxCell id="i-dMMfXqlk09ZkL_Bo82-81" value="FAVORITES" style="shape=table;startSize=25;container=1;collapsible=0;childLayout=tableLayout;fixedRows=1;rowLines=1;fontStyle=1;align=center;resizeLast=1;" parent="1" vertex="1">
          <mxGeometry x="1141" y="725" width="106" height="91" as="geometry" />
        </mxCell>
        <mxCell id="i-dMMfXqlk09ZkL_Bo82-82" style="shape=tableRow;horizontal=0;startSize=0;swimlaneHead=0;swimlaneBody=0;fillColor=none;collapsible=0;dropTarget=0;points=[[0,0.5],[1,0.5]];portConstraint=eastwest;top=0;left=0;right=0;bottom=0;" parent="i-dMMfXqlk09ZkL_Bo82-81" vertex="1">
          <mxGeometry y="25" width="106" height="22" as="geometry" />
        </mxCell>
        <mxCell id="i-dMMfXqlk09ZkL_Bo82-83" value="int" style="shape=partialRectangle;connectable=0;fillColor=none;top=0;left=0;bottom=0;right=0;align=left;spacingLeft=2;overflow=hidden;fontSize=11;" parent="i-dMMfXqlk09ZkL_Bo82-82" vertex="1">
          <mxGeometry width="18" height="22" as="geometry">
            <mxRectangle width="18" height="22" as="alternateBounds" />
          </mxGeometry>
        </mxCell>
        <mxCell id="i-dMMfXqlk09ZkL_Bo82-84" value="favorite_id" style="shape=partialRectangle;connectable=0;fillColor=none;top=0;left=0;bottom=0;right=0;align=left;spacingLeft=2;overflow=hidden;fontSize=11;" parent="i-dMMfXqlk09ZkL_Bo82-82" vertex="1">
          <mxGeometry x="18" width="66" height="22" as="geometry">
            <mxRectangle width="66" height="22" as="alternateBounds" />
          </mxGeometry>
        </mxCell>
        <mxCell id="i-dMMfXqlk09ZkL_Bo82-85" value="PK" style="shape=partialRectangle;connectable=0;fillColor=none;top=0;left=0;bottom=0;right=0;align=left;spacingLeft=2;overflow=hidden;fontSize=11;" parent="i-dMMfXqlk09ZkL_Bo82-82" vertex="1">
          <mxGeometry x="84" width="22" height="22" as="geometry">
            <mxRectangle width="22" height="22" as="alternateBounds" />
          </mxGeometry>
        </mxCell>
        <mxCell id="i-dMMfXqlk09ZkL_Bo82-86" style="shape=tableRow;horizontal=0;startSize=0;swimlaneHead=0;swimlaneBody=0;fillColor=none;collapsible=0;dropTarget=0;points=[[0,0.5],[1,0.5]];portConstraint=eastwest;top=0;left=0;right=0;bottom=0;" parent="i-dMMfXqlk09ZkL_Bo82-81" vertex="1">
          <mxGeometry y="47" width="106" height="22" as="geometry" />
        </mxCell>
        <mxCell id="i-dMMfXqlk09ZkL_Bo82-87" value="int" style="shape=partialRectangle;connectable=0;fillColor=none;top=0;left=0;bottom=0;right=0;align=left;spacingLeft=2;overflow=hidden;fontSize=11;" parent="i-dMMfXqlk09ZkL_Bo82-86" vertex="1">
          <mxGeometry width="18" height="22" as="geometry">
            <mxRectangle width="18" height="22" as="alternateBounds" />
          </mxGeometry>
        </mxCell>
        <mxCell id="i-dMMfXqlk09ZkL_Bo82-88" value="user_id" style="shape=partialRectangle;connectable=0;fillColor=none;top=0;left=0;bottom=0;right=0;align=left;spacingLeft=2;overflow=hidden;fontSize=11;" parent="i-dMMfXqlk09ZkL_Bo82-86" vertex="1">
          <mxGeometry x="18" width="66" height="22" as="geometry">
            <mxRectangle width="66" height="22" as="alternateBounds" />
          </mxGeometry>
        </mxCell>
        <mxCell id="i-dMMfXqlk09ZkL_Bo82-89" value="FK" style="shape=partialRectangle;connectable=0;fillColor=none;top=0;left=0;bottom=0;right=0;align=left;spacingLeft=2;overflow=hidden;fontSize=11;" parent="i-dMMfXqlk09ZkL_Bo82-86" vertex="1">
          <mxGeometry x="84" width="22" height="22" as="geometry">
            <mxRectangle width="22" height="22" as="alternateBounds" />
          </mxGeometry>
        </mxCell>
        <mxCell id="i-dMMfXqlk09ZkL_Bo82-90" style="shape=tableRow;horizontal=0;startSize=0;swimlaneHead=0;swimlaneBody=0;fillColor=none;collapsible=0;dropTarget=0;points=[[0,0.5],[1,0.5]];portConstraint=eastwest;top=0;left=0;right=0;bottom=0;" parent="i-dMMfXqlk09ZkL_Bo82-81" vertex="1">
          <mxGeometry y="69" width="106" height="22" as="geometry" />
        </mxCell>
        <mxCell id="i-dMMfXqlk09ZkL_Bo82-91" value="int" style="shape=partialRectangle;connectable=0;fillColor=none;top=0;left=0;bottom=0;right=0;align=left;spacingLeft=2;overflow=hidden;fontSize=11;" parent="i-dMMfXqlk09ZkL_Bo82-90" vertex="1">
          <mxGeometry width="18" height="22" as="geometry">
            <mxRectangle width="18" height="22" as="alternateBounds" />
          </mxGeometry>
        </mxCell>
        <mxCell id="i-dMMfXqlk09ZkL_Bo82-92" value="listing_id" style="shape=partialRectangle;connectable=0;fillColor=none;top=0;left=0;bottom=0;right=0;align=left;spacingLeft=2;overflow=hidden;fontSize=11;" parent="i-dMMfXqlk09ZkL_Bo82-90" vertex="1">
          <mxGeometry x="18" width="66" height="22" as="geometry">
            <mxRectangle width="66" height="22" as="alternateBounds" />
          </mxGeometry>
        </mxCell>
        <mxCell id="i-dMMfXqlk09ZkL_Bo82-93" value="FK" style="shape=partialRectangle;connectable=0;fillColor=none;top=0;left=0;bottom=0;right=0;align=left;spacingLeft=2;overflow=hidden;fontSize=11;" parent="i-dMMfXqlk09ZkL_Bo82-90" vertex="1">
          <mxGeometry x="84" width="22" height="22" as="geometry">
            <mxRectangle width="22" height="22" as="alternateBounds" />
          </mxGeometry>
        </mxCell>
        <mxCell id="i-dMMfXqlk09ZkL_Bo82-94" value="TRANSACTIONS" style="shape=table;startSize=25;container=1;collapsible=0;childLayout=tableLayout;fixedRows=1;rowLines=1;fontStyle=1;align=center;resizeLast=1;" parent="1" vertex="1">
          <mxGeometry x="1346" y="692" width="172" height="157" as="geometry" />
        </mxCell>
        <mxCell id="i-dMMfXqlk09ZkL_Bo82-95" style="shape=tableRow;horizontal=0;startSize=0;swimlaneHead=0;swimlaneBody=0;fillColor=none;collapsible=0;dropTarget=0;points=[[0,0.5],[1,0.5]];portConstraint=eastwest;top=0;left=0;right=0;bottom=0;" parent="i-dMMfXqlk09ZkL_Bo82-94" vertex="1">
          <mxGeometry y="25" width="172" height="22" as="geometry" />
        </mxCell>
        <mxCell id="i-dMMfXqlk09ZkL_Bo82-96" value="int" style="shape=partialRectangle;connectable=0;fillColor=none;top=0;left=0;bottom=0;right=0;align=left;spacingLeft=2;overflow=hidden;fontSize=11;" parent="i-dMMfXqlk09ZkL_Bo82-95" vertex="1">
          <mxGeometry width="54" height="22" as="geometry">
            <mxRectangle width="54" height="22" as="alternateBounds" />
          </mxGeometry>
        </mxCell>
        <mxCell id="i-dMMfXqlk09ZkL_Bo82-97" value="transaction_id" style="shape=partialRectangle;connectable=0;fillColor=none;top=0;left=0;bottom=0;right=0;align=left;spacingLeft=2;overflow=hidden;fontSize=11;" parent="i-dMMfXqlk09ZkL_Bo82-95" vertex="1">
          <mxGeometry x="54" width="96" height="22" as="geometry">
            <mxRectangle width="96" height="22" as="alternateBounds" />
          </mxGeometry>
        </mxCell>
        <mxCell id="i-dMMfXqlk09ZkL_Bo82-98" value="PK" style="shape=partialRectangle;connectable=0;fillColor=none;top=0;left=0;bottom=0;right=0;align=left;spacingLeft=2;overflow=hidden;fontSize=11;" parent="i-dMMfXqlk09ZkL_Bo82-95" vertex="1">
          <mxGeometry x="150" width="22" height="22" as="geometry">
            <mxRectangle width="22" height="22" as="alternateBounds" />
          </mxGeometry>
        </mxCell>
        <mxCell id="i-dMMfXqlk09ZkL_Bo82-99" style="shape=tableRow;horizontal=0;startSize=0;swimlaneHead=0;swimlaneBody=0;fillColor=none;collapsible=0;dropTarget=0;points=[[0,0.5],[1,0.5]];portConstraint=eastwest;top=0;left=0;right=0;bottom=0;" parent="i-dMMfXqlk09ZkL_Bo82-94" vertex="1">
          <mxGeometry y="47" width="172" height="22" as="geometry" />
        </mxCell>
        <mxCell id="i-dMMfXqlk09ZkL_Bo82-100" value="int" style="shape=partialRectangle;connectable=0;fillColor=none;top=0;left=0;bottom=0;right=0;align=left;spacingLeft=2;overflow=hidden;fontSize=11;" parent="i-dMMfXqlk09ZkL_Bo82-99" vertex="1">
          <mxGeometry width="54" height="22" as="geometry">
            <mxRectangle width="54" height="22" as="alternateBounds" />
          </mxGeometry>
        </mxCell>
        <mxCell id="i-dMMfXqlk09ZkL_Bo82-101" value="user_id" style="shape=partialRectangle;connectable=0;fillColor=none;top=0;left=0;bottom=0;right=0;align=left;spacingLeft=2;overflow=hidden;fontSize=11;" parent="i-dMMfXqlk09ZkL_Bo82-99" vertex="1">
          <mxGeometry x="54" width="96" height="22" as="geometry">
            <mxRectangle width="96" height="22" as="alternateBounds" />
          </mxGeometry>
        </mxCell>
        <mxCell id="i-dMMfXqlk09ZkL_Bo82-102" value="FK" style="shape=partialRectangle;connectable=0;fillColor=none;top=0;left=0;bottom=0;right=0;align=left;spacingLeft=2;overflow=hidden;fontSize=11;" parent="i-dMMfXqlk09ZkL_Bo82-99" vertex="1">
          <mxGeometry x="150" width="22" height="22" as="geometry">
            <mxRectangle width="22" height="22" as="alternateBounds" />
          </mxGeometry>
        </mxCell>
        <mxCell id="i-dMMfXqlk09ZkL_Bo82-103" style="shape=tableRow;horizontal=0;startSize=0;swimlaneHead=0;swimlaneBody=0;fillColor=none;collapsible=0;dropTarget=0;points=[[0,0.5],[1,0.5]];portConstraint=eastwest;top=0;left=0;right=0;bottom=0;" parent="i-dMMfXqlk09ZkL_Bo82-94" vertex="1">
          <mxGeometry y="69" width="172" height="22" as="geometry" />
        </mxCell>
        <mxCell id="i-dMMfXqlk09ZkL_Bo82-104" value="int" style="shape=partialRectangle;connectable=0;fillColor=none;top=0;left=0;bottom=0;right=0;align=left;spacingLeft=2;overflow=hidden;fontSize=11;" parent="i-dMMfXqlk09ZkL_Bo82-103" vertex="1">
          <mxGeometry width="54" height="22" as="geometry">
            <mxRectangle width="54" height="22" as="alternateBounds" />
          </mxGeometry>
        </mxCell>
        <mxCell id="i-dMMfXqlk09ZkL_Bo82-105" value="listing_id" style="shape=partialRectangle;connectable=0;fillColor=none;top=0;left=0;bottom=0;right=0;align=left;spacingLeft=2;overflow=hidden;fontSize=11;" parent="i-dMMfXqlk09ZkL_Bo82-103" vertex="1">
          <mxGeometry x="54" width="96" height="22" as="geometry">
            <mxRectangle width="96" height="22" as="alternateBounds" />
          </mxGeometry>
        </mxCell>
        <mxCell id="i-dMMfXqlk09ZkL_Bo82-106" value="FK" style="shape=partialRectangle;connectable=0;fillColor=none;top=0;left=0;bottom=0;right=0;align=left;spacingLeft=2;overflow=hidden;fontSize=11;" parent="i-dMMfXqlk09ZkL_Bo82-103" vertex="1">
          <mxGeometry x="150" width="22" height="22" as="geometry">
            <mxRectangle width="22" height="22" as="alternateBounds" />
          </mxGeometry>
        </mxCell>
        <mxCell id="i-dMMfXqlk09ZkL_Bo82-107" style="shape=tableRow;horizontal=0;startSize=0;swimlaneHead=0;swimlaneBody=0;fillColor=none;collapsible=0;dropTarget=0;points=[[0,0.5],[1,0.5]];portConstraint=eastwest;top=0;left=0;right=0;bottom=0;" parent="i-dMMfXqlk09ZkL_Bo82-94" vertex="1">
          <mxGeometry y="91" width="172" height="22" as="geometry" />
        </mxCell>
        <mxCell id="i-dMMfXqlk09ZkL_Bo82-108" value="decimal" style="shape=partialRectangle;connectable=0;fillColor=none;top=0;left=0;bottom=0;right=0;align=left;spacingLeft=2;overflow=hidden;fontSize=11;" parent="i-dMMfXqlk09ZkL_Bo82-107" vertex="1">
          <mxGeometry width="54" height="22" as="geometry">
            <mxRectangle width="54" height="22" as="alternateBounds" />
          </mxGeometry>
        </mxCell>
        <mxCell id="i-dMMfXqlk09ZkL_Bo82-109" value="amount" style="shape=partialRectangle;connectable=0;fillColor=none;top=0;left=0;bottom=0;right=0;align=left;spacingLeft=2;overflow=hidden;fontSize=11;" parent="i-dMMfXqlk09ZkL_Bo82-107" vertex="1">
          <mxGeometry x="54" width="96" height="22" as="geometry">
            <mxRectangle width="96" height="22" as="alternateBounds" />
          </mxGeometry>
        </mxCell>
        <mxCell id="i-dMMfXqlk09ZkL_Bo82-110" value="" style="shape=partialRectangle;connectable=0;fillColor=none;top=0;left=0;bottom=0;right=0;align=left;spacingLeft=2;overflow=hidden;fontSize=11;" parent="i-dMMfXqlk09ZkL_Bo82-107" vertex="1">
          <mxGeometry x="150" width="22" height="22" as="geometry">
            <mxRectangle width="22" height="22" as="alternateBounds" />
          </mxGeometry>
        </mxCell>
        <mxCell id="i-dMMfXqlk09ZkL_Bo82-111" style="shape=tableRow;horizontal=0;startSize=0;swimlaneHead=0;swimlaneBody=0;fillColor=none;collapsible=0;dropTarget=0;points=[[0,0.5],[1,0.5]];portConstraint=eastwest;top=0;left=0;right=0;bottom=0;" parent="i-dMMfXqlk09ZkL_Bo82-94" vertex="1">
          <mxGeometry y="113" width="172" height="22" as="geometry" />
        </mxCell>
        <mxCell id="i-dMMfXqlk09ZkL_Bo82-112" value="string" style="shape=partialRectangle;connectable=0;fillColor=none;top=0;left=0;bottom=0;right=0;align=left;spacingLeft=2;overflow=hidden;fontSize=11;" parent="i-dMMfXqlk09ZkL_Bo82-111" vertex="1">
          <mxGeometry width="54" height="22" as="geometry">
            <mxRectangle width="54" height="22" as="alternateBounds" />
          </mxGeometry>
        </mxCell>
        <mxCell id="i-dMMfXqlk09ZkL_Bo82-113" value="payment_status" style="shape=partialRectangle;connectable=0;fillColor=none;top=0;left=0;bottom=0;right=0;align=left;spacingLeft=2;overflow=hidden;fontSize=11;" parent="i-dMMfXqlk09ZkL_Bo82-111" vertex="1">
          <mxGeometry x="54" width="96" height="22" as="geometry">
            <mxRectangle width="96" height="22" as="alternateBounds" />
          </mxGeometry>
        </mxCell>
        <mxCell id="i-dMMfXqlk09ZkL_Bo82-114" value="" style="shape=partialRectangle;connectable=0;fillColor=none;top=0;left=0;bottom=0;right=0;align=left;spacingLeft=2;overflow=hidden;fontSize=11;" parent="i-dMMfXqlk09ZkL_Bo82-111" vertex="1">
          <mxGeometry x="150" width="22" height="22" as="geometry">
            <mxRectangle width="22" height="22" as="alternateBounds" />
          </mxGeometry>
        </mxCell>
        <mxCell id="i-dMMfXqlk09ZkL_Bo82-115" style="shape=tableRow;horizontal=0;startSize=0;swimlaneHead=0;swimlaneBody=0;fillColor=none;collapsible=0;dropTarget=0;points=[[0,0.5],[1,0.5]];portConstraint=eastwest;top=0;left=0;right=0;bottom=0;" parent="i-dMMfXqlk09ZkL_Bo82-94" vertex="1">
          <mxGeometry y="135" width="172" height="22" as="geometry" />
        </mxCell>
        <mxCell id="i-dMMfXqlk09ZkL_Bo82-116" value="timestamp" style="shape=partialRectangle;connectable=0;fillColor=none;top=0;left=0;bottom=0;right=0;align=left;spacingLeft=2;overflow=hidden;fontSize=11;" parent="i-dMMfXqlk09ZkL_Bo82-115" vertex="1">
          <mxGeometry width="54" height="22" as="geometry">
            <mxRectangle width="54" height="22" as="alternateBounds" />
          </mxGeometry>
        </mxCell>
        <mxCell id="i-dMMfXqlk09ZkL_Bo82-117" value="transaction_date" style="shape=partialRectangle;connectable=0;fillColor=none;top=0;left=0;bottom=0;right=0;align=left;spacingLeft=2;overflow=hidden;fontSize=11;" parent="i-dMMfXqlk09ZkL_Bo82-115" vertex="1">
          <mxGeometry x="54" width="96" height="22" as="geometry">
            <mxRectangle width="96" height="22" as="alternateBounds" />
          </mxGeometry>
        </mxCell>
        <mxCell id="i-dMMfXqlk09ZkL_Bo82-118" value="" style="shape=partialRectangle;connectable=0;fillColor=none;top=0;left=0;bottom=0;right=0;align=left;spacingLeft=2;overflow=hidden;fontSize=11;" parent="i-dMMfXqlk09ZkL_Bo82-115" vertex="1">
          <mxGeometry x="150" width="22" height="22" as="geometry">
            <mxRectangle width="22" height="22" as="alternateBounds" />
          </mxGeometry>
        </mxCell>
        <mxCell id="i-dMMfXqlk09ZkL_Bo82-119" value="PAYMENTS" style="shape=table;startSize=25;container=1;collapsible=0;childLayout=tableLayout;fixedRows=1;rowLines=1;fontStyle=1;align=center;resizeLast=1;" parent="1" vertex="1">
          <mxGeometry x="2394" y="692" width="157" height="157" as="geometry" />
        </mxCell>
        <mxCell id="i-dMMfXqlk09ZkL_Bo82-120" style="shape=tableRow;horizontal=0;startSize=0;swimlaneHead=0;swimlaneBody=0;fillColor=none;collapsible=0;dropTarget=0;points=[[0,0.5],[1,0.5]];portConstraint=eastwest;top=0;left=0;right=0;bottom=0;" parent="i-dMMfXqlk09ZkL_Bo82-119" vertex="1">
          <mxGeometry y="25" width="157" height="22" as="geometry" />
        </mxCell>
        <mxCell id="i-dMMfXqlk09ZkL_Bo82-121" value="int" style="shape=partialRectangle;connectable=0;fillColor=none;top=0;left=0;bottom=0;right=0;align=left;spacingLeft=2;overflow=hidden;fontSize=11;" parent="i-dMMfXqlk09ZkL_Bo82-120" vertex="1">
          <mxGeometry width="54" height="22" as="geometry">
            <mxRectangle width="54" height="22" as="alternateBounds" />
          </mxGeometry>
        </mxCell>
        <mxCell id="i-dMMfXqlk09ZkL_Bo82-122" value="payment_id" style="shape=partialRectangle;connectable=0;fillColor=none;top=0;left=0;bottom=0;right=0;align=left;spacingLeft=2;overflow=hidden;fontSize=11;" parent="i-dMMfXqlk09ZkL_Bo82-120" vertex="1">
          <mxGeometry x="54" width="81" height="22" as="geometry">
            <mxRectangle width="81" height="22" as="alternateBounds" />
          </mxGeometry>
        </mxCell>
        <mxCell id="i-dMMfXqlk09ZkL_Bo82-123" value="PK" style="shape=partialRectangle;connectable=0;fillColor=none;top=0;left=0;bottom=0;right=0;align=left;spacingLeft=2;overflow=hidden;fontSize=11;" parent="i-dMMfXqlk09ZkL_Bo82-120" vertex="1">
          <mxGeometry x="135" width="22" height="22" as="geometry">
            <mxRectangle width="22" height="22" as="alternateBounds" />
          </mxGeometry>
        </mxCell>
        <mxCell id="i-dMMfXqlk09ZkL_Bo82-124" style="shape=tableRow;horizontal=0;startSize=0;swimlaneHead=0;swimlaneBody=0;fillColor=none;collapsible=0;dropTarget=0;points=[[0,0.5],[1,0.5]];portConstraint=eastwest;top=0;left=0;right=0;bottom=0;" parent="i-dMMfXqlk09ZkL_Bo82-119" vertex="1">
          <mxGeometry y="47" width="157" height="22" as="geometry" />
        </mxCell>
        <mxCell id="i-dMMfXqlk09ZkL_Bo82-125" value="int" style="shape=partialRectangle;connectable=0;fillColor=none;top=0;left=0;bottom=0;right=0;align=left;spacingLeft=2;overflow=hidden;fontSize=11;" parent="i-dMMfXqlk09ZkL_Bo82-124" vertex="1">
          <mxGeometry width="54" height="22" as="geometry">
            <mxRectangle width="54" height="22" as="alternateBounds" />
          </mxGeometry>
        </mxCell>
        <mxCell id="i-dMMfXqlk09ZkL_Bo82-126" value="user_id" style="shape=partialRectangle;connectable=0;fillColor=none;top=0;left=0;bottom=0;right=0;align=left;spacingLeft=2;overflow=hidden;fontSize=11;" parent="i-dMMfXqlk09ZkL_Bo82-124" vertex="1">
          <mxGeometry x="54" width="81" height="22" as="geometry">
            <mxRectangle width="81" height="22" as="alternateBounds" />
          </mxGeometry>
        </mxCell>
        <mxCell id="i-dMMfXqlk09ZkL_Bo82-127" value="FK" style="shape=partialRectangle;connectable=0;fillColor=none;top=0;left=0;bottom=0;right=0;align=left;spacingLeft=2;overflow=hidden;fontSize=11;" parent="i-dMMfXqlk09ZkL_Bo82-124" vertex="1">
          <mxGeometry x="135" width="22" height="22" as="geometry">
            <mxRectangle width="22" height="22" as="alternateBounds" />
          </mxGeometry>
        </mxCell>
        <mxCell id="i-dMMfXqlk09ZkL_Bo82-128" style="shape=tableRow;horizontal=0;startSize=0;swimlaneHead=0;swimlaneBody=0;fillColor=none;collapsible=0;dropTarget=0;points=[[0,0.5],[1,0.5]];portConstraint=eastwest;top=0;left=0;right=0;bottom=0;" parent="i-dMMfXqlk09ZkL_Bo82-119" vertex="1">
          <mxGeometry y="69" width="157" height="22" as="geometry" />
        </mxCell>
        <mxCell id="i-dMMfXqlk09ZkL_Bo82-129" value="decimal" style="shape=partialRectangle;connectable=0;fillColor=none;top=0;left=0;bottom=0;right=0;align=left;spacingLeft=2;overflow=hidden;fontSize=11;" parent="i-dMMfXqlk09ZkL_Bo82-128" vertex="1">
          <mxGeometry width="54" height="22" as="geometry">
            <mxRectangle width="54" height="22" as="alternateBounds" />
          </mxGeometry>
        </mxCell>
        <mxCell id="i-dMMfXqlk09ZkL_Bo82-130" value="amount" style="shape=partialRectangle;connectable=0;fillColor=none;top=0;left=0;bottom=0;right=0;align=left;spacingLeft=2;overflow=hidden;fontSize=11;" parent="i-dMMfXqlk09ZkL_Bo82-128" vertex="1">
          <mxGeometry x="54" width="81" height="22" as="geometry">
            <mxRectangle width="81" height="22" as="alternateBounds" />
          </mxGeometry>
        </mxCell>
        <mxCell id="i-dMMfXqlk09ZkL_Bo82-131" value="" style="shape=partialRectangle;connectable=0;fillColor=none;top=0;left=0;bottom=0;right=0;align=left;spacingLeft=2;overflow=hidden;fontSize=11;" parent="i-dMMfXqlk09ZkL_Bo82-128" vertex="1">
          <mxGeometry x="135" width="22" height="22" as="geometry">
            <mxRectangle width="22" height="22" as="alternateBounds" />
          </mxGeometry>
        </mxCell>
        <mxCell id="i-dMMfXqlk09ZkL_Bo82-132" style="shape=tableRow;horizontal=0;startSize=0;swimlaneHead=0;swimlaneBody=0;fillColor=none;collapsible=0;dropTarget=0;points=[[0,0.5],[1,0.5]];portConstraint=eastwest;top=0;left=0;right=0;bottom=0;" parent="i-dMMfXqlk09ZkL_Bo82-119" vertex="1">
          <mxGeometry y="91" width="157" height="22" as="geometry" />
        </mxCell>
        <mxCell id="i-dMMfXqlk09ZkL_Bo82-133" value="string" style="shape=partialRectangle;connectable=0;fillColor=none;top=0;left=0;bottom=0;right=0;align=left;spacingLeft=2;overflow=hidden;fontSize=11;" parent="i-dMMfXqlk09ZkL_Bo82-132" vertex="1">
          <mxGeometry width="54" height="22" as="geometry">
            <mxRectangle width="54" height="22" as="alternateBounds" />
          </mxGeometry>
        </mxCell>
        <mxCell id="i-dMMfXqlk09ZkL_Bo82-134" value="method" style="shape=partialRectangle;connectable=0;fillColor=none;top=0;left=0;bottom=0;right=0;align=left;spacingLeft=2;overflow=hidden;fontSize=11;" parent="i-dMMfXqlk09ZkL_Bo82-132" vertex="1">
          <mxGeometry x="54" width="81" height="22" as="geometry">
            <mxRectangle width="81" height="22" as="alternateBounds" />
          </mxGeometry>
        </mxCell>
        <mxCell id="i-dMMfXqlk09ZkL_Bo82-135" value="" style="shape=partialRectangle;connectable=0;fillColor=none;top=0;left=0;bottom=0;right=0;align=left;spacingLeft=2;overflow=hidden;fontSize=11;" parent="i-dMMfXqlk09ZkL_Bo82-132" vertex="1">
          <mxGeometry x="135" width="22" height="22" as="geometry">
            <mxRectangle width="22" height="22" as="alternateBounds" />
          </mxGeometry>
        </mxCell>
        <mxCell id="i-dMMfXqlk09ZkL_Bo82-136" style="shape=tableRow;horizontal=0;startSize=0;swimlaneHead=0;swimlaneBody=0;fillColor=none;collapsible=0;dropTarget=0;points=[[0,0.5],[1,0.5]];portConstraint=eastwest;top=0;left=0;right=0;bottom=0;" parent="i-dMMfXqlk09ZkL_Bo82-119" vertex="1">
          <mxGeometry y="113" width="157" height="22" as="geometry" />
        </mxCell>
        <mxCell id="i-dMMfXqlk09ZkL_Bo82-137" value="string" style="shape=partialRectangle;connectable=0;fillColor=none;top=0;left=0;bottom=0;right=0;align=left;spacingLeft=2;overflow=hidden;fontSize=11;" parent="i-dMMfXqlk09ZkL_Bo82-136" vertex="1">
          <mxGeometry width="54" height="22" as="geometry">
            <mxRectangle width="54" height="22" as="alternateBounds" />
          </mxGeometry>
        </mxCell>
        <mxCell id="i-dMMfXqlk09ZkL_Bo82-138" value="status" style="shape=partialRectangle;connectable=0;fillColor=none;top=0;left=0;bottom=0;right=0;align=left;spacingLeft=2;overflow=hidden;fontSize=11;" parent="i-dMMfXqlk09ZkL_Bo82-136" vertex="1">
          <mxGeometry x="54" width="81" height="22" as="geometry">
            <mxRectangle width="81" height="22" as="alternateBounds" />
          </mxGeometry>
        </mxCell>
        <mxCell id="i-dMMfXqlk09ZkL_Bo82-139" value="" style="shape=partialRectangle;connectable=0;fillColor=none;top=0;left=0;bottom=0;right=0;align=left;spacingLeft=2;overflow=hidden;fontSize=11;" parent="i-dMMfXqlk09ZkL_Bo82-136" vertex="1">
          <mxGeometry x="135" width="22" height="22" as="geometry">
            <mxRectangle width="22" height="22" as="alternateBounds" />
          </mxGeometry>
        </mxCell>
        <mxCell id="i-dMMfXqlk09ZkL_Bo82-140" style="shape=tableRow;horizontal=0;startSize=0;swimlaneHead=0;swimlaneBody=0;fillColor=none;collapsible=0;dropTarget=0;points=[[0,0.5],[1,0.5]];portConstraint=eastwest;top=0;left=0;right=0;bottom=0;" parent="i-dMMfXqlk09ZkL_Bo82-119" vertex="1">
          <mxGeometry y="135" width="157" height="22" as="geometry" />
        </mxCell>
        <mxCell id="i-dMMfXqlk09ZkL_Bo82-141" value="timestamp" style="shape=partialRectangle;connectable=0;fillColor=none;top=0;left=0;bottom=0;right=0;align=left;spacingLeft=2;overflow=hidden;fontSize=11;" parent="i-dMMfXqlk09ZkL_Bo82-140" vertex="1">
          <mxGeometry width="54" height="22" as="geometry">
            <mxRectangle width="54" height="22" as="alternateBounds" />
          </mxGeometry>
        </mxCell>
        <mxCell id="i-dMMfXqlk09ZkL_Bo82-142" value="payment_date" style="shape=partialRectangle;connectable=0;fillColor=none;top=0;left=0;bottom=0;right=0;align=left;spacingLeft=2;overflow=hidden;fontSize=11;" parent="i-dMMfXqlk09ZkL_Bo82-140" vertex="1">
          <mxGeometry x="54" width="81" height="22" as="geometry">
            <mxRectangle width="81" height="22" as="alternateBounds" />
          </mxGeometry>
        </mxCell>
        <mxCell id="i-dMMfXqlk09ZkL_Bo82-143" value="" style="shape=partialRectangle;connectable=0;fillColor=none;top=0;left=0;bottom=0;right=0;align=left;spacingLeft=2;overflow=hidden;fontSize=11;" parent="i-dMMfXqlk09ZkL_Bo82-140" vertex="1">
          <mxGeometry x="135" width="22" height="22" as="geometry">
            <mxRectangle width="22" height="22" as="alternateBounds" />
          </mxGeometry>
        </mxCell>
        <mxCell id="i-dMMfXqlk09ZkL_Bo82-144" value="LOGS" style="shape=table;startSize=25;container=1;collapsible=0;childLayout=tableLayout;fixedRows=1;rowLines=1;fontStyle=1;align=center;resizeLast=1;" parent="1" vertex="1">
          <mxGeometry x="2652" y="703" width="141" height="135" as="geometry" />
        </mxCell>
        <mxCell id="i-dMMfXqlk09ZkL_Bo82-145" style="shape=tableRow;horizontal=0;startSize=0;swimlaneHead=0;swimlaneBody=0;fillColor=none;collapsible=0;dropTarget=0;points=[[0,0.5],[1,0.5]];portConstraint=eastwest;top=0;left=0;right=0;bottom=0;" parent="i-dMMfXqlk09ZkL_Bo82-144" vertex="1">
          <mxGeometry y="25" width="141" height="22" as="geometry" />
        </mxCell>
        <mxCell id="i-dMMfXqlk09ZkL_Bo82-146" value="int" style="shape=partialRectangle;connectable=0;fillColor=none;top=0;left=0;bottom=0;right=0;align=left;spacingLeft=2;overflow=hidden;fontSize=11;" parent="i-dMMfXqlk09ZkL_Bo82-145" vertex="1">
          <mxGeometry width="54" height="22" as="geometry">
            <mxRectangle width="54" height="22" as="alternateBounds" />
          </mxGeometry>
        </mxCell>
        <mxCell id="i-dMMfXqlk09ZkL_Bo82-147" value="log_id" style="shape=partialRectangle;connectable=0;fillColor=none;top=0;left=0;bottom=0;right=0;align=left;spacingLeft=2;overflow=hidden;fontSize=11;" parent="i-dMMfXqlk09ZkL_Bo82-145" vertex="1">
          <mxGeometry x="54" width="65" height="22" as="geometry">
            <mxRectangle width="65" height="22" as="alternateBounds" />
          </mxGeometry>
        </mxCell>
        <mxCell id="i-dMMfXqlk09ZkL_Bo82-148" value="PK" style="shape=partialRectangle;connectable=0;fillColor=none;top=0;left=0;bottom=0;right=0;align=left;spacingLeft=2;overflow=hidden;fontSize=11;" parent="i-dMMfXqlk09ZkL_Bo82-145" vertex="1">
          <mxGeometry x="119" width="22" height="22" as="geometry">
            <mxRectangle width="22" height="22" as="alternateBounds" />
          </mxGeometry>
        </mxCell>
        <mxCell id="i-dMMfXqlk09ZkL_Bo82-149" style="shape=tableRow;horizontal=0;startSize=0;swimlaneHead=0;swimlaneBody=0;fillColor=none;collapsible=0;dropTarget=0;points=[[0,0.5],[1,0.5]];portConstraint=eastwest;top=0;left=0;right=0;bottom=0;" parent="i-dMMfXqlk09ZkL_Bo82-144" vertex="1">
          <mxGeometry y="47" width="141" height="22" as="geometry" />
        </mxCell>
        <mxCell id="i-dMMfXqlk09ZkL_Bo82-150" value="int" style="shape=partialRectangle;connectable=0;fillColor=none;top=0;left=0;bottom=0;right=0;align=left;spacingLeft=2;overflow=hidden;fontSize=11;" parent="i-dMMfXqlk09ZkL_Bo82-149" vertex="1">
          <mxGeometry width="54" height="22" as="geometry">
            <mxRectangle width="54" height="22" as="alternateBounds" />
          </mxGeometry>
        </mxCell>
        <mxCell id="i-dMMfXqlk09ZkL_Bo82-151" value="user_id" style="shape=partialRectangle;connectable=0;fillColor=none;top=0;left=0;bottom=0;right=0;align=left;spacingLeft=2;overflow=hidden;fontSize=11;" parent="i-dMMfXqlk09ZkL_Bo82-149" vertex="1">
          <mxGeometry x="54" width="65" height="22" as="geometry">
            <mxRectangle width="65" height="22" as="alternateBounds" />
          </mxGeometry>
        </mxCell>
        <mxCell id="i-dMMfXqlk09ZkL_Bo82-152" value="FK" style="shape=partialRectangle;connectable=0;fillColor=none;top=0;left=0;bottom=0;right=0;align=left;spacingLeft=2;overflow=hidden;fontSize=11;" parent="i-dMMfXqlk09ZkL_Bo82-149" vertex="1">
          <mxGeometry x="119" width="22" height="22" as="geometry">
            <mxRectangle width="22" height="22" as="alternateBounds" />
          </mxGeometry>
        </mxCell>
        <mxCell id="i-dMMfXqlk09ZkL_Bo82-153" style="shape=tableRow;horizontal=0;startSize=0;swimlaneHead=0;swimlaneBody=0;fillColor=none;collapsible=0;dropTarget=0;points=[[0,0.5],[1,0.5]];portConstraint=eastwest;top=0;left=0;right=0;bottom=0;" parent="i-dMMfXqlk09ZkL_Bo82-144" vertex="1">
          <mxGeometry y="69" width="141" height="22" as="geometry" />
        </mxCell>
        <mxCell id="i-dMMfXqlk09ZkL_Bo82-154" value="string" style="shape=partialRectangle;connectable=0;fillColor=none;top=0;left=0;bottom=0;right=0;align=left;spacingLeft=2;overflow=hidden;fontSize=11;" parent="i-dMMfXqlk09ZkL_Bo82-153" vertex="1">
          <mxGeometry width="54" height="22" as="geometry">
            <mxRectangle width="54" height="22" as="alternateBounds" />
          </mxGeometry>
        </mxCell>
        <mxCell id="i-dMMfXqlk09ZkL_Bo82-155" value="action" style="shape=partialRectangle;connectable=0;fillColor=none;top=0;left=0;bottom=0;right=0;align=left;spacingLeft=2;overflow=hidden;fontSize=11;" parent="i-dMMfXqlk09ZkL_Bo82-153" vertex="1">
          <mxGeometry x="54" width="65" height="22" as="geometry">
            <mxRectangle width="65" height="22" as="alternateBounds" />
          </mxGeometry>
        </mxCell>
        <mxCell id="i-dMMfXqlk09ZkL_Bo82-156" value="" style="shape=partialRectangle;connectable=0;fillColor=none;top=0;left=0;bottom=0;right=0;align=left;spacingLeft=2;overflow=hidden;fontSize=11;" parent="i-dMMfXqlk09ZkL_Bo82-153" vertex="1">
          <mxGeometry x="119" width="22" height="22" as="geometry">
            <mxRectangle width="22" height="22" as="alternateBounds" />
          </mxGeometry>
        </mxCell>
        <mxCell id="i-dMMfXqlk09ZkL_Bo82-157" style="shape=tableRow;horizontal=0;startSize=0;swimlaneHead=0;swimlaneBody=0;fillColor=none;collapsible=0;dropTarget=0;points=[[0,0.5],[1,0.5]];portConstraint=eastwest;top=0;left=0;right=0;bottom=0;" parent="i-dMMfXqlk09ZkL_Bo82-144" vertex="1">
          <mxGeometry y="91" width="141" height="22" as="geometry" />
        </mxCell>
        <mxCell id="i-dMMfXqlk09ZkL_Bo82-158" value="timestamp" style="shape=partialRectangle;connectable=0;fillColor=none;top=0;left=0;bottom=0;right=0;align=left;spacingLeft=2;overflow=hidden;fontSize=11;" parent="i-dMMfXqlk09ZkL_Bo82-157" vertex="1">
          <mxGeometry width="54" height="22" as="geometry">
            <mxRectangle width="54" height="22" as="alternateBounds" />
          </mxGeometry>
        </mxCell>
        <mxCell id="i-dMMfXqlk09ZkL_Bo82-159" value="timestamp" style="shape=partialRectangle;connectable=0;fillColor=none;top=0;left=0;bottom=0;right=0;align=left;spacingLeft=2;overflow=hidden;fontSize=11;" parent="i-dMMfXqlk09ZkL_Bo82-157" vertex="1">
          <mxGeometry x="54" width="65" height="22" as="geometry">
            <mxRectangle width="65" height="22" as="alternateBounds" />
          </mxGeometry>
        </mxCell>
        <mxCell id="i-dMMfXqlk09ZkL_Bo82-160" value="" style="shape=partialRectangle;connectable=0;fillColor=none;top=0;left=0;bottom=0;right=0;align=left;spacingLeft=2;overflow=hidden;fontSize=11;" parent="i-dMMfXqlk09ZkL_Bo82-157" vertex="1">
          <mxGeometry x="119" width="22" height="22" as="geometry">
            <mxRectangle width="22" height="22" as="alternateBounds" />
          </mxGeometry>
        </mxCell>
        <mxCell id="i-dMMfXqlk09ZkL_Bo82-161" style="shape=tableRow;horizontal=0;startSize=0;swimlaneHead=0;swimlaneBody=0;fillColor=none;collapsible=0;dropTarget=0;points=[[0,0.5],[1,0.5]];portConstraint=eastwest;top=0;left=0;right=0;bottom=0;" parent="i-dMMfXqlk09ZkL_Bo82-144" vertex="1">
          <mxGeometry y="113" width="141" height="22" as="geometry" />
        </mxCell>
        <mxCell id="i-dMMfXqlk09ZkL_Bo82-162" value="string" style="shape=partialRectangle;connectable=0;fillColor=none;top=0;left=0;bottom=0;right=0;align=left;spacingLeft=2;overflow=hidden;fontSize=11;" parent="i-dMMfXqlk09ZkL_Bo82-161" vertex="1">
          <mxGeometry width="54" height="22" as="geometry">
            <mxRectangle width="54" height="22" as="alternateBounds" />
          </mxGeometry>
        </mxCell>
        <mxCell id="i-dMMfXqlk09ZkL_Bo82-163" value="ip_address" style="shape=partialRectangle;connectable=0;fillColor=none;top=0;left=0;bottom=0;right=0;align=left;spacingLeft=2;overflow=hidden;fontSize=11;" parent="i-dMMfXqlk09ZkL_Bo82-161" vertex="1">
          <mxGeometry x="54" width="65" height="22" as="geometry">
            <mxRectangle width="65" height="22" as="alternateBounds" />
          </mxGeometry>
        </mxCell>
        <mxCell id="i-dMMfXqlk09ZkL_Bo82-164" value="" style="shape=partialRectangle;connectable=0;fillColor=none;top=0;left=0;bottom=0;right=0;align=left;spacingLeft=2;overflow=hidden;fontSize=11;" parent="i-dMMfXqlk09ZkL_Bo82-161" vertex="1">
          <mxGeometry x="119" width="22" height="22" as="geometry">
            <mxRectangle width="22" height="22" as="alternateBounds" />
          </mxGeometry>
        </mxCell>
        <mxCell id="i-dMMfXqlk09ZkL_Bo82-165" value="REPORTS" style="shape=table;startSize=25;container=1;collapsible=0;childLayout=tableLayout;fixedRows=1;rowLines=1;fontStyle=1;align=center;resizeLast=1;" parent="1" vertex="1">
          <mxGeometry x="1836" y="692" width="190" height="157" as="geometry" />
        </mxCell>
        <mxCell id="i-dMMfXqlk09ZkL_Bo82-166" style="shape=tableRow;horizontal=0;startSize=0;swimlaneHead=0;swimlaneBody=0;fillColor=none;collapsible=0;dropTarget=0;points=[[0,0.5],[1,0.5]];portConstraint=eastwest;top=0;left=0;right=0;bottom=0;" parent="i-dMMfXqlk09ZkL_Bo82-165" vertex="1">
          <mxGeometry y="25" width="190" height="22" as="geometry" />
        </mxCell>
        <mxCell id="i-dMMfXqlk09ZkL_Bo82-167" value="int" style="shape=partialRectangle;connectable=0;fillColor=none;top=0;left=0;bottom=0;right=0;align=left;spacingLeft=2;overflow=hidden;fontSize=11;" parent="i-dMMfXqlk09ZkL_Bo82-166" vertex="1">
          <mxGeometry width="54" height="22" as="geometry">
            <mxRectangle width="54" height="22" as="alternateBounds" />
          </mxGeometry>
        </mxCell>
        <mxCell id="i-dMMfXqlk09ZkL_Bo82-168" value="report_id" style="shape=partialRectangle;connectable=0;fillColor=none;top=0;left=0;bottom=0;right=0;align=left;spacingLeft=2;overflow=hidden;fontSize=11;" parent="i-dMMfXqlk09ZkL_Bo82-166" vertex="1">
          <mxGeometry x="54" width="114" height="22" as="geometry">
            <mxRectangle width="114" height="22" as="alternateBounds" />
          </mxGeometry>
        </mxCell>
        <mxCell id="i-dMMfXqlk09ZkL_Bo82-169" value="PK" style="shape=partialRectangle;connectable=0;fillColor=none;top=0;left=0;bottom=0;right=0;align=left;spacingLeft=2;overflow=hidden;fontSize=11;" parent="i-dMMfXqlk09ZkL_Bo82-166" vertex="1">
          <mxGeometry x="168" width="22" height="22" as="geometry">
            <mxRectangle width="22" height="22" as="alternateBounds" />
          </mxGeometry>
        </mxCell>
        <mxCell id="i-dMMfXqlk09ZkL_Bo82-170" style="shape=tableRow;horizontal=0;startSize=0;swimlaneHead=0;swimlaneBody=0;fillColor=none;collapsible=0;dropTarget=0;points=[[0,0.5],[1,0.5]];portConstraint=eastwest;top=0;left=0;right=0;bottom=0;" parent="i-dMMfXqlk09ZkL_Bo82-165" vertex="1">
          <mxGeometry y="47" width="190" height="22" as="geometry" />
        </mxCell>
        <mxCell id="i-dMMfXqlk09ZkL_Bo82-171" value="int" style="shape=partialRectangle;connectable=0;fillColor=none;top=0;left=0;bottom=0;right=0;align=left;spacingLeft=2;overflow=hidden;fontSize=11;" parent="i-dMMfXqlk09ZkL_Bo82-170" vertex="1">
          <mxGeometry width="54" height="22" as="geometry">
            <mxRectangle width="54" height="22" as="alternateBounds" />
          </mxGeometry>
        </mxCell>
        <mxCell id="i-dMMfXqlk09ZkL_Bo82-172" value="reported_listing_id" style="shape=partialRectangle;connectable=0;fillColor=none;top=0;left=0;bottom=0;right=0;align=left;spacingLeft=2;overflow=hidden;fontSize=11;" parent="i-dMMfXqlk09ZkL_Bo82-170" vertex="1">
          <mxGeometry x="54" width="114" height="22" as="geometry">
            <mxRectangle width="114" height="22" as="alternateBounds" />
          </mxGeometry>
        </mxCell>
        <mxCell id="i-dMMfXqlk09ZkL_Bo82-173" value="FK" style="shape=partialRectangle;connectable=0;fillColor=none;top=0;left=0;bottom=0;right=0;align=left;spacingLeft=2;overflow=hidden;fontSize=11;" parent="i-dMMfXqlk09ZkL_Bo82-170" vertex="1">
          <mxGeometry x="168" width="22" height="22" as="geometry">
            <mxRectangle width="22" height="22" as="alternateBounds" />
          </mxGeometry>
        </mxCell>
        <mxCell id="i-dMMfXqlk09ZkL_Bo82-174" style="shape=tableRow;horizontal=0;startSize=0;swimlaneHead=0;swimlaneBody=0;fillColor=none;collapsible=0;dropTarget=0;points=[[0,0.5],[1,0.5]];portConstraint=eastwest;top=0;left=0;right=0;bottom=0;" parent="i-dMMfXqlk09ZkL_Bo82-165" vertex="1">
          <mxGeometry y="69" width="190" height="22" as="geometry" />
        </mxCell>
        <mxCell id="i-dMMfXqlk09ZkL_Bo82-175" value="int" style="shape=partialRectangle;connectable=0;fillColor=none;top=0;left=0;bottom=0;right=0;align=left;spacingLeft=2;overflow=hidden;fontSize=11;" parent="i-dMMfXqlk09ZkL_Bo82-174" vertex="1">
          <mxGeometry width="54" height="22" as="geometry">
            <mxRectangle width="54" height="22" as="alternateBounds" />
          </mxGeometry>
        </mxCell>
        <mxCell id="i-dMMfXqlk09ZkL_Bo82-176" value="reported_by_user_id" style="shape=partialRectangle;connectable=0;fillColor=none;top=0;left=0;bottom=0;right=0;align=left;spacingLeft=2;overflow=hidden;fontSize=11;" parent="i-dMMfXqlk09ZkL_Bo82-174" vertex="1">
          <mxGeometry x="54" width="114" height="22" as="geometry">
            <mxRectangle width="114" height="22" as="alternateBounds" />
          </mxGeometry>
        </mxCell>
        <mxCell id="i-dMMfXqlk09ZkL_Bo82-177" value="FK" style="shape=partialRectangle;connectable=0;fillColor=none;top=0;left=0;bottom=0;right=0;align=left;spacingLeft=2;overflow=hidden;fontSize=11;" parent="i-dMMfXqlk09ZkL_Bo82-174" vertex="1">
          <mxGeometry x="168" width="22" height="22" as="geometry">
            <mxRectangle width="22" height="22" as="alternateBounds" />
          </mxGeometry>
        </mxCell>
        <mxCell id="i-dMMfXqlk09ZkL_Bo82-178" style="shape=tableRow;horizontal=0;startSize=0;swimlaneHead=0;swimlaneBody=0;fillColor=none;collapsible=0;dropTarget=0;points=[[0,0.5],[1,0.5]];portConstraint=eastwest;top=0;left=0;right=0;bottom=0;" parent="i-dMMfXqlk09ZkL_Bo82-165" vertex="1">
          <mxGeometry y="91" width="190" height="22" as="geometry" />
        </mxCell>
        <mxCell id="i-dMMfXqlk09ZkL_Bo82-179" value="text" style="shape=partialRectangle;connectable=0;fillColor=none;top=0;left=0;bottom=0;right=0;align=left;spacingLeft=2;overflow=hidden;fontSize=11;" parent="i-dMMfXqlk09ZkL_Bo82-178" vertex="1">
          <mxGeometry width="54" height="22" as="geometry">
            <mxRectangle width="54" height="22" as="alternateBounds" />
          </mxGeometry>
        </mxCell>
        <mxCell id="i-dMMfXqlk09ZkL_Bo82-180" value="reason" style="shape=partialRectangle;connectable=0;fillColor=none;top=0;left=0;bottom=0;right=0;align=left;spacingLeft=2;overflow=hidden;fontSize=11;" parent="i-dMMfXqlk09ZkL_Bo82-178" vertex="1">
          <mxGeometry x="54" width="114" height="22" as="geometry">
            <mxRectangle width="114" height="22" as="alternateBounds" />
          </mxGeometry>
        </mxCell>
        <mxCell id="i-dMMfXqlk09ZkL_Bo82-181" value="" style="shape=partialRectangle;connectable=0;fillColor=none;top=0;left=0;bottom=0;right=0;align=left;spacingLeft=2;overflow=hidden;fontSize=11;" parent="i-dMMfXqlk09ZkL_Bo82-178" vertex="1">
          <mxGeometry x="168" width="22" height="22" as="geometry">
            <mxRectangle width="22" height="22" as="alternateBounds" />
          </mxGeometry>
        </mxCell>
        <mxCell id="i-dMMfXqlk09ZkL_Bo82-182" style="shape=tableRow;horizontal=0;startSize=0;swimlaneHead=0;swimlaneBody=0;fillColor=none;collapsible=0;dropTarget=0;points=[[0,0.5],[1,0.5]];portConstraint=eastwest;top=0;left=0;right=0;bottom=0;" parent="i-dMMfXqlk09ZkL_Bo82-165" vertex="1">
          <mxGeometry y="113" width="190" height="22" as="geometry" />
        </mxCell>
        <mxCell id="i-dMMfXqlk09ZkL_Bo82-183" value="string" style="shape=partialRectangle;connectable=0;fillColor=none;top=0;left=0;bottom=0;right=0;align=left;spacingLeft=2;overflow=hidden;fontSize=11;" parent="i-dMMfXqlk09ZkL_Bo82-182" vertex="1">
          <mxGeometry width="54" height="22" as="geometry">
            <mxRectangle width="54" height="22" as="alternateBounds" />
          </mxGeometry>
        </mxCell>
        <mxCell id="i-dMMfXqlk09ZkL_Bo82-184" value="report_status" style="shape=partialRectangle;connectable=0;fillColor=none;top=0;left=0;bottom=0;right=0;align=left;spacingLeft=2;overflow=hidden;fontSize=11;" parent="i-dMMfXqlk09ZkL_Bo82-182" vertex="1">
          <mxGeometry x="54" width="114" height="22" as="geometry">
            <mxRectangle width="114" height="22" as="alternateBounds" />
          </mxGeometry>
        </mxCell>
        <mxCell id="i-dMMfXqlk09ZkL_Bo82-185" value="" style="shape=partialRectangle;connectable=0;fillColor=none;top=0;left=0;bottom=0;right=0;align=left;spacingLeft=2;overflow=hidden;fontSize=11;" parent="i-dMMfXqlk09ZkL_Bo82-182" vertex="1">
          <mxGeometry x="168" width="22" height="22" as="geometry">
            <mxRectangle width="22" height="22" as="alternateBounds" />
          </mxGeometry>
        </mxCell>
        <mxCell id="i-dMMfXqlk09ZkL_Bo82-186" style="shape=tableRow;horizontal=0;startSize=0;swimlaneHead=0;swimlaneBody=0;fillColor=none;collapsible=0;dropTarget=0;points=[[0,0.5],[1,0.5]];portConstraint=eastwest;top=0;left=0;right=0;bottom=0;" parent="i-dMMfXqlk09ZkL_Bo82-165" vertex="1">
          <mxGeometry y="135" width="190" height="22" as="geometry" />
        </mxCell>
        <mxCell id="i-dMMfXqlk09ZkL_Bo82-187" value="timestamp" style="shape=partialRectangle;connectable=0;fillColor=none;top=0;left=0;bottom=0;right=0;align=left;spacingLeft=2;overflow=hidden;fontSize=11;" parent="i-dMMfXqlk09ZkL_Bo82-186" vertex="1">
          <mxGeometry width="54" height="22" as="geometry">
            <mxRectangle width="54" height="22" as="alternateBounds" />
          </mxGeometry>
        </mxCell>
        <mxCell id="i-dMMfXqlk09ZkL_Bo82-188" value="reported_at" style="shape=partialRectangle;connectable=0;fillColor=none;top=0;left=0;bottom=0;right=0;align=left;spacingLeft=2;overflow=hidden;fontSize=11;" parent="i-dMMfXqlk09ZkL_Bo82-186" vertex="1">
          <mxGeometry x="54" width="114" height="22" as="geometry">
            <mxRectangle width="114" height="22" as="alternateBounds" />
          </mxGeometry>
        </mxCell>
        <mxCell id="i-dMMfXqlk09ZkL_Bo82-189" value="" style="shape=partialRectangle;connectable=0;fillColor=none;top=0;left=0;bottom=0;right=0;align=left;spacingLeft=2;overflow=hidden;fontSize=11;" parent="i-dMMfXqlk09ZkL_Bo82-186" vertex="1">
          <mxGeometry x="168" width="22" height="22" as="geometry">
            <mxRectangle width="22" height="22" as="alternateBounds" />
          </mxGeometry>
        </mxCell>
        <mxCell id="i-dMMfXqlk09ZkL_Bo82-191" value="LISTINGS" style="shape=table;startSize=25;container=1;collapsible=0;childLayout=tableLayout;fixedRows=1;rowLines=1;fontStyle=1;align=center;resizeLast=1;" parent="1" vertex="1">
          <mxGeometry x="959" y="370" width="145" height="223" as="geometry" />
        </mxCell>
        <mxCell id="i-dMMfXqlk09ZkL_Bo82-192" style="shape=tableRow;horizontal=0;startSize=0;swimlaneHead=0;swimlaneBody=0;fillColor=none;collapsible=0;dropTarget=0;points=[[0,0.5],[1,0.5]];portConstraint=eastwest;top=0;left=0;right=0;bottom=0;" parent="i-dMMfXqlk09ZkL_Bo82-191" vertex="1">
          <mxGeometry y="25" width="145" height="22" as="geometry" />
        </mxCell>
        <mxCell id="i-dMMfXqlk09ZkL_Bo82-193" value="int" style="shape=partialRectangle;connectable=0;fillColor=none;top=0;left=0;bottom=0;right=0;align=left;spacingLeft=2;overflow=hidden;fontSize=11;" parent="i-dMMfXqlk09ZkL_Bo82-192" vertex="1">
          <mxGeometry width="54" height="22" as="geometry">
            <mxRectangle width="54" height="22" as="alternateBounds" />
          </mxGeometry>
        </mxCell>
        <mxCell id="i-dMMfXqlk09ZkL_Bo82-194" value="listing_id" style="shape=partialRectangle;connectable=0;fillColor=none;top=0;left=0;bottom=0;right=0;align=left;spacingLeft=2;overflow=hidden;fontSize=11;" parent="i-dMMfXqlk09ZkL_Bo82-192" vertex="1">
          <mxGeometry x="54" width="69" height="22" as="geometry">
            <mxRectangle width="69" height="22" as="alternateBounds" />
          </mxGeometry>
        </mxCell>
        <mxCell id="i-dMMfXqlk09ZkL_Bo82-195" value="PK" style="shape=partialRectangle;connectable=0;fillColor=none;top=0;left=0;bottom=0;right=0;align=left;spacingLeft=2;overflow=hidden;fontSize=11;" parent="i-dMMfXqlk09ZkL_Bo82-192" vertex="1">
          <mxGeometry x="123" width="22" height="22" as="geometry">
            <mxRectangle width="22" height="22" as="alternateBounds" />
          </mxGeometry>
        </mxCell>
        <mxCell id="i-dMMfXqlk09ZkL_Bo82-196" style="shape=tableRow;horizontal=0;startSize=0;swimlaneHead=0;swimlaneBody=0;fillColor=none;collapsible=0;dropTarget=0;points=[[0,0.5],[1,0.5]];portConstraint=eastwest;top=0;left=0;right=0;bottom=0;" parent="i-dMMfXqlk09ZkL_Bo82-191" vertex="1">
          <mxGeometry y="47" width="145" height="22" as="geometry" />
        </mxCell>
        <mxCell id="i-dMMfXqlk09ZkL_Bo82-197" value="int" style="shape=partialRectangle;connectable=0;fillColor=none;top=0;left=0;bottom=0;right=0;align=left;spacingLeft=2;overflow=hidden;fontSize=11;" parent="i-dMMfXqlk09ZkL_Bo82-196" vertex="1">
          <mxGeometry width="54" height="22" as="geometry">
            <mxRectangle width="54" height="22" as="alternateBounds" />
          </mxGeometry>
        </mxCell>
        <mxCell id="i-dMMfXqlk09ZkL_Bo82-198" value="user_id" style="shape=partialRectangle;connectable=0;fillColor=none;top=0;left=0;bottom=0;right=0;align=left;spacingLeft=2;overflow=hidden;fontSize=11;" parent="i-dMMfXqlk09ZkL_Bo82-196" vertex="1">
          <mxGeometry x="54" width="69" height="22" as="geometry">
            <mxRectangle width="69" height="22" as="alternateBounds" />
          </mxGeometry>
        </mxCell>
        <mxCell id="i-dMMfXqlk09ZkL_Bo82-199" value="FK" style="shape=partialRectangle;connectable=0;fillColor=none;top=0;left=0;bottom=0;right=0;align=left;spacingLeft=2;overflow=hidden;fontSize=11;" parent="i-dMMfXqlk09ZkL_Bo82-196" vertex="1">
          <mxGeometry x="123" width="22" height="22" as="geometry">
            <mxRectangle width="22" height="22" as="alternateBounds" />
          </mxGeometry>
        </mxCell>
        <mxCell id="i-dMMfXqlk09ZkL_Bo82-200" style="shape=tableRow;horizontal=0;startSize=0;swimlaneHead=0;swimlaneBody=0;fillColor=none;collapsible=0;dropTarget=0;points=[[0,0.5],[1,0.5]];portConstraint=eastwest;top=0;left=0;right=0;bottom=0;" parent="i-dMMfXqlk09ZkL_Bo82-191" vertex="1">
          <mxGeometry y="69" width="145" height="22" as="geometry" />
        </mxCell>
        <mxCell id="i-dMMfXqlk09ZkL_Bo82-201" value="string" style="shape=partialRectangle;connectable=0;fillColor=none;top=0;left=0;bottom=0;right=0;align=left;spacingLeft=2;overflow=hidden;fontSize=11;" parent="i-dMMfXqlk09ZkL_Bo82-200" vertex="1">
          <mxGeometry width="54" height="22" as="geometry">
            <mxRectangle width="54" height="22" as="alternateBounds" />
          </mxGeometry>
        </mxCell>
        <mxCell id="i-dMMfXqlk09ZkL_Bo82-202" value="title" style="shape=partialRectangle;connectable=0;fillColor=none;top=0;left=0;bottom=0;right=0;align=left;spacingLeft=2;overflow=hidden;fontSize=11;" parent="i-dMMfXqlk09ZkL_Bo82-200" vertex="1">
          <mxGeometry x="54" width="69" height="22" as="geometry">
            <mxRectangle width="69" height="22" as="alternateBounds" />
          </mxGeometry>
        </mxCell>
        <mxCell id="i-dMMfXqlk09ZkL_Bo82-203" value="" style="shape=partialRectangle;connectable=0;fillColor=none;top=0;left=0;bottom=0;right=0;align=left;spacingLeft=2;overflow=hidden;fontSize=11;" parent="i-dMMfXqlk09ZkL_Bo82-200" vertex="1">
          <mxGeometry x="123" width="22" height="22" as="geometry">
            <mxRectangle width="22" height="22" as="alternateBounds" />
          </mxGeometry>
        </mxCell>
        <mxCell id="i-dMMfXqlk09ZkL_Bo82-204" style="shape=tableRow;horizontal=0;startSize=0;swimlaneHead=0;swimlaneBody=0;fillColor=none;collapsible=0;dropTarget=0;points=[[0,0.5],[1,0.5]];portConstraint=eastwest;top=0;left=0;right=0;bottom=0;" parent="i-dMMfXqlk09ZkL_Bo82-191" vertex="1">
          <mxGeometry y="91" width="145" height="22" as="geometry" />
        </mxCell>
        <mxCell id="i-dMMfXqlk09ZkL_Bo82-205" value="string" style="shape=partialRectangle;connectable=0;fillColor=none;top=0;left=0;bottom=0;right=0;align=left;spacingLeft=2;overflow=hidden;fontSize=11;" parent="i-dMMfXqlk09ZkL_Bo82-204" vertex="1">
          <mxGeometry width="54" height="22" as="geometry">
            <mxRectangle width="54" height="22" as="alternateBounds" />
          </mxGeometry>
        </mxCell>
        <mxCell id="i-dMMfXqlk09ZkL_Bo82-206" value="description" style="shape=partialRectangle;connectable=0;fillColor=none;top=0;left=0;bottom=0;right=0;align=left;spacingLeft=2;overflow=hidden;fontSize=11;" parent="i-dMMfXqlk09ZkL_Bo82-204" vertex="1">
          <mxGeometry x="54" width="69" height="22" as="geometry">
            <mxRectangle width="69" height="22" as="alternateBounds" />
          </mxGeometry>
        </mxCell>
        <mxCell id="i-dMMfXqlk09ZkL_Bo82-207" value="" style="shape=partialRectangle;connectable=0;fillColor=none;top=0;left=0;bottom=0;right=0;align=left;spacingLeft=2;overflow=hidden;fontSize=11;" parent="i-dMMfXqlk09ZkL_Bo82-204" vertex="1">
          <mxGeometry x="123" width="22" height="22" as="geometry">
            <mxRectangle width="22" height="22" as="alternateBounds" />
          </mxGeometry>
        </mxCell>
        <mxCell id="i-dMMfXqlk09ZkL_Bo82-208" style="shape=tableRow;horizontal=0;startSize=0;swimlaneHead=0;swimlaneBody=0;fillColor=none;collapsible=0;dropTarget=0;points=[[0,0.5],[1,0.5]];portConstraint=eastwest;top=0;left=0;right=0;bottom=0;" parent="i-dMMfXqlk09ZkL_Bo82-191" vertex="1">
          <mxGeometry y="113" width="145" height="22" as="geometry" />
        </mxCell>
        <mxCell id="i-dMMfXqlk09ZkL_Bo82-209" value="decimal" style="shape=partialRectangle;connectable=0;fillColor=none;top=0;left=0;bottom=0;right=0;align=left;spacingLeft=2;overflow=hidden;fontSize=11;" parent="i-dMMfXqlk09ZkL_Bo82-208" vertex="1">
          <mxGeometry width="54" height="22" as="geometry">
            <mxRectangle width="54" height="22" as="alternateBounds" />
          </mxGeometry>
        </mxCell>
        <mxCell id="i-dMMfXqlk09ZkL_Bo82-210" value="price" style="shape=partialRectangle;connectable=0;fillColor=none;top=0;left=0;bottom=0;right=0;align=left;spacingLeft=2;overflow=hidden;fontSize=11;" parent="i-dMMfXqlk09ZkL_Bo82-208" vertex="1">
          <mxGeometry x="54" width="69" height="22" as="geometry">
            <mxRectangle width="69" height="22" as="alternateBounds" />
          </mxGeometry>
        </mxCell>
        <mxCell id="i-dMMfXqlk09ZkL_Bo82-211" value="" style="shape=partialRectangle;connectable=0;fillColor=none;top=0;left=0;bottom=0;right=0;align=left;spacingLeft=2;overflow=hidden;fontSize=11;" parent="i-dMMfXqlk09ZkL_Bo82-208" vertex="1">
          <mxGeometry x="123" width="22" height="22" as="geometry">
            <mxRectangle width="22" height="22" as="alternateBounds" />
          </mxGeometry>
        </mxCell>
        <mxCell id="i-dMMfXqlk09ZkL_Bo82-212" style="shape=tableRow;horizontal=0;startSize=0;swimlaneHead=0;swimlaneBody=0;fillColor=none;collapsible=0;dropTarget=0;points=[[0,0.5],[1,0.5]];portConstraint=eastwest;top=0;left=0;right=0;bottom=0;" parent="i-dMMfXqlk09ZkL_Bo82-191" vertex="1">
          <mxGeometry y="135" width="145" height="22" as="geometry" />
        </mxCell>
        <mxCell id="i-dMMfXqlk09ZkL_Bo82-213" value="int" style="shape=partialRectangle;connectable=0;fillColor=none;top=0;left=0;bottom=0;right=0;align=left;spacingLeft=2;overflow=hidden;fontSize=11;" parent="i-dMMfXqlk09ZkL_Bo82-212" vertex="1">
          <mxGeometry width="54" height="22" as="geometry">
            <mxRectangle width="54" height="22" as="alternateBounds" />
          </mxGeometry>
        </mxCell>
        <mxCell id="i-dMMfXqlk09ZkL_Bo82-214" value="category_id" style="shape=partialRectangle;connectable=0;fillColor=none;top=0;left=0;bottom=0;right=0;align=left;spacingLeft=2;overflow=hidden;fontSize=11;" parent="i-dMMfXqlk09ZkL_Bo82-212" vertex="1">
          <mxGeometry x="54" width="69" height="22" as="geometry">
            <mxRectangle width="69" height="22" as="alternateBounds" />
          </mxGeometry>
        </mxCell>
        <mxCell id="i-dMMfXqlk09ZkL_Bo82-215" value="FK" style="shape=partialRectangle;connectable=0;fillColor=none;top=0;left=0;bottom=0;right=0;align=left;spacingLeft=2;overflow=hidden;fontSize=11;" parent="i-dMMfXqlk09ZkL_Bo82-212" vertex="1">
          <mxGeometry x="123" width="22" height="22" as="geometry">
            <mxRectangle width="22" height="22" as="alternateBounds" />
          </mxGeometry>
        </mxCell>
        <mxCell id="i-dMMfXqlk09ZkL_Bo82-216" style="shape=tableRow;horizontal=0;startSize=0;swimlaneHead=0;swimlaneBody=0;fillColor=none;collapsible=0;dropTarget=0;points=[[0,0.5],[1,0.5]];portConstraint=eastwest;top=0;left=0;right=0;bottom=0;" parent="i-dMMfXqlk09ZkL_Bo82-191" vertex="1">
          <mxGeometry y="157" width="145" height="22" as="geometry" />
        </mxCell>
        <mxCell id="i-dMMfXqlk09ZkL_Bo82-217" value="int" style="shape=partialRectangle;connectable=0;fillColor=none;top=0;left=0;bottom=0;right=0;align=left;spacingLeft=2;overflow=hidden;fontSize=11;" parent="i-dMMfXqlk09ZkL_Bo82-216" vertex="1">
          <mxGeometry width="54" height="22" as="geometry">
            <mxRectangle width="54" height="22" as="alternateBounds" />
          </mxGeometry>
        </mxCell>
        <mxCell id="i-dMMfXqlk09ZkL_Bo82-218" value="location_id" style="shape=partialRectangle;connectable=0;fillColor=none;top=0;left=0;bottom=0;right=0;align=left;spacingLeft=2;overflow=hidden;fontSize=11;" parent="i-dMMfXqlk09ZkL_Bo82-216" vertex="1">
          <mxGeometry x="54" width="69" height="22" as="geometry">
            <mxRectangle width="69" height="22" as="alternateBounds" />
          </mxGeometry>
        </mxCell>
        <mxCell id="i-dMMfXqlk09ZkL_Bo82-219" value="FK" style="shape=partialRectangle;connectable=0;fillColor=none;top=0;left=0;bottom=0;right=0;align=left;spacingLeft=2;overflow=hidden;fontSize=11;" parent="i-dMMfXqlk09ZkL_Bo82-216" vertex="1">
          <mxGeometry x="123" width="22" height="22" as="geometry">
            <mxRectangle width="22" height="22" as="alternateBounds" />
          </mxGeometry>
        </mxCell>
        <mxCell id="i-dMMfXqlk09ZkL_Bo82-220" style="shape=tableRow;horizontal=0;startSize=0;swimlaneHead=0;swimlaneBody=0;fillColor=none;collapsible=0;dropTarget=0;points=[[0,0.5],[1,0.5]];portConstraint=eastwest;top=0;left=0;right=0;bottom=0;" parent="i-dMMfXqlk09ZkL_Bo82-191" vertex="1">
          <mxGeometry y="179" width="145" height="22" as="geometry" />
        </mxCell>
        <mxCell id="i-dMMfXqlk09ZkL_Bo82-221" value="int" style="shape=partialRectangle;connectable=0;fillColor=none;top=0;left=0;bottom=0;right=0;align=left;spacingLeft=2;overflow=hidden;fontSize=11;" parent="i-dMMfXqlk09ZkL_Bo82-220" vertex="1">
          <mxGeometry width="54" height="22" as="geometry">
            <mxRectangle width="54" height="22" as="alternateBounds" />
          </mxGeometry>
        </mxCell>
        <mxCell id="i-dMMfXqlk09ZkL_Bo82-222" value="status_id" style="shape=partialRectangle;connectable=0;fillColor=none;top=0;left=0;bottom=0;right=0;align=left;spacingLeft=2;overflow=hidden;fontSize=11;" parent="i-dMMfXqlk09ZkL_Bo82-220" vertex="1">
          <mxGeometry x="54" width="69" height="22" as="geometry">
            <mxRectangle width="69" height="22" as="alternateBounds" />
          </mxGeometry>
        </mxCell>
        <mxCell id="i-dMMfXqlk09ZkL_Bo82-223" value="FK" style="shape=partialRectangle;connectable=0;fillColor=none;top=0;left=0;bottom=0;right=0;align=left;spacingLeft=2;overflow=hidden;fontSize=11;" parent="i-dMMfXqlk09ZkL_Bo82-220" vertex="1">
          <mxGeometry x="123" width="22" height="22" as="geometry">
            <mxRectangle width="22" height="22" as="alternateBounds" />
          </mxGeometry>
        </mxCell>
        <mxCell id="i-dMMfXqlk09ZkL_Bo82-224" style="shape=tableRow;horizontal=0;startSize=0;swimlaneHead=0;swimlaneBody=0;fillColor=none;collapsible=0;dropTarget=0;points=[[0,0.5],[1,0.5]];portConstraint=eastwest;top=0;left=0;right=0;bottom=0;" parent="i-dMMfXqlk09ZkL_Bo82-191" vertex="1">
          <mxGeometry y="201" width="145" height="22" as="geometry" />
        </mxCell>
        <mxCell id="i-dMMfXqlk09ZkL_Bo82-225" value="timestamp" style="shape=partialRectangle;connectable=0;fillColor=none;top=0;left=0;bottom=0;right=0;align=left;spacingLeft=2;overflow=hidden;fontSize=11;" parent="i-dMMfXqlk09ZkL_Bo82-224" vertex="1">
          <mxGeometry width="54" height="22" as="geometry">
            <mxRectangle width="54" height="22" as="alternateBounds" />
          </mxGeometry>
        </mxCell>
        <mxCell id="i-dMMfXqlk09ZkL_Bo82-226" value="created_at" style="shape=partialRectangle;connectable=0;fillColor=none;top=0;left=0;bottom=0;right=0;align=left;spacingLeft=2;overflow=hidden;fontSize=11;" parent="i-dMMfXqlk09ZkL_Bo82-224" vertex="1">
          <mxGeometry x="54" width="69" height="22" as="geometry">
            <mxRectangle width="69" height="22" as="alternateBounds" />
          </mxGeometry>
        </mxCell>
        <mxCell id="i-dMMfXqlk09ZkL_Bo82-227" value="" style="shape=partialRectangle;connectable=0;fillColor=none;top=0;left=0;bottom=0;right=0;align=left;spacingLeft=2;overflow=hidden;fontSize=11;" parent="i-dMMfXqlk09ZkL_Bo82-224" vertex="1">
          <mxGeometry x="123" width="22" height="22" as="geometry">
            <mxRectangle width="22" height="22" as="alternateBounds" />
          </mxGeometry>
        </mxCell>
        <mxCell id="i-dMMfXqlk09ZkL_Bo82-232" value="LISTING_ATTRIBUTES" style="shape=table;startSize=25;container=1;collapsible=0;childLayout=tableLayout;fixedRows=1;rowLines=1;fontStyle=1;align=center;resizeLast=1;" parent="1" vertex="1">
          <mxGeometry x="20" y="725" width="152" height="91" as="geometry" />
        </mxCell>
        <mxCell id="i-dMMfXqlk09ZkL_Bo82-233" style="shape=tableRow;horizontal=0;startSize=0;swimlaneHead=0;swimlaneBody=0;fillColor=none;collapsible=0;dropTarget=0;points=[[0,0.5],[1,0.5]];portConstraint=eastwest;top=0;left=0;right=0;bottom=0;" parent="i-dMMfXqlk09ZkL_Bo82-232" vertex="1">
          <mxGeometry y="25" width="152" height="22" as="geometry" />
        </mxCell>
        <mxCell id="i-dMMfXqlk09ZkL_Bo82-234" value="int" style="shape=partialRectangle;connectable=0;fillColor=none;top=0;left=0;bottom=0;right=0;align=left;spacingLeft=2;overflow=hidden;fontSize=11;" parent="i-dMMfXqlk09ZkL_Bo82-233" vertex="1">
          <mxGeometry width="36" height="22" as="geometry">
            <mxRectangle width="36" height="22" as="alternateBounds" />
          </mxGeometry>
        </mxCell>
        <mxCell id="i-dMMfXqlk09ZkL_Bo82-235" value="listing_id" style="shape=partialRectangle;connectable=0;fillColor=none;top=0;left=0;bottom=0;right=0;align=left;spacingLeft=2;overflow=hidden;fontSize=11;" parent="i-dMMfXqlk09ZkL_Bo82-233" vertex="1">
          <mxGeometry x="36" width="72" height="22" as="geometry">
            <mxRectangle width="72" height="22" as="alternateBounds" />
          </mxGeometry>
        </mxCell>
        <mxCell id="i-dMMfXqlk09ZkL_Bo82-236" value="PK, FK" style="shape=partialRectangle;connectable=0;fillColor=none;top=0;left=0;bottom=0;right=0;align=left;spacingLeft=2;overflow=hidden;fontSize=11;" parent="i-dMMfXqlk09ZkL_Bo82-233" vertex="1">
          <mxGeometry x="108" width="44" height="22" as="geometry">
            <mxRectangle width="44" height="22" as="alternateBounds" />
          </mxGeometry>
        </mxCell>
        <mxCell id="i-dMMfXqlk09ZkL_Bo82-237" style="shape=tableRow;horizontal=0;startSize=0;swimlaneHead=0;swimlaneBody=0;fillColor=none;collapsible=0;dropTarget=0;points=[[0,0.5],[1,0.5]];portConstraint=eastwest;top=0;left=0;right=0;bottom=0;" parent="i-dMMfXqlk09ZkL_Bo82-232" vertex="1">
          <mxGeometry y="47" width="152" height="22" as="geometry" />
        </mxCell>
        <mxCell id="i-dMMfXqlk09ZkL_Bo82-238" value="int" style="shape=partialRectangle;connectable=0;fillColor=none;top=0;left=0;bottom=0;right=0;align=left;spacingLeft=2;overflow=hidden;fontSize=11;" parent="i-dMMfXqlk09ZkL_Bo82-237" vertex="1">
          <mxGeometry width="36" height="22" as="geometry">
            <mxRectangle width="36" height="22" as="alternateBounds" />
          </mxGeometry>
        </mxCell>
        <mxCell id="i-dMMfXqlk09ZkL_Bo82-239" value="attribute_id" style="shape=partialRectangle;connectable=0;fillColor=none;top=0;left=0;bottom=0;right=0;align=left;spacingLeft=2;overflow=hidden;fontSize=11;" parent="i-dMMfXqlk09ZkL_Bo82-237" vertex="1">
          <mxGeometry x="36" width="72" height="22" as="geometry">
            <mxRectangle width="72" height="22" as="alternateBounds" />
          </mxGeometry>
        </mxCell>
        <mxCell id="i-dMMfXqlk09ZkL_Bo82-240" value="PK, FK" style="shape=partialRectangle;connectable=0;fillColor=none;top=0;left=0;bottom=0;right=0;align=left;spacingLeft=2;overflow=hidden;fontSize=11;" parent="i-dMMfXqlk09ZkL_Bo82-237" vertex="1">
          <mxGeometry x="108" width="44" height="22" as="geometry">
            <mxRectangle width="44" height="22" as="alternateBounds" />
          </mxGeometry>
        </mxCell>
        <mxCell id="i-dMMfXqlk09ZkL_Bo82-241" style="shape=tableRow;horizontal=0;startSize=0;swimlaneHead=0;swimlaneBody=0;fillColor=none;collapsible=0;dropTarget=0;points=[[0,0.5],[1,0.5]];portConstraint=eastwest;top=0;left=0;right=0;bottom=0;" parent="i-dMMfXqlk09ZkL_Bo82-232" vertex="1">
          <mxGeometry y="69" width="152" height="22" as="geometry" />
        </mxCell>
        <mxCell id="i-dMMfXqlk09ZkL_Bo82-242" value="string" style="shape=partialRectangle;connectable=0;fillColor=none;top=0;left=0;bottom=0;right=0;align=left;spacingLeft=2;overflow=hidden;fontSize=11;" parent="i-dMMfXqlk09ZkL_Bo82-241" vertex="1">
          <mxGeometry width="36" height="22" as="geometry">
            <mxRectangle width="36" height="22" as="alternateBounds" />
          </mxGeometry>
        </mxCell>
        <mxCell id="i-dMMfXqlk09ZkL_Bo82-243" value="value" style="shape=partialRectangle;connectable=0;fillColor=none;top=0;left=0;bottom=0;right=0;align=left;spacingLeft=2;overflow=hidden;fontSize=11;" parent="i-dMMfXqlk09ZkL_Bo82-241" vertex="1">
          <mxGeometry x="36" width="72" height="22" as="geometry">
            <mxRectangle width="72" height="22" as="alternateBounds" />
          </mxGeometry>
        </mxCell>
        <mxCell id="i-dMMfXqlk09ZkL_Bo82-244" value="" style="shape=partialRectangle;connectable=0;fillColor=none;top=0;left=0;bottom=0;right=0;align=left;spacingLeft=2;overflow=hidden;fontSize=11;" parent="i-dMMfXqlk09ZkL_Bo82-241" vertex="1">
          <mxGeometry x="108" width="44" height="22" as="geometry">
            <mxRectangle width="44" height="22" as="alternateBounds" />
          </mxGeometry>
        </mxCell>
        <mxCell id="i-dMMfXqlk09ZkL_Bo82-245" value="IMAGES" style="shape=table;startSize=25;container=1;collapsible=0;childLayout=tableLayout;fixedRows=1;rowLines=1;fontStyle=1;align=center;resizeLast=1;" parent="1" vertex="1">
          <mxGeometry x="261" y="725" width="118" height="91" as="geometry" />
        </mxCell>
        <mxCell id="i-dMMfXqlk09ZkL_Bo82-246" style="shape=tableRow;horizontal=0;startSize=0;swimlaneHead=0;swimlaneBody=0;fillColor=none;collapsible=0;dropTarget=0;points=[[0,0.5],[1,0.5]];portConstraint=eastwest;top=0;left=0;right=0;bottom=0;" parent="i-dMMfXqlk09ZkL_Bo82-245" vertex="1">
          <mxGeometry y="25" width="118" height="22" as="geometry" />
        </mxCell>
        <mxCell id="i-dMMfXqlk09ZkL_Bo82-247" value="int" style="shape=partialRectangle;connectable=0;fillColor=none;top=0;left=0;bottom=0;right=0;align=left;spacingLeft=2;overflow=hidden;fontSize=11;" parent="i-dMMfXqlk09ZkL_Bo82-246" vertex="1">
          <mxGeometry width="36" height="22" as="geometry">
            <mxRectangle width="36" height="22" as="alternateBounds" />
          </mxGeometry>
        </mxCell>
        <mxCell id="i-dMMfXqlk09ZkL_Bo82-248" value="image_id" style="shape=partialRectangle;connectable=0;fillColor=none;top=0;left=0;bottom=0;right=0;align=left;spacingLeft=2;overflow=hidden;fontSize=11;" parent="i-dMMfXqlk09ZkL_Bo82-246" vertex="1">
          <mxGeometry x="36" width="60" height="22" as="geometry">
            <mxRectangle width="60" height="22" as="alternateBounds" />
          </mxGeometry>
        </mxCell>
        <mxCell id="i-dMMfXqlk09ZkL_Bo82-249" value="PK" style="shape=partialRectangle;connectable=0;fillColor=none;top=0;left=0;bottom=0;right=0;align=left;spacingLeft=2;overflow=hidden;fontSize=11;" parent="i-dMMfXqlk09ZkL_Bo82-246" vertex="1">
          <mxGeometry x="96" width="22" height="22" as="geometry">
            <mxRectangle width="22" height="22" as="alternateBounds" />
          </mxGeometry>
        </mxCell>
        <mxCell id="i-dMMfXqlk09ZkL_Bo82-250" style="shape=tableRow;horizontal=0;startSize=0;swimlaneHead=0;swimlaneBody=0;fillColor=none;collapsible=0;dropTarget=0;points=[[0,0.5],[1,0.5]];portConstraint=eastwest;top=0;left=0;right=0;bottom=0;" parent="i-dMMfXqlk09ZkL_Bo82-245" vertex="1">
          <mxGeometry y="47" width="118" height="22" as="geometry" />
        </mxCell>
        <mxCell id="i-dMMfXqlk09ZkL_Bo82-251" value="int" style="shape=partialRectangle;connectable=0;fillColor=none;top=0;left=0;bottom=0;right=0;align=left;spacingLeft=2;overflow=hidden;fontSize=11;" parent="i-dMMfXqlk09ZkL_Bo82-250" vertex="1">
          <mxGeometry width="36" height="22" as="geometry">
            <mxRectangle width="36" height="22" as="alternateBounds" />
          </mxGeometry>
        </mxCell>
        <mxCell id="i-dMMfXqlk09ZkL_Bo82-252" value="listing_id" style="shape=partialRectangle;connectable=0;fillColor=none;top=0;left=0;bottom=0;right=0;align=left;spacingLeft=2;overflow=hidden;fontSize=11;" parent="i-dMMfXqlk09ZkL_Bo82-250" vertex="1">
          <mxGeometry x="36" width="60" height="22" as="geometry">
            <mxRectangle width="60" height="22" as="alternateBounds" />
          </mxGeometry>
        </mxCell>
        <mxCell id="i-dMMfXqlk09ZkL_Bo82-253" value="FK" style="shape=partialRectangle;connectable=0;fillColor=none;top=0;left=0;bottom=0;right=0;align=left;spacingLeft=2;overflow=hidden;fontSize=11;" parent="i-dMMfXqlk09ZkL_Bo82-250" vertex="1">
          <mxGeometry x="96" width="22" height="22" as="geometry">
            <mxRectangle width="22" height="22" as="alternateBounds" />
          </mxGeometry>
        </mxCell>
        <mxCell id="i-dMMfXqlk09ZkL_Bo82-254" style="shape=tableRow;horizontal=0;startSize=0;swimlaneHead=0;swimlaneBody=0;fillColor=none;collapsible=0;dropTarget=0;points=[[0,0.5],[1,0.5]];portConstraint=eastwest;top=0;left=0;right=0;bottom=0;" parent="i-dMMfXqlk09ZkL_Bo82-245" vertex="1">
          <mxGeometry y="69" width="118" height="22" as="geometry" />
        </mxCell>
        <mxCell id="i-dMMfXqlk09ZkL_Bo82-255" value="string" style="shape=partialRectangle;connectable=0;fillColor=none;top=0;left=0;bottom=0;right=0;align=left;spacingLeft=2;overflow=hidden;fontSize=11;" parent="i-dMMfXqlk09ZkL_Bo82-254" vertex="1">
          <mxGeometry width="36" height="22" as="geometry">
            <mxRectangle width="36" height="22" as="alternateBounds" />
          </mxGeometry>
        </mxCell>
        <mxCell id="i-dMMfXqlk09ZkL_Bo82-256" value="image_url" style="shape=partialRectangle;connectable=0;fillColor=none;top=0;left=0;bottom=0;right=0;align=left;spacingLeft=2;overflow=hidden;fontSize=11;" parent="i-dMMfXqlk09ZkL_Bo82-254" vertex="1">
          <mxGeometry x="36" width="60" height="22" as="geometry">
            <mxRectangle width="60" height="22" as="alternateBounds" />
          </mxGeometry>
        </mxCell>
        <mxCell id="i-dMMfXqlk09ZkL_Bo82-257" value="" style="shape=partialRectangle;connectable=0;fillColor=none;top=0;left=0;bottom=0;right=0;align=left;spacingLeft=2;overflow=hidden;fontSize=11;" parent="i-dMMfXqlk09ZkL_Bo82-254" vertex="1">
          <mxGeometry x="96" width="22" height="22" as="geometry">
            <mxRectangle width="22" height="22" as="alternateBounds" />
          </mxGeometry>
        </mxCell>
        <mxCell id="i-dMMfXqlk09ZkL_Bo82-258" value="VIDEOS" style="shape=table;startSize=25;container=1;collapsible=0;childLayout=tableLayout;fixedRows=1;rowLines=1;fontStyle=1;align=center;resizeLast=1;" parent="1" vertex="1">
          <mxGeometry x="475" y="725" width="118" height="91" as="geometry" />
        </mxCell>
        <mxCell id="i-dMMfXqlk09ZkL_Bo82-259" style="shape=tableRow;horizontal=0;startSize=0;swimlaneHead=0;swimlaneBody=0;fillColor=none;collapsible=0;dropTarget=0;points=[[0,0.5],[1,0.5]];portConstraint=eastwest;top=0;left=0;right=0;bottom=0;" parent="i-dMMfXqlk09ZkL_Bo82-258" vertex="1">
          <mxGeometry y="25" width="118" height="22" as="geometry" />
        </mxCell>
        <mxCell id="i-dMMfXqlk09ZkL_Bo82-260" value="int" style="shape=partialRectangle;connectable=0;fillColor=none;top=0;left=0;bottom=0;right=0;align=left;spacingLeft=2;overflow=hidden;fontSize=11;" parent="i-dMMfXqlk09ZkL_Bo82-259" vertex="1">
          <mxGeometry width="36" height="22" as="geometry">
            <mxRectangle width="36" height="22" as="alternateBounds" />
          </mxGeometry>
        </mxCell>
        <mxCell id="i-dMMfXqlk09ZkL_Bo82-261" value="video_id" style="shape=partialRectangle;connectable=0;fillColor=none;top=0;left=0;bottom=0;right=0;align=left;spacingLeft=2;overflow=hidden;fontSize=11;" parent="i-dMMfXqlk09ZkL_Bo82-259" vertex="1">
          <mxGeometry x="36" width="60" height="22" as="geometry">
            <mxRectangle width="60" height="22" as="alternateBounds" />
          </mxGeometry>
        </mxCell>
        <mxCell id="i-dMMfXqlk09ZkL_Bo82-262" value="PK" style="shape=partialRectangle;connectable=0;fillColor=none;top=0;left=0;bottom=0;right=0;align=left;spacingLeft=2;overflow=hidden;fontSize=11;" parent="i-dMMfXqlk09ZkL_Bo82-259" vertex="1">
          <mxGeometry x="96" width="22" height="22" as="geometry">
            <mxRectangle width="22" height="22" as="alternateBounds" />
          </mxGeometry>
        </mxCell>
        <mxCell id="i-dMMfXqlk09ZkL_Bo82-263" style="shape=tableRow;horizontal=0;startSize=0;swimlaneHead=0;swimlaneBody=0;fillColor=none;collapsible=0;dropTarget=0;points=[[0,0.5],[1,0.5]];portConstraint=eastwest;top=0;left=0;right=0;bottom=0;" parent="i-dMMfXqlk09ZkL_Bo82-258" vertex="1">
          <mxGeometry y="47" width="118" height="22" as="geometry" />
        </mxCell>
        <mxCell id="i-dMMfXqlk09ZkL_Bo82-264" value="int" style="shape=partialRectangle;connectable=0;fillColor=none;top=0;left=0;bottom=0;right=0;align=left;spacingLeft=2;overflow=hidden;fontSize=11;" parent="i-dMMfXqlk09ZkL_Bo82-263" vertex="1">
          <mxGeometry width="36" height="22" as="geometry">
            <mxRectangle width="36" height="22" as="alternateBounds" />
          </mxGeometry>
        </mxCell>
        <mxCell id="i-dMMfXqlk09ZkL_Bo82-265" value="listing_id" style="shape=partialRectangle;connectable=0;fillColor=none;top=0;left=0;bottom=0;right=0;align=left;spacingLeft=2;overflow=hidden;fontSize=11;" parent="i-dMMfXqlk09ZkL_Bo82-263" vertex="1">
          <mxGeometry x="36" width="60" height="22" as="geometry">
            <mxRectangle width="60" height="22" as="alternateBounds" />
          </mxGeometry>
        </mxCell>
        <mxCell id="i-dMMfXqlk09ZkL_Bo82-266" value="FK" style="shape=partialRectangle;connectable=0;fillColor=none;top=0;left=0;bottom=0;right=0;align=left;spacingLeft=2;overflow=hidden;fontSize=11;" parent="i-dMMfXqlk09ZkL_Bo82-263" vertex="1">
          <mxGeometry x="96" width="22" height="22" as="geometry">
            <mxRectangle width="22" height="22" as="alternateBounds" />
          </mxGeometry>
        </mxCell>
        <mxCell id="i-dMMfXqlk09ZkL_Bo82-267" style="shape=tableRow;horizontal=0;startSize=0;swimlaneHead=0;swimlaneBody=0;fillColor=none;collapsible=0;dropTarget=0;points=[[0,0.5],[1,0.5]];portConstraint=eastwest;top=0;left=0;right=0;bottom=0;" parent="i-dMMfXqlk09ZkL_Bo82-258" vertex="1">
          <mxGeometry y="69" width="118" height="22" as="geometry" />
        </mxCell>
        <mxCell id="i-dMMfXqlk09ZkL_Bo82-268" value="string" style="shape=partialRectangle;connectable=0;fillColor=none;top=0;left=0;bottom=0;right=0;align=left;spacingLeft=2;overflow=hidden;fontSize=11;" parent="i-dMMfXqlk09ZkL_Bo82-267" vertex="1">
          <mxGeometry width="36" height="22" as="geometry">
            <mxRectangle width="36" height="22" as="alternateBounds" />
          </mxGeometry>
        </mxCell>
        <mxCell id="i-dMMfXqlk09ZkL_Bo82-269" value="video_url" style="shape=partialRectangle;connectable=0;fillColor=none;top=0;left=0;bottom=0;right=0;align=left;spacingLeft=2;overflow=hidden;fontSize=11;" parent="i-dMMfXqlk09ZkL_Bo82-267" vertex="1">
          <mxGeometry x="36" width="60" height="22" as="geometry">
            <mxRectangle width="60" height="22" as="alternateBounds" />
          </mxGeometry>
        </mxCell>
        <mxCell id="i-dMMfXqlk09ZkL_Bo82-270" value="" style="shape=partialRectangle;connectable=0;fillColor=none;top=0;left=0;bottom=0;right=0;align=left;spacingLeft=2;overflow=hidden;fontSize=11;" parent="i-dMMfXqlk09ZkL_Bo82-267" vertex="1">
          <mxGeometry x="96" width="22" height="22" as="geometry">
            <mxRectangle width="22" height="22" as="alternateBounds" />
          </mxGeometry>
        </mxCell>
        <mxCell id="i-dMMfXqlk09ZkL_Bo82-271" value="FILES" style="shape=table;startSize=25;container=1;collapsible=0;childLayout=tableLayout;fixedRows=1;rowLines=1;fontStyle=1;align=center;resizeLast=1;" parent="1" vertex="1">
          <mxGeometry x="687" y="725" width="118" height="91" as="geometry" />
        </mxCell>
        <mxCell id="i-dMMfXqlk09ZkL_Bo82-272" style="shape=tableRow;horizontal=0;startSize=0;swimlaneHead=0;swimlaneBody=0;fillColor=none;collapsible=0;dropTarget=0;points=[[0,0.5],[1,0.5]];portConstraint=eastwest;top=0;left=0;right=0;bottom=0;" parent="i-dMMfXqlk09ZkL_Bo82-271" vertex="1">
          <mxGeometry y="25" width="118" height="22" as="geometry" />
        </mxCell>
        <mxCell id="i-dMMfXqlk09ZkL_Bo82-273" value="int" style="shape=partialRectangle;connectable=0;fillColor=none;top=0;left=0;bottom=0;right=0;align=left;spacingLeft=2;overflow=hidden;fontSize=11;" parent="i-dMMfXqlk09ZkL_Bo82-272" vertex="1">
          <mxGeometry width="36" height="22" as="geometry">
            <mxRectangle width="36" height="22" as="alternateBounds" />
          </mxGeometry>
        </mxCell>
        <mxCell id="i-dMMfXqlk09ZkL_Bo82-274" value="file_id" style="shape=partialRectangle;connectable=0;fillColor=none;top=0;left=0;bottom=0;right=0;align=left;spacingLeft=2;overflow=hidden;fontSize=11;" parent="i-dMMfXqlk09ZkL_Bo82-272" vertex="1">
          <mxGeometry x="36" width="60" height="22" as="geometry">
            <mxRectangle width="60" height="22" as="alternateBounds" />
          </mxGeometry>
        </mxCell>
        <mxCell id="i-dMMfXqlk09ZkL_Bo82-275" value="PK" style="shape=partialRectangle;connectable=0;fillColor=none;top=0;left=0;bottom=0;right=0;align=left;spacingLeft=2;overflow=hidden;fontSize=11;" parent="i-dMMfXqlk09ZkL_Bo82-272" vertex="1">
          <mxGeometry x="96" width="22" height="22" as="geometry">
            <mxRectangle width="22" height="22" as="alternateBounds" />
          </mxGeometry>
        </mxCell>
        <mxCell id="i-dMMfXqlk09ZkL_Bo82-276" style="shape=tableRow;horizontal=0;startSize=0;swimlaneHead=0;swimlaneBody=0;fillColor=none;collapsible=0;dropTarget=0;points=[[0,0.5],[1,0.5]];portConstraint=eastwest;top=0;left=0;right=0;bottom=0;" parent="i-dMMfXqlk09ZkL_Bo82-271" vertex="1">
          <mxGeometry y="47" width="118" height="22" as="geometry" />
        </mxCell>
        <mxCell id="i-dMMfXqlk09ZkL_Bo82-277" value="int" style="shape=partialRectangle;connectable=0;fillColor=none;top=0;left=0;bottom=0;right=0;align=left;spacingLeft=2;overflow=hidden;fontSize=11;" parent="i-dMMfXqlk09ZkL_Bo82-276" vertex="1">
          <mxGeometry width="36" height="22" as="geometry">
            <mxRectangle width="36" height="22" as="alternateBounds" />
          </mxGeometry>
        </mxCell>
        <mxCell id="i-dMMfXqlk09ZkL_Bo82-278" value="listing_id" style="shape=partialRectangle;connectable=0;fillColor=none;top=0;left=0;bottom=0;right=0;align=left;spacingLeft=2;overflow=hidden;fontSize=11;" parent="i-dMMfXqlk09ZkL_Bo82-276" vertex="1">
          <mxGeometry x="36" width="60" height="22" as="geometry">
            <mxRectangle width="60" height="22" as="alternateBounds" />
          </mxGeometry>
        </mxCell>
        <mxCell id="i-dMMfXqlk09ZkL_Bo82-279" value="FK" style="shape=partialRectangle;connectable=0;fillColor=none;top=0;left=0;bottom=0;right=0;align=left;spacingLeft=2;overflow=hidden;fontSize=11;" parent="i-dMMfXqlk09ZkL_Bo82-276" vertex="1">
          <mxGeometry x="96" width="22" height="22" as="geometry">
            <mxRectangle width="22" height="22" as="alternateBounds" />
          </mxGeometry>
        </mxCell>
        <mxCell id="i-dMMfXqlk09ZkL_Bo82-280" style="shape=tableRow;horizontal=0;startSize=0;swimlaneHead=0;swimlaneBody=0;fillColor=none;collapsible=0;dropTarget=0;points=[[0,0.5],[1,0.5]];portConstraint=eastwest;top=0;left=0;right=0;bottom=0;" parent="i-dMMfXqlk09ZkL_Bo82-271" vertex="1">
          <mxGeometry y="69" width="118" height="22" as="geometry" />
        </mxCell>
        <mxCell id="i-dMMfXqlk09ZkL_Bo82-281" value="string" style="shape=partialRectangle;connectable=0;fillColor=none;top=0;left=0;bottom=0;right=0;align=left;spacingLeft=2;overflow=hidden;fontSize=11;" parent="i-dMMfXqlk09ZkL_Bo82-280" vertex="1">
          <mxGeometry width="36" height="22" as="geometry">
            <mxRectangle width="36" height="22" as="alternateBounds" />
          </mxGeometry>
        </mxCell>
        <mxCell id="i-dMMfXqlk09ZkL_Bo82-282" value="file_url" style="shape=partialRectangle;connectable=0;fillColor=none;top=0;left=0;bottom=0;right=0;align=left;spacingLeft=2;overflow=hidden;fontSize=11;" parent="i-dMMfXqlk09ZkL_Bo82-280" vertex="1">
          <mxGeometry x="36" width="60" height="22" as="geometry">
            <mxRectangle width="60" height="22" as="alternateBounds" />
          </mxGeometry>
        </mxCell>
        <mxCell id="i-dMMfXqlk09ZkL_Bo82-283" value="" style="shape=partialRectangle;connectable=0;fillColor=none;top=0;left=0;bottom=0;right=0;align=left;spacingLeft=2;overflow=hidden;fontSize=11;" parent="i-dMMfXqlk09ZkL_Bo82-280" vertex="1">
          <mxGeometry x="96" width="22" height="22" as="geometry">
            <mxRectangle width="22" height="22" as="alternateBounds" />
          </mxGeometry>
        </mxCell>
        <mxCell id="i-dMMfXqlk09ZkL_Bo82-284" value="PROMOTIONS" style="shape=table;startSize=25;container=1;collapsible=0;childLayout=tableLayout;fixedRows=1;rowLines=1;fontStyle=1;align=center;resizeLast=1;" parent="1" vertex="1">
          <mxGeometry x="1615" y="703" width="124" height="135" as="geometry" />
        </mxCell>
        <mxCell id="i-dMMfXqlk09ZkL_Bo82-285" style="shape=tableRow;horizontal=0;startSize=0;swimlaneHead=0;swimlaneBody=0;fillColor=none;collapsible=0;dropTarget=0;points=[[0,0.5],[1,0.5]];portConstraint=eastwest;top=0;left=0;right=0;bottom=0;" parent="i-dMMfXqlk09ZkL_Bo82-284" vertex="1">
          <mxGeometry y="25" width="124" height="22" as="geometry" />
        </mxCell>
        <mxCell id="i-dMMfXqlk09ZkL_Bo82-286" value="int" style="shape=partialRectangle;connectable=0;fillColor=none;top=0;left=0;bottom=0;right=0;align=left;spacingLeft=2;overflow=hidden;fontSize=11;" parent="i-dMMfXqlk09ZkL_Bo82-285" vertex="1">
          <mxGeometry width="42" height="22" as="geometry">
            <mxRectangle width="42" height="22" as="alternateBounds" />
          </mxGeometry>
        </mxCell>
        <mxCell id="i-dMMfXqlk09ZkL_Bo82-287" value="promo_id" style="shape=partialRectangle;connectable=0;fillColor=none;top=0;left=0;bottom=0;right=0;align=left;spacingLeft=2;overflow=hidden;fontSize=11;" parent="i-dMMfXqlk09ZkL_Bo82-285" vertex="1">
          <mxGeometry x="42" width="60" height="22" as="geometry">
            <mxRectangle width="60" height="22" as="alternateBounds" />
          </mxGeometry>
        </mxCell>
        <mxCell id="i-dMMfXqlk09ZkL_Bo82-288" value="PK" style="shape=partialRectangle;connectable=0;fillColor=none;top=0;left=0;bottom=0;right=0;align=left;spacingLeft=2;overflow=hidden;fontSize=11;" parent="i-dMMfXqlk09ZkL_Bo82-285" vertex="1">
          <mxGeometry x="102" width="22" height="22" as="geometry">
            <mxRectangle width="22" height="22" as="alternateBounds" />
          </mxGeometry>
        </mxCell>
        <mxCell id="i-dMMfXqlk09ZkL_Bo82-289" style="shape=tableRow;horizontal=0;startSize=0;swimlaneHead=0;swimlaneBody=0;fillColor=none;collapsible=0;dropTarget=0;points=[[0,0.5],[1,0.5]];portConstraint=eastwest;top=0;left=0;right=0;bottom=0;" parent="i-dMMfXqlk09ZkL_Bo82-284" vertex="1">
          <mxGeometry y="47" width="124" height="22" as="geometry" />
        </mxCell>
        <mxCell id="i-dMMfXqlk09ZkL_Bo82-290" value="int" style="shape=partialRectangle;connectable=0;fillColor=none;top=0;left=0;bottom=0;right=0;align=left;spacingLeft=2;overflow=hidden;fontSize=11;" parent="i-dMMfXqlk09ZkL_Bo82-289" vertex="1">
          <mxGeometry width="42" height="22" as="geometry">
            <mxRectangle width="42" height="22" as="alternateBounds" />
          </mxGeometry>
        </mxCell>
        <mxCell id="i-dMMfXqlk09ZkL_Bo82-291" value="listing_id" style="shape=partialRectangle;connectable=0;fillColor=none;top=0;left=0;bottom=0;right=0;align=left;spacingLeft=2;overflow=hidden;fontSize=11;" parent="i-dMMfXqlk09ZkL_Bo82-289" vertex="1">
          <mxGeometry x="42" width="60" height="22" as="geometry">
            <mxRectangle width="60" height="22" as="alternateBounds" />
          </mxGeometry>
        </mxCell>
        <mxCell id="i-dMMfXqlk09ZkL_Bo82-292" value="FK" style="shape=partialRectangle;connectable=0;fillColor=none;top=0;left=0;bottom=0;right=0;align=left;spacingLeft=2;overflow=hidden;fontSize=11;" parent="i-dMMfXqlk09ZkL_Bo82-289" vertex="1">
          <mxGeometry x="102" width="22" height="22" as="geometry">
            <mxRectangle width="22" height="22" as="alternateBounds" />
          </mxGeometry>
        </mxCell>
        <mxCell id="i-dMMfXqlk09ZkL_Bo82-293" style="shape=tableRow;horizontal=0;startSize=0;swimlaneHead=0;swimlaneBody=0;fillColor=none;collapsible=0;dropTarget=0;points=[[0,0.5],[1,0.5]];portConstraint=eastwest;top=0;left=0;right=0;bottom=0;" parent="i-dMMfXqlk09ZkL_Bo82-284" vertex="1">
          <mxGeometry y="69" width="124" height="22" as="geometry" />
        </mxCell>
        <mxCell id="i-dMMfXqlk09ZkL_Bo82-294" value="string" style="shape=partialRectangle;connectable=0;fillColor=none;top=0;left=0;bottom=0;right=0;align=left;spacingLeft=2;overflow=hidden;fontSize=11;" parent="i-dMMfXqlk09ZkL_Bo82-293" vertex="1">
          <mxGeometry width="42" height="22" as="geometry">
            <mxRectangle width="42" height="22" as="alternateBounds" />
          </mxGeometry>
        </mxCell>
        <mxCell id="i-dMMfXqlk09ZkL_Bo82-295" value="type" style="shape=partialRectangle;connectable=0;fillColor=none;top=0;left=0;bottom=0;right=0;align=left;spacingLeft=2;overflow=hidden;fontSize=11;" parent="i-dMMfXqlk09ZkL_Bo82-293" vertex="1">
          <mxGeometry x="42" width="60" height="22" as="geometry">
            <mxRectangle width="60" height="22" as="alternateBounds" />
          </mxGeometry>
        </mxCell>
        <mxCell id="i-dMMfXqlk09ZkL_Bo82-296" value="" style="shape=partialRectangle;connectable=0;fillColor=none;top=0;left=0;bottom=0;right=0;align=left;spacingLeft=2;overflow=hidden;fontSize=11;" parent="i-dMMfXqlk09ZkL_Bo82-293" vertex="1">
          <mxGeometry x="102" width="22" height="22" as="geometry">
            <mxRectangle width="22" height="22" as="alternateBounds" />
          </mxGeometry>
        </mxCell>
        <mxCell id="i-dMMfXqlk09ZkL_Bo82-297" style="shape=tableRow;horizontal=0;startSize=0;swimlaneHead=0;swimlaneBody=0;fillColor=none;collapsible=0;dropTarget=0;points=[[0,0.5],[1,0.5]];portConstraint=eastwest;top=0;left=0;right=0;bottom=0;" parent="i-dMMfXqlk09ZkL_Bo82-284" vertex="1">
          <mxGeometry y="91" width="124" height="22" as="geometry" />
        </mxCell>
        <mxCell id="i-dMMfXqlk09ZkL_Bo82-298" value="int" style="shape=partialRectangle;connectable=0;fillColor=none;top=0;left=0;bottom=0;right=0;align=left;spacingLeft=2;overflow=hidden;fontSize=11;" parent="i-dMMfXqlk09ZkL_Bo82-297" vertex="1">
          <mxGeometry width="42" height="22" as="geometry">
            <mxRectangle width="42" height="22" as="alternateBounds" />
          </mxGeometry>
        </mxCell>
        <mxCell id="i-dMMfXqlk09ZkL_Bo82-299" value="duration" style="shape=partialRectangle;connectable=0;fillColor=none;top=0;left=0;bottom=0;right=0;align=left;spacingLeft=2;overflow=hidden;fontSize=11;" parent="i-dMMfXqlk09ZkL_Bo82-297" vertex="1">
          <mxGeometry x="42" width="60" height="22" as="geometry">
            <mxRectangle width="60" height="22" as="alternateBounds" />
          </mxGeometry>
        </mxCell>
        <mxCell id="i-dMMfXqlk09ZkL_Bo82-300" value="" style="shape=partialRectangle;connectable=0;fillColor=none;top=0;left=0;bottom=0;right=0;align=left;spacingLeft=2;overflow=hidden;fontSize=11;" parent="i-dMMfXqlk09ZkL_Bo82-297" vertex="1">
          <mxGeometry x="102" width="22" height="22" as="geometry">
            <mxRectangle width="22" height="22" as="alternateBounds" />
          </mxGeometry>
        </mxCell>
        <mxCell id="i-dMMfXqlk09ZkL_Bo82-301" style="shape=tableRow;horizontal=0;startSize=0;swimlaneHead=0;swimlaneBody=0;fillColor=none;collapsible=0;dropTarget=0;points=[[0,0.5],[1,0.5]];portConstraint=eastwest;top=0;left=0;right=0;bottom=0;" parent="i-dMMfXqlk09ZkL_Bo82-284" vertex="1">
          <mxGeometry y="113" width="124" height="22" as="geometry" />
        </mxCell>
        <mxCell id="i-dMMfXqlk09ZkL_Bo82-302" value="decimal" style="shape=partialRectangle;connectable=0;fillColor=none;top=0;left=0;bottom=0;right=0;align=left;spacingLeft=2;overflow=hidden;fontSize=11;" parent="i-dMMfXqlk09ZkL_Bo82-301" vertex="1">
          <mxGeometry width="42" height="22" as="geometry">
            <mxRectangle width="42" height="22" as="alternateBounds" />
          </mxGeometry>
        </mxCell>
        <mxCell id="i-dMMfXqlk09ZkL_Bo82-303" value="price" style="shape=partialRectangle;connectable=0;fillColor=none;top=0;left=0;bottom=0;right=0;align=left;spacingLeft=2;overflow=hidden;fontSize=11;" parent="i-dMMfXqlk09ZkL_Bo82-301" vertex="1">
          <mxGeometry x="42" width="60" height="22" as="geometry">
            <mxRectangle width="60" height="22" as="alternateBounds" />
          </mxGeometry>
        </mxCell>
        <mxCell id="i-dMMfXqlk09ZkL_Bo82-304" value="" style="shape=partialRectangle;connectable=0;fillColor=none;top=0;left=0;bottom=0;right=0;align=left;spacingLeft=2;overflow=hidden;fontSize=11;" parent="i-dMMfXqlk09ZkL_Bo82-301" vertex="1">
          <mxGeometry x="102" width="22" height="22" as="geometry">
            <mxRectangle width="22" height="22" as="alternateBounds" />
          </mxGeometry>
        </mxCell>
        <mxCell id="i-dMMfXqlk09ZkL_Bo82-305" value="бар" style="curved=1;startArrow=ERmandOne;startSize=10;;endArrow=ERzeroToMany;endSize=10;;exitX=0.474;exitY=1.029;entryX=0.5;entryY=0;rounded=0;exitDx=0;exitDy=0;exitPerimeter=0;" parent="1" source="QCRX9I76-EoQZHP0PRte-71" target="i-dMMfXqlk09ZkL_Bo82-2" edge="1">
          <mxGeometry relative="1" as="geometry">
            <Array as="points" />
            <mxPoint x="1853" y="270" as="sourcePoint" />
          </mxGeometry>
        </mxCell>
        <mxCell id="i-dMMfXqlk09ZkL_Bo82-306" value="жібереді" style="curved=1;dashed=1;startArrow=ERoneToMany;startSize=10;;endArrow=ERoneToMany;endSize=10;;exitX=0;exitY=0.58;entryX=0.23;entryY=0;rounded=0;" parent="1" source="i-dMMfXqlk09ZkL_Bo82-2" target="i-dMMfXqlk09ZkL_Bo82-31" edge="1">
          <mxGeometry relative="1" as="geometry">
            <Array as="points">
              <mxPoint x="905" y="642" />
            </Array>
          </mxGeometry>
        </mxCell>
        <mxCell id="i-dMMfXqlk09ZkL_Bo82-307" value="жазады" style="curved=1;startArrow=ERmandOne;startSize=10;;endArrow=ERzeroToMany;endSize=10;;exitX=1.01;exitY=0.7;entryX=0.5;entryY=0;rounded=0;" parent="1" source="i-dMMfXqlk09ZkL_Bo82-2" target="i-dMMfXqlk09ZkL_Bo82-56" edge="1">
          <mxGeometry relative="1" as="geometry">
            <Array as="points">
              <mxPoint x="2208" y="642" />
            </Array>
          </mxGeometry>
        </mxCell>
        <mxCell id="i-dMMfXqlk09ZkL_Bo82-308" value="saves" style="curved=1;startArrow=ERmandOne;startSize=10;;endArrow=ERzeroToMany;endSize=10;;exitX=0;exitY=0.6;entryX=0.29;entryY=0;rounded=0;" parent="1" source="i-dMMfXqlk09ZkL_Bo82-2" target="i-dMMfXqlk09ZkL_Bo82-81" edge="1">
          <mxGeometry relative="1" as="geometry">
            <Array as="points">
              <mxPoint x="1131" y="642" />
            </Array>
          </mxGeometry>
        </mxCell>
        <mxCell id="i-dMMfXqlk09ZkL_Bo82-309" value="жасайды" style="curved=1;startArrow=ERmandOne;startSize=10;;endArrow=ERzeroToMany;endSize=10;;exitX=0;exitY=0.65;entryX=0.25;entryY=0;rounded=0;" parent="1" source="i-dMMfXqlk09ZkL_Bo82-2" target="i-dMMfXqlk09ZkL_Bo82-94" edge="1">
          <mxGeometry relative="1" as="geometry">
            <Array as="points">
              <mxPoint x="1362" y="642" />
            </Array>
          </mxGeometry>
        </mxCell>
        <mxCell id="i-dMMfXqlk09ZkL_Bo82-310" value="жасайды" style="curved=1;startArrow=ERmandOne;startSize=10;;endArrow=ERzeroToMany;endSize=10;;exitX=1.01;exitY=0.62;entryX=0.5;entryY=0;rounded=0;" parent="1" source="i-dMMfXqlk09ZkL_Bo82-2" target="i-dMMfXqlk09ZkL_Bo82-119" edge="1">
          <mxGeometry relative="1" as="geometry">
            <Array as="points">
              <mxPoint x="2473" y="642" />
            </Array>
          </mxGeometry>
        </mxCell>
        <mxCell id="i-dMMfXqlk09ZkL_Bo82-311" value="logs" style="curved=1;startArrow=ERmandOne;startSize=10;;endArrow=ERzeroToMany;endSize=10;;exitX=1.01;exitY=0.58;entryX=0.5;entryY=0;rounded=0;" parent="1" source="i-dMMfXqlk09ZkL_Bo82-2" target="i-dMMfXqlk09ZkL_Bo82-144" edge="1">
          <mxGeometry relative="1" as="geometry">
            <Array as="points">
              <mxPoint x="2722" y="642" />
            </Array>
          </mxGeometry>
        </mxCell>
        <mxCell id="i-dMMfXqlk09ZkL_Bo82-312" value="есептер" style="curved=1;startArrow=ERmandOne;startSize=10;;endArrow=ERzeroToMany;endSize=10;;exitX=0.5;exitY=1;entryX=0.25;entryY=0;rounded=0;" parent="1" source="i-dMMfXqlk09ZkL_Bo82-2" target="i-dMMfXqlk09ZkL_Bo82-165" edge="1">
          <mxGeometry relative="1" as="geometry">
            <Array as="points" />
          </mxGeometry>
        </mxCell>
        <mxCell id="i-dMMfXqlk09ZkL_Bo82-313" value="құрамында" style="curved=1;startArrow=ERmandOne;startSize=10;;endArrow=ERzeroToMany;endSize=10;;exitX=1;exitY=0.5;entryX=0;entryY=0.44;rounded=0;exitDx=0;exitDy=0;" parent="1" source="QCRX9I76-EoQZHP0PRte-2" target="i-dMMfXqlk09ZkL_Bo82-191" edge="1">
          <mxGeometry relative="1" as="geometry">
            <Array as="points">
              <mxPoint x="340" y="250" />
            </Array>
            <mxPoint x="196.0000000000001" y="270" as="sourcePoint" />
          </mxGeometry>
        </mxCell>
        <mxCell id="i-dMMfXqlk09ZkL_Bo82-314" value="анықтайды" style="curved=1;startArrow=ERmandOne;startSize=10;;endArrow=ERzeroToMany;endSize=10;;exitX=0.07;exitY=1;entryX=0.412;entryY=-0.04;rounded=0;entryDx=0;entryDy=0;entryPerimeter=0;" parent="1" target="QCRX9I76-EoQZHP0PRte-14" edge="1">
          <mxGeometry x="0.0021" relative="1" as="geometry">
            <Array as="points">
              <mxPoint x="91" y="320" />
            </Array>
            <mxPoint x="148" y="270" as="sourcePoint" />
            <mxPoint x="91" y="443" as="targetPoint" />
            <mxPoint as="offset" />
          </mxGeometry>
        </mxCell>
        <mxCell id="i-dMMfXqlk09ZkL_Bo82-315" value="бар" style="curved=1;startArrow=ERmandOne;startSize=10;;endArrow=ERzeroToMany;endSize=10;;exitX=0;exitY=0.5;entryX=0.16;entryY=0;rounded=0;exitDx=0;exitDy=0;" parent="1" source="QCRX9I76-EoQZHP0PRte-28" target="i-dMMfXqlk09ZkL_Bo82-191" edge="1">
          <mxGeometry relative="1" as="geometry">
            <Array as="points">
              <mxPoint x="830" y="300" />
            </Array>
            <mxPoint x="960" y="270" as="sourcePoint" />
          </mxGeometry>
        </mxCell>
        <mxCell id="i-dMMfXqlk09ZkL_Bo82-316" value="орналасқан жері" style="curved=1;startArrow=ERmandOne;startSize=10;;endArrow=ERzeroToMany;endSize=10;;exitX=0.494;exitY=0.9;entryX=1;entryY=0.34;rounded=0;exitDx=0;exitDy=0;exitPerimeter=0;" parent="1" source="QCRX9I76-EoQZHP0PRte-49" target="i-dMMfXqlk09ZkL_Bo82-191" edge="1">
          <mxGeometry relative="1" as="geometry">
            <Array as="points">
              <mxPoint x="1380" y="370" />
            </Array>
            <mxPoint x="1359.9999999999998" y="270" as="sourcePoint" />
          </mxGeometry>
        </mxCell>
        <mxCell id="i-dMMfXqlk09ZkL_Bo82-317" value="құрамында" style="curved=1;startArrow=ERmandOne;startSize=10;;endArrow=ERzeroToMany;endSize=10;;exitX=0.5;exitY=1.045;entryX=0.5;entryY=0;rounded=0;exitDx=0;exitDy=0;exitPerimeter=0;" parent="1" source="QCRX9I76-EoQZHP0PRte-62" edge="1">
          <mxGeometry relative="1" as="geometry">
            <Array as="points" />
            <mxPoint x="1359.9999999999998" y="95" as="sourcePoint" />
            <mxPoint x="1359.9999999999998" y="195" as="targetPoint" />
          </mxGeometry>
        </mxCell>
        <mxCell id="i-dMMfXqlk09ZkL_Bo82-318" value="бар" style="curved=1;startArrow=ERmandOne;startSize=10;;endArrow=ERzeroToMany;endSize=10;;exitX=0;exitY=0.55;entryX=0.35;entryY=0;rounded=0;" parent="1" source="i-dMMfXqlk09ZkL_Bo82-191" target="i-dMMfXqlk09ZkL_Bo82-232" edge="1">
          <mxGeometry relative="1" as="geometry">
            <Array as="points">
              <mxPoint x="41" y="642" />
            </Array>
          </mxGeometry>
        </mxCell>
        <mxCell id="i-dMMfXqlk09ZkL_Bo82-319" value="бар" style="curved=1;startArrow=ERmandOne;startSize=10;;endArrow=ERzeroToMany;endSize=10;;exitX=0;exitY=0.57;entryX=0.49;entryY=0;rounded=0;" parent="1" source="i-dMMfXqlk09ZkL_Bo82-191" target="i-dMMfXqlk09ZkL_Bo82-245" edge="1">
          <mxGeometry relative="1" as="geometry">
            <Array as="points">
              <mxPoint x="318" y="642" />
            </Array>
          </mxGeometry>
        </mxCell>
        <mxCell id="i-dMMfXqlk09ZkL_Bo82-320" value="бар" style="curved=1;startArrow=ERmandOne;startSize=10;;endArrow=ERzeroToMany;endSize=10;;exitX=0;exitY=0.6;entryX=0.48;entryY=0;rounded=0;" parent="1" source="i-dMMfXqlk09ZkL_Bo82-191" target="i-dMMfXqlk09ZkL_Bo82-258" edge="1">
          <mxGeometry relative="1" as="geometry">
            <Array as="points">
              <mxPoint x="531" y="642" />
            </Array>
          </mxGeometry>
        </mxCell>
        <mxCell id="i-dMMfXqlk09ZkL_Bo82-321" value="бар" style="curved=1;startArrow=ERmandOne;startSize=10;;endArrow=ERzeroToMany;endSize=10;;exitX=0;exitY=0.68;entryX=0.47;entryY=0;rounded=0;" parent="1" source="i-dMMfXqlk09ZkL_Bo82-191" target="i-dMMfXqlk09ZkL_Bo82-271" edge="1">
          <mxGeometry relative="1" as="geometry">
            <Array as="points">
              <mxPoint x="742" y="642" />
            </Array>
          </mxGeometry>
        </mxCell>
        <mxCell id="i-dMMfXqlk09ZkL_Bo82-322" value="байланысты" style="curved=1;startArrow=ERmandOne;startSize=10;;endArrow=ERzeroToMany;endSize=10;;exitX=0.5;exitY=1;entryX=0.76;entryY=0;rounded=0;" parent="1" source="i-dMMfXqlk09ZkL_Bo82-191" target="i-dMMfXqlk09ZkL_Bo82-31" edge="1">
          <mxGeometry relative="1" as="geometry">
            <Array as="points">
              <mxPoint x="1031" y="642" />
            </Array>
          </mxGeometry>
        </mxCell>
        <mxCell id="i-dMMfXqlk09ZkL_Bo82-323" value="сүйікті" style="curved=1;startArrow=ERmandOne;startSize=10;;endArrow=ERzeroToMany;endSize=10;;exitX=1;exitY=0.73;entryX=0.72;entryY=0;rounded=0;" parent="1" source="i-dMMfXqlk09ZkL_Bo82-191" target="i-dMMfXqlk09ZkL_Bo82-81" edge="1">
          <mxGeometry relative="1" as="geometry">
            <Array as="points">
              <mxPoint x="1262" y="642" />
            </Array>
          </mxGeometry>
        </mxCell>
        <mxCell id="i-dMMfXqlk09ZkL_Bo82-324" value="қатысады" style="curved=1;startArrow=ERmandOne;startSize=10;;endArrow=ERzeroToMany;endSize=10;;exitX=1;exitY=0.61;entryX=0.75;entryY=0;rounded=0;" parent="1" source="i-dMMfXqlk09ZkL_Bo82-191" target="i-dMMfXqlk09ZkL_Bo82-94" edge="1">
          <mxGeometry relative="1" as="geometry">
            <Array as="points">
              <mxPoint x="1503" y="642" />
            </Array>
          </mxGeometry>
        </mxCell>
        <mxCell id="i-dMMfXqlk09ZkL_Bo82-325" value="ретінде жоғарылатылды" style="curved=1;startArrow=ERmandOne;startSize=10;;endArrow=ERzeroToMany;endSize=10;;exitX=1;exitY=0.58;entryX=0.49;entryY=0;rounded=0;" parent="1" source="i-dMMfXqlk09ZkL_Bo82-191" target="i-dMMfXqlk09ZkL_Bo82-284" edge="1">
          <mxGeometry relative="1" as="geometry">
            <Array as="points">
              <mxPoint x="1676" y="642" />
            </Array>
          </mxGeometry>
        </mxCell>
        <mxCell id="i-dMMfXqlk09ZkL_Bo82-326" value="ретінде хабарланды" style="curved=1;startArrow=ERmandOne;startSize=10;;endArrow=ERzeroToMany;endSize=10;;exitX=1;exitY=0.55;entryX=0.78;entryY=0;rounded=0;" parent="1" source="i-dMMfXqlk09ZkL_Bo82-191" target="i-dMMfXqlk09ZkL_Bo82-165" edge="1">
          <mxGeometry relative="1" as="geometry">
            <Array as="points">
              <mxPoint x="2019" y="642" />
            </Array>
          </mxGeometry>
        </mxCell>
        <mxCell id="i-dMMfXqlk09ZkL_Bo82-327" value="пайдаланылады" style="curved=1;startArrow=ERmandOne;startSize=10;;endArrow=ERzeroToMany;endSize=10;;exitX=0.493;exitY=1.136;entryX=0.61;entryY=0;rounded=0;exitDx=0;exitDy=0;exitPerimeter=0;" parent="1" source="QCRX9I76-EoQZHP0PRte-23" target="i-dMMfXqlk09ZkL_Bo82-232" edge="1">
          <mxGeometry relative="1" as="geometry">
            <Array as="points">
              <mxPoint x="155" y="642" />
            </Array>
            <mxPoint x="106" y="518" as="sourcePoint" />
          </mxGeometry>
        </mxCell>
        <mxCell id="QCRX9I76-EoQZHP0PRte-1" value="Categories" style="shape=table;startSize=30;container=1;collapsible=0;childLayout=tableLayout;fixedRows=1;rowLines=1;fontStyle=1;align=center;resizeLast=1;" parent="1" vertex="1">
          <mxGeometry x="110" y="170" width="170" height="96" as="geometry" />
        </mxCell>
        <mxCell id="QCRX9I76-EoQZHP0PRte-2" style="shape=tableRow;horizontal=0;startSize=0;swimlaneHead=0;swimlaneBody=0;fillColor=none;collapsible=0;dropTarget=0;points=[[0,0.5],[1,0.5]];portConstraint=eastwest;top=0;left=0;right=0;bottom=0;" parent="QCRX9I76-EoQZHP0PRte-1" vertex="1">
          <mxGeometry y="30" width="170" height="22" as="geometry" />
        </mxCell>
        <mxCell id="QCRX9I76-EoQZHP0PRte-3" value="int" style="shape=partialRectangle;connectable=0;fillColor=none;top=0;left=0;bottom=0;right=0;align=left;spacingLeft=2;overflow=hidden;fontSize=11;" parent="QCRX9I76-EoQZHP0PRte-2" vertex="1">
          <mxGeometry width="36" height="22" as="geometry">
            <mxRectangle width="36" height="22" as="alternateBounds" />
          </mxGeometry>
        </mxCell>
        <mxCell id="QCRX9I76-EoQZHP0PRte-4" value="category_id " style="shape=partialRectangle;connectable=0;fillColor=none;top=0;left=0;bottom=0;right=0;align=left;spacingLeft=2;overflow=hidden;fontSize=11;" parent="QCRX9I76-EoQZHP0PRte-2" vertex="1">
          <mxGeometry x="36" width="103.99999999999989" height="22" as="geometry">
            <mxRectangle width="103.99999999999989" height="22" as="alternateBounds" />
          </mxGeometry>
        </mxCell>
        <mxCell id="QCRX9I76-EoQZHP0PRte-5" value="PK" style="shape=partialRectangle;connectable=0;fillColor=none;top=0;left=0;bottom=0;right=0;align=left;spacingLeft=2;overflow=hidden;fontSize=11;" parent="QCRX9I76-EoQZHP0PRte-2" vertex="1">
          <mxGeometry x="139.9999999999999" width="30.000000000000114" height="22" as="geometry">
            <mxRectangle width="30.000000000000114" height="22" as="alternateBounds" />
          </mxGeometry>
        </mxCell>
        <mxCell id="QCRX9I76-EoQZHP0PRte-6" style="shape=tableRow;horizontal=0;startSize=0;swimlaneHead=0;swimlaneBody=0;fillColor=none;collapsible=0;dropTarget=0;points=[[0,0.5],[1,0.5]];portConstraint=eastwest;top=0;left=0;right=0;bottom=0;" parent="QCRX9I76-EoQZHP0PRte-1" vertex="1">
          <mxGeometry y="52" width="170" height="22" as="geometry" />
        </mxCell>
        <mxCell id="QCRX9I76-EoQZHP0PRte-7" value="int" style="shape=partialRectangle;connectable=0;fillColor=none;top=0;left=0;bottom=0;right=0;align=left;spacingLeft=2;overflow=hidden;fontSize=11;" parent="QCRX9I76-EoQZHP0PRte-6" vertex="1">
          <mxGeometry width="36" height="22" as="geometry">
            <mxRectangle width="36" height="22" as="alternateBounds" />
          </mxGeometry>
        </mxCell>
        <mxCell id="QCRX9I76-EoQZHP0PRte-8" value="parent_category_id " style="shape=partialRectangle;connectable=0;fillColor=none;top=0;left=0;bottom=0;right=0;align=left;spacingLeft=2;overflow=hidden;fontSize=11;" parent="QCRX9I76-EoQZHP0PRte-6" vertex="1">
          <mxGeometry x="36" width="103.99999999999989" height="22" as="geometry">
            <mxRectangle width="103.99999999999989" height="22" as="alternateBounds" />
          </mxGeometry>
        </mxCell>
        <mxCell id="QCRX9I76-EoQZHP0PRte-9" value="FK" style="shape=partialRectangle;connectable=0;fillColor=none;top=0;left=0;bottom=0;right=0;align=left;spacingLeft=2;overflow=hidden;fontSize=11;" parent="QCRX9I76-EoQZHP0PRte-6" vertex="1">
          <mxGeometry x="139.9999999999999" width="30.000000000000114" height="22" as="geometry">
            <mxRectangle width="30.000000000000114" height="22" as="alternateBounds" />
          </mxGeometry>
        </mxCell>
        <mxCell id="QCRX9I76-EoQZHP0PRte-10" style="shape=tableRow;horizontal=0;startSize=0;swimlaneHead=0;swimlaneBody=0;fillColor=none;collapsible=0;dropTarget=0;points=[[0,0.5],[1,0.5]];portConstraint=eastwest;top=0;left=0;right=0;bottom=0;" parent="QCRX9I76-EoQZHP0PRte-1" vertex="1">
          <mxGeometry y="74" width="170" height="22" as="geometry" />
        </mxCell>
        <mxCell id="QCRX9I76-EoQZHP0PRte-11" value="string" style="shape=partialRectangle;connectable=0;fillColor=none;top=0;left=0;bottom=0;right=0;align=left;spacingLeft=2;overflow=hidden;fontSize=11;" parent="QCRX9I76-EoQZHP0PRte-10" vertex="1">
          <mxGeometry width="36" height="22" as="geometry">
            <mxRectangle width="36" height="22" as="alternateBounds" />
          </mxGeometry>
        </mxCell>
        <mxCell id="QCRX9I76-EoQZHP0PRte-12" value="name " style="shape=partialRectangle;connectable=0;fillColor=none;top=0;left=0;bottom=0;right=0;align=left;spacingLeft=2;overflow=hidden;fontSize=11;" parent="QCRX9I76-EoQZHP0PRte-10" vertex="1">
          <mxGeometry x="36" width="103.99999999999989" height="22" as="geometry">
            <mxRectangle width="103.99999999999989" height="22" as="alternateBounds" />
          </mxGeometry>
        </mxCell>
        <mxCell id="QCRX9I76-EoQZHP0PRte-13" value="" style="shape=partialRectangle;connectable=0;fillColor=none;top=0;left=0;bottom=0;right=0;align=left;spacingLeft=2;overflow=hidden;fontSize=11;" parent="QCRX9I76-EoQZHP0PRte-10" vertex="1">
          <mxGeometry x="139.9999999999999" width="30.000000000000114" height="22" as="geometry">
            <mxRectangle width="30.000000000000114" height="22" as="alternateBounds" />
          </mxGeometry>
        </mxCell>
        <mxCell id="QCRX9I76-EoQZHP0PRte-14" value="ATTRIBUTES" style="shape=table;startSize=25;container=1;collapsible=0;childLayout=tableLayout;fixedRows=1;rowLines=1;fontStyle=1;align=center;resizeLast=1;" parent="1" vertex="1">
          <mxGeometry x="30" y="436" width="148" height="91" as="geometry" />
        </mxCell>
        <mxCell id="QCRX9I76-EoQZHP0PRte-15" style="shape=tableRow;horizontal=0;startSize=0;swimlaneHead=0;swimlaneBody=0;fillColor=none;collapsible=0;dropTarget=0;points=[[0,0.5],[1,0.5]];portConstraint=eastwest;top=0;left=0;right=0;bottom=0;" parent="QCRX9I76-EoQZHP0PRte-14" vertex="1">
          <mxGeometry y="25" width="148" height="22" as="geometry" />
        </mxCell>
        <mxCell id="QCRX9I76-EoQZHP0PRte-16" value="int" style="shape=partialRectangle;connectable=0;fillColor=none;top=0;left=0;bottom=0;right=0;align=left;spacingLeft=2;overflow=hidden;fontSize=11;" parent="QCRX9I76-EoQZHP0PRte-15" vertex="1">
          <mxGeometry width="36" height="22" as="geometry">
            <mxRectangle width="36" height="22" as="alternateBounds" />
          </mxGeometry>
        </mxCell>
        <mxCell id="QCRX9I76-EoQZHP0PRte-17" value="attribute_id " style="shape=partialRectangle;connectable=0;fillColor=none;top=0;left=0;bottom=0;right=0;align=left;spacingLeft=2;overflow=hidden;fontSize=11;" parent="QCRX9I76-EoQZHP0PRte-15" vertex="1">
          <mxGeometry x="36" width="82" height="22" as="geometry">
            <mxRectangle width="82" height="22" as="alternateBounds" />
          </mxGeometry>
        </mxCell>
        <mxCell id="QCRX9I76-EoQZHP0PRte-18" value="PK" style="shape=partialRectangle;connectable=0;fillColor=none;top=0;left=0;bottom=0;right=0;align=left;spacingLeft=2;overflow=hidden;fontSize=11;" parent="QCRX9I76-EoQZHP0PRte-15" vertex="1">
          <mxGeometry x="118" width="30" height="22" as="geometry">
            <mxRectangle width="30" height="22" as="alternateBounds" />
          </mxGeometry>
        </mxCell>
        <mxCell id="QCRX9I76-EoQZHP0PRte-19" style="shape=tableRow;horizontal=0;startSize=0;swimlaneHead=0;swimlaneBody=0;fillColor=none;collapsible=0;dropTarget=0;points=[[0,0.5],[1,0.5]];portConstraint=eastwest;top=0;left=0;right=0;bottom=0;" parent="QCRX9I76-EoQZHP0PRte-14" vertex="1">
          <mxGeometry y="47" width="148" height="22" as="geometry" />
        </mxCell>
        <mxCell id="QCRX9I76-EoQZHP0PRte-20" value="int" style="shape=partialRectangle;connectable=0;fillColor=none;top=0;left=0;bottom=0;right=0;align=left;spacingLeft=2;overflow=hidden;fontSize=11;" parent="QCRX9I76-EoQZHP0PRte-19" vertex="1">
          <mxGeometry width="36" height="22" as="geometry">
            <mxRectangle width="36" height="22" as="alternateBounds" />
          </mxGeometry>
        </mxCell>
        <mxCell id="QCRX9I76-EoQZHP0PRte-21" value="category_id " style="shape=partialRectangle;connectable=0;fillColor=none;top=0;left=0;bottom=0;right=0;align=left;spacingLeft=2;overflow=hidden;fontSize=11;" parent="QCRX9I76-EoQZHP0PRte-19" vertex="1">
          <mxGeometry x="36" width="82" height="22" as="geometry">
            <mxRectangle width="82" height="22" as="alternateBounds" />
          </mxGeometry>
        </mxCell>
        <mxCell id="QCRX9I76-EoQZHP0PRte-22" value="FK" style="shape=partialRectangle;connectable=0;fillColor=none;top=0;left=0;bottom=0;right=0;align=left;spacingLeft=2;overflow=hidden;fontSize=11;" parent="QCRX9I76-EoQZHP0PRte-19" vertex="1">
          <mxGeometry x="118" width="30" height="22" as="geometry">
            <mxRectangle width="30" height="22" as="alternateBounds" />
          </mxGeometry>
        </mxCell>
        <mxCell id="QCRX9I76-EoQZHP0PRte-23" style="shape=tableRow;horizontal=0;startSize=0;swimlaneHead=0;swimlaneBody=0;fillColor=none;collapsible=0;dropTarget=0;points=[[0,0.5],[1,0.5]];portConstraint=eastwest;top=0;left=0;right=0;bottom=0;" parent="QCRX9I76-EoQZHP0PRte-14" vertex="1">
          <mxGeometry y="69" width="148" height="22" as="geometry" />
        </mxCell>
        <mxCell id="QCRX9I76-EoQZHP0PRte-24" value="string" style="shape=partialRectangle;connectable=0;fillColor=none;top=0;left=0;bottom=0;right=0;align=left;spacingLeft=2;overflow=hidden;fontSize=11;" parent="QCRX9I76-EoQZHP0PRte-23" vertex="1">
          <mxGeometry width="36" height="22" as="geometry">
            <mxRectangle width="36" height="22" as="alternateBounds" />
          </mxGeometry>
        </mxCell>
        <mxCell id="QCRX9I76-EoQZHP0PRte-25" value="name " style="shape=partialRectangle;connectable=0;fillColor=none;top=0;left=0;bottom=0;right=0;align=left;spacingLeft=2;overflow=hidden;fontSize=11;" parent="QCRX9I76-EoQZHP0PRte-23" vertex="1">
          <mxGeometry x="36" width="82" height="22" as="geometry">
            <mxRectangle width="82" height="22" as="alternateBounds" />
          </mxGeometry>
        </mxCell>
        <mxCell id="QCRX9I76-EoQZHP0PRte-26" value="" style="shape=partialRectangle;connectable=0;fillColor=none;top=0;left=0;bottom=0;right=0;align=left;spacingLeft=2;overflow=hidden;fontSize=11;" parent="QCRX9I76-EoQZHP0PRte-23" vertex="1">
          <mxGeometry x="118" width="30" height="22" as="geometry">
            <mxRectangle width="30" height="22" as="alternateBounds" />
          </mxGeometry>
        </mxCell>
        <mxCell id="QCRX9I76-EoQZHP0PRte-27" value="LISTING_STATUS" style="shape=table;startSize=25;container=1;collapsible=0;childLayout=tableLayout;fixedRows=1;rowLines=1;fontStyle=1;align=center;resizeLast=1;" parent="1" vertex="1">
          <mxGeometry x="897" y="201" width="130" height="69" as="geometry" />
        </mxCell>
        <mxCell id="QCRX9I76-EoQZHP0PRte-28" style="shape=tableRow;horizontal=0;startSize=0;swimlaneHead=0;swimlaneBody=0;fillColor=none;collapsible=0;dropTarget=0;points=[[0,0.5],[1,0.5]];portConstraint=eastwest;top=0;left=0;right=0;bottom=0;" parent="QCRX9I76-EoQZHP0PRte-27" vertex="1">
          <mxGeometry y="25" width="130" height="22" as="geometry" />
        </mxCell>
        <mxCell id="QCRX9I76-EoQZHP0PRte-29" value="int" style="shape=partialRectangle;connectable=0;fillColor=none;top=0;left=0;bottom=0;right=0;align=left;spacingLeft=2;overflow=hidden;fontSize=11;" parent="QCRX9I76-EoQZHP0PRte-28" vertex="1">
          <mxGeometry width="36" height="22" as="geometry">
            <mxRectangle width="36" height="22" as="alternateBounds" />
          </mxGeometry>
        </mxCell>
        <mxCell id="QCRX9I76-EoQZHP0PRte-30" value="status_id " style="shape=partialRectangle;connectable=0;fillColor=none;top=0;left=0;bottom=0;right=0;align=left;spacingLeft=2;overflow=hidden;fontSize=11;" parent="QCRX9I76-EoQZHP0PRte-28" vertex="1">
          <mxGeometry x="36" width="74" height="22" as="geometry">
            <mxRectangle width="74" height="22" as="alternateBounds" />
          </mxGeometry>
        </mxCell>
        <mxCell id="QCRX9I76-EoQZHP0PRte-31" value="PK" style="shape=partialRectangle;connectable=0;fillColor=none;top=0;left=0;bottom=0;right=0;align=left;spacingLeft=2;overflow=hidden;fontSize=11;" parent="QCRX9I76-EoQZHP0PRte-28" vertex="1">
          <mxGeometry x="110" width="20" height="22" as="geometry">
            <mxRectangle width="20" height="22" as="alternateBounds" />
          </mxGeometry>
        </mxCell>
        <mxCell id="QCRX9I76-EoQZHP0PRte-32" style="shape=tableRow;horizontal=0;startSize=0;swimlaneHead=0;swimlaneBody=0;fillColor=none;collapsible=0;dropTarget=0;points=[[0,0.5],[1,0.5]];portConstraint=eastwest;top=0;left=0;right=0;bottom=0;" parent="QCRX9I76-EoQZHP0PRte-27" vertex="1">
          <mxGeometry y="47" width="130" height="22" as="geometry" />
        </mxCell>
        <mxCell id="QCRX9I76-EoQZHP0PRte-33" value="string" style="shape=partialRectangle;connectable=0;fillColor=none;top=0;left=0;bottom=0;right=0;align=left;spacingLeft=2;overflow=hidden;fontSize=11;" parent="QCRX9I76-EoQZHP0PRte-32" vertex="1">
          <mxGeometry width="36" height="22" as="geometry">
            <mxRectangle width="36" height="22" as="alternateBounds" />
          </mxGeometry>
        </mxCell>
        <mxCell id="QCRX9I76-EoQZHP0PRte-34" value="status_name " style="shape=partialRectangle;connectable=0;fillColor=none;top=0;left=0;bottom=0;right=0;align=left;spacingLeft=2;overflow=hidden;fontSize=11;" parent="QCRX9I76-EoQZHP0PRte-32" vertex="1">
          <mxGeometry x="36" width="74" height="22" as="geometry">
            <mxRectangle width="74" height="22" as="alternateBounds" />
          </mxGeometry>
        </mxCell>
        <mxCell id="QCRX9I76-EoQZHP0PRte-35" value="" style="shape=partialRectangle;connectable=0;fillColor=none;top=0;left=0;bottom=0;right=0;align=left;spacingLeft=2;overflow=hidden;fontSize=11;" parent="QCRX9I76-EoQZHP0PRte-32" vertex="1">
          <mxGeometry x="110" width="20" height="22" as="geometry">
            <mxRectangle width="20" height="22" as="alternateBounds" />
          </mxGeometry>
        </mxCell>
        <mxCell id="QCRX9I76-EoQZHP0PRte-40" value="LOCATIONS" style="shape=table;startSize=25;container=1;collapsible=0;childLayout=tableLayout;fixedRows=1;rowLines=1;fontStyle=1;align=center;resizeLast=1;" parent="1" vertex="1">
          <mxGeometry x="1285" y="191" width="150" height="89" as="geometry" />
        </mxCell>
        <mxCell id="QCRX9I76-EoQZHP0PRte-41" style="shape=tableRow;horizontal=0;startSize=0;swimlaneHead=0;swimlaneBody=0;fillColor=none;collapsible=0;dropTarget=0;points=[[0,0.5],[1,0.5]];portConstraint=eastwest;top=0;left=0;right=0;bottom=0;" parent="QCRX9I76-EoQZHP0PRte-40" vertex="1">
          <mxGeometry y="25" width="150" height="20" as="geometry" />
        </mxCell>
        <mxCell id="QCRX9I76-EoQZHP0PRte-42" value="int" style="shape=partialRectangle;connectable=0;fillColor=none;top=0;left=0;bottom=0;right=0;align=left;spacingLeft=2;overflow=hidden;fontSize=11;" parent="QCRX9I76-EoQZHP0PRte-41" vertex="1">
          <mxGeometry width="50" height="20" as="geometry">
            <mxRectangle width="50" height="20" as="alternateBounds" />
          </mxGeometry>
        </mxCell>
        <mxCell id="QCRX9I76-EoQZHP0PRte-43" value="location_id " style="shape=partialRectangle;connectable=0;fillColor=none;top=0;left=0;bottom=0;right=0;align=left;spacingLeft=2;overflow=hidden;fontSize=11;" parent="QCRX9I76-EoQZHP0PRte-41" vertex="1">
          <mxGeometry x="50" width="70" height="20" as="geometry">
            <mxRectangle width="70" height="20" as="alternateBounds" />
          </mxGeometry>
        </mxCell>
        <mxCell id="QCRX9I76-EoQZHP0PRte-44" value="PK" style="shape=partialRectangle;connectable=0;fillColor=none;top=0;left=0;bottom=0;right=0;align=left;spacingLeft=2;overflow=hidden;fontSize=11;" parent="QCRX9I76-EoQZHP0PRte-41" vertex="1">
          <mxGeometry x="120" width="30" height="20" as="geometry">
            <mxRectangle width="30" height="20" as="alternateBounds" />
          </mxGeometry>
        </mxCell>
        <mxCell id="QCRX9I76-EoQZHP0PRte-45" style="shape=tableRow;horizontal=0;startSize=0;swimlaneHead=0;swimlaneBody=0;fillColor=none;collapsible=0;dropTarget=0;points=[[0,0.5],[1,0.5]];portConstraint=eastwest;top=0;left=0;right=0;bottom=0;" parent="QCRX9I76-EoQZHP0PRte-40" vertex="1">
          <mxGeometry y="45" width="150" height="22" as="geometry" />
        </mxCell>
        <mxCell id="QCRX9I76-EoQZHP0PRte-46" value="int" style="shape=partialRectangle;connectable=0;fillColor=none;top=0;left=0;bottom=0;right=0;align=left;spacingLeft=2;overflow=hidden;fontSize=11;" parent="QCRX9I76-EoQZHP0PRte-45" vertex="1">
          <mxGeometry width="50" height="22" as="geometry">
            <mxRectangle width="50" height="22" as="alternateBounds" />
          </mxGeometry>
        </mxCell>
        <mxCell id="QCRX9I76-EoQZHP0PRte-47" value="city_id " style="shape=partialRectangle;connectable=0;fillColor=none;top=0;left=0;bottom=0;right=0;align=left;spacingLeft=2;overflow=hidden;fontSize=11;" parent="QCRX9I76-EoQZHP0PRte-45" vertex="1">
          <mxGeometry x="50" width="70" height="22" as="geometry">
            <mxRectangle width="70" height="22" as="alternateBounds" />
          </mxGeometry>
        </mxCell>
        <mxCell id="QCRX9I76-EoQZHP0PRte-48" value="FK" style="shape=partialRectangle;connectable=0;fillColor=none;top=0;left=0;bottom=0;right=0;align=left;spacingLeft=2;overflow=hidden;fontSize=11;" parent="QCRX9I76-EoQZHP0PRte-45" vertex="1">
          <mxGeometry x="120" width="30" height="22" as="geometry">
            <mxRectangle width="30" height="22" as="alternateBounds" />
          </mxGeometry>
        </mxCell>
        <mxCell id="QCRX9I76-EoQZHP0PRte-49" style="shape=tableRow;horizontal=0;startSize=0;swimlaneHead=0;swimlaneBody=0;fillColor=none;collapsible=0;dropTarget=0;points=[[0,0.5],[1,0.5]];portConstraint=eastwest;top=0;left=0;right=0;bottom=0;" parent="QCRX9I76-EoQZHP0PRte-40" vertex="1">
          <mxGeometry y="67" width="150" height="22" as="geometry" />
        </mxCell>
        <mxCell id="QCRX9I76-EoQZHP0PRte-50" value="string" style="shape=partialRectangle;connectable=0;fillColor=none;top=0;left=0;bottom=0;right=0;align=left;spacingLeft=2;overflow=hidden;fontSize=11;" parent="QCRX9I76-EoQZHP0PRte-49" vertex="1">
          <mxGeometry width="50" height="22" as="geometry">
            <mxRectangle width="50" height="22" as="alternateBounds" />
          </mxGeometry>
        </mxCell>
        <mxCell id="QCRX9I76-EoQZHP0PRte-51" value="district " style="shape=partialRectangle;connectable=0;fillColor=none;top=0;left=0;bottom=0;right=0;align=left;spacingLeft=2;overflow=hidden;fontSize=11;" parent="QCRX9I76-EoQZHP0PRte-49" vertex="1">
          <mxGeometry x="50" width="70" height="22" as="geometry">
            <mxRectangle width="70" height="22" as="alternateBounds" />
          </mxGeometry>
        </mxCell>
        <mxCell id="QCRX9I76-EoQZHP0PRte-52" value="" style="shape=partialRectangle;connectable=0;fillColor=none;top=0;left=0;bottom=0;right=0;align=left;spacingLeft=2;overflow=hidden;fontSize=11;" parent="QCRX9I76-EoQZHP0PRte-49" vertex="1">
          <mxGeometry x="120" width="30" height="22" as="geometry">
            <mxRectangle width="30" height="22" as="alternateBounds" />
          </mxGeometry>
        </mxCell>
        <mxCell id="QCRX9I76-EoQZHP0PRte-53" value="CITIES" style="shape=table;startSize=25;container=1;collapsible=0;childLayout=tableLayout;fixedRows=1;rowLines=1;fontStyle=1;align=center;resizeLast=1;" parent="1" vertex="1">
          <mxGeometry x="1285" y="10" width="150" height="89" as="geometry" />
        </mxCell>
        <mxCell id="QCRX9I76-EoQZHP0PRte-54" style="shape=tableRow;horizontal=0;startSize=0;swimlaneHead=0;swimlaneBody=0;fillColor=none;collapsible=0;dropTarget=0;points=[[0,0.5],[1,0.5]];portConstraint=eastwest;top=0;left=0;right=0;bottom=0;" parent="QCRX9I76-EoQZHP0PRte-53" vertex="1">
          <mxGeometry y="25" width="150" height="20" as="geometry" />
        </mxCell>
        <mxCell id="QCRX9I76-EoQZHP0PRte-55" value="int" style="shape=partialRectangle;connectable=0;fillColor=none;top=0;left=0;bottom=0;right=0;align=left;spacingLeft=2;overflow=hidden;fontSize=11;" parent="QCRX9I76-EoQZHP0PRte-54" vertex="1">
          <mxGeometry width="50" height="20" as="geometry">
            <mxRectangle width="50" height="20" as="alternateBounds" />
          </mxGeometry>
        </mxCell>
        <mxCell id="QCRX9I76-EoQZHP0PRte-56" value="city_id " style="shape=partialRectangle;connectable=0;fillColor=none;top=0;left=0;bottom=0;right=0;align=left;spacingLeft=2;overflow=hidden;fontSize=11;" parent="QCRX9I76-EoQZHP0PRte-54" vertex="1">
          <mxGeometry x="50" width="70" height="20" as="geometry">
            <mxRectangle width="70" height="20" as="alternateBounds" />
          </mxGeometry>
        </mxCell>
        <mxCell id="QCRX9I76-EoQZHP0PRte-57" value="PK" style="shape=partialRectangle;connectable=0;fillColor=none;top=0;left=0;bottom=0;right=0;align=left;spacingLeft=2;overflow=hidden;fontSize=11;" parent="QCRX9I76-EoQZHP0PRte-54" vertex="1">
          <mxGeometry x="120" width="30" height="20" as="geometry">
            <mxRectangle width="30" height="20" as="alternateBounds" />
          </mxGeometry>
        </mxCell>
        <mxCell id="QCRX9I76-EoQZHP0PRte-58" style="shape=tableRow;horizontal=0;startSize=0;swimlaneHead=0;swimlaneBody=0;fillColor=none;collapsible=0;dropTarget=0;points=[[0,0.5],[1,0.5]];portConstraint=eastwest;top=0;left=0;right=0;bottom=0;" parent="QCRX9I76-EoQZHP0PRte-53" vertex="1">
          <mxGeometry y="45" width="150" height="22" as="geometry" />
        </mxCell>
        <mxCell id="QCRX9I76-EoQZHP0PRte-59" value="string" style="shape=partialRectangle;connectable=0;fillColor=none;top=0;left=0;bottom=0;right=0;align=left;spacingLeft=2;overflow=hidden;fontSize=11;" parent="QCRX9I76-EoQZHP0PRte-58" vertex="1">
          <mxGeometry width="50" height="22" as="geometry">
            <mxRectangle width="50" height="22" as="alternateBounds" />
          </mxGeometry>
        </mxCell>
        <mxCell id="QCRX9I76-EoQZHP0PRte-60" value="city_name " style="shape=partialRectangle;connectable=0;fillColor=none;top=0;left=0;bottom=0;right=0;align=left;spacingLeft=2;overflow=hidden;fontSize=11;" parent="QCRX9I76-EoQZHP0PRte-58" vertex="1">
          <mxGeometry x="50" width="70" height="22" as="geometry">
            <mxRectangle width="70" height="22" as="alternateBounds" />
          </mxGeometry>
        </mxCell>
        <mxCell id="QCRX9I76-EoQZHP0PRte-61" value="" style="shape=partialRectangle;connectable=0;fillColor=none;top=0;left=0;bottom=0;right=0;align=left;spacingLeft=2;overflow=hidden;fontSize=11;" parent="QCRX9I76-EoQZHP0PRte-58" vertex="1">
          <mxGeometry x="120" width="30" height="22" as="geometry">
            <mxRectangle width="30" height="22" as="alternateBounds" />
          </mxGeometry>
        </mxCell>
        <mxCell id="QCRX9I76-EoQZHP0PRte-62" style="shape=tableRow;horizontal=0;startSize=0;swimlaneHead=0;swimlaneBody=0;fillColor=none;collapsible=0;dropTarget=0;points=[[0,0.5],[1,0.5]];portConstraint=eastwest;top=0;left=0;right=0;bottom=0;" parent="QCRX9I76-EoQZHP0PRte-53" vertex="1">
          <mxGeometry y="67" width="150" height="22" as="geometry" />
        </mxCell>
        <mxCell id="QCRX9I76-EoQZHP0PRte-63" value="string" style="shape=partialRectangle;connectable=0;fillColor=none;top=0;left=0;bottom=0;right=0;align=left;spacingLeft=2;overflow=hidden;fontSize=11;" parent="QCRX9I76-EoQZHP0PRte-62" vertex="1">
          <mxGeometry width="50" height="22" as="geometry">
            <mxRectangle width="50" height="22" as="alternateBounds" />
          </mxGeometry>
        </mxCell>
        <mxCell id="QCRX9I76-EoQZHP0PRte-64" value="country " style="shape=partialRectangle;connectable=0;fillColor=none;top=0;left=0;bottom=0;right=0;align=left;spacingLeft=2;overflow=hidden;fontSize=11;" parent="QCRX9I76-EoQZHP0PRte-62" vertex="1">
          <mxGeometry x="50" width="70" height="22" as="geometry">
            <mxRectangle width="70" height="22" as="alternateBounds" />
          </mxGeometry>
        </mxCell>
        <mxCell id="QCRX9I76-EoQZHP0PRte-65" value="" style="shape=partialRectangle;connectable=0;fillColor=none;top=0;left=0;bottom=0;right=0;align=left;spacingLeft=2;overflow=hidden;fontSize=11;" parent="QCRX9I76-EoQZHP0PRte-62" vertex="1">
          <mxGeometry x="120" width="30" height="22" as="geometry">
            <mxRectangle width="30" height="22" as="alternateBounds" />
          </mxGeometry>
        </mxCell>
        <mxCell id="QCRX9I76-EoQZHP0PRte-66" value="ROLES" style="shape=table;startSize=25;container=1;collapsible=0;childLayout=tableLayout;fixedRows=1;rowLines=1;fontStyle=1;align=center;resizeLast=1;" parent="1" vertex="1">
          <mxGeometry x="1782" y="203" width="150" height="67" as="geometry" />
        </mxCell>
        <mxCell id="QCRX9I76-EoQZHP0PRte-67" style="shape=tableRow;horizontal=0;startSize=0;swimlaneHead=0;swimlaneBody=0;fillColor=none;collapsible=0;dropTarget=0;points=[[0,0.5],[1,0.5]];portConstraint=eastwest;top=0;left=0;right=0;bottom=0;" parent="QCRX9I76-EoQZHP0PRte-66" vertex="1">
          <mxGeometry y="25" width="150" height="20" as="geometry" />
        </mxCell>
        <mxCell id="QCRX9I76-EoQZHP0PRte-68" value="int" style="shape=partialRectangle;connectable=0;fillColor=none;top=0;left=0;bottom=0;right=0;align=left;spacingLeft=2;overflow=hidden;fontSize=11;" parent="QCRX9I76-EoQZHP0PRte-67" vertex="1">
          <mxGeometry width="50" height="20" as="geometry">
            <mxRectangle width="50" height="20" as="alternateBounds" />
          </mxGeometry>
        </mxCell>
        <mxCell id="QCRX9I76-EoQZHP0PRte-69" value="role_id " style="shape=partialRectangle;connectable=0;fillColor=none;top=0;left=0;bottom=0;right=0;align=left;spacingLeft=2;overflow=hidden;fontSize=11;" parent="QCRX9I76-EoQZHP0PRte-67" vertex="1">
          <mxGeometry x="50" width="70" height="20" as="geometry">
            <mxRectangle width="70" height="20" as="alternateBounds" />
          </mxGeometry>
        </mxCell>
        <mxCell id="QCRX9I76-EoQZHP0PRte-70" value="PK" style="shape=partialRectangle;connectable=0;fillColor=none;top=0;left=0;bottom=0;right=0;align=left;spacingLeft=2;overflow=hidden;fontSize=11;" parent="QCRX9I76-EoQZHP0PRte-67" vertex="1">
          <mxGeometry x="120" width="30" height="20" as="geometry">
            <mxRectangle width="30" height="20" as="alternateBounds" />
          </mxGeometry>
        </mxCell>
        <mxCell id="QCRX9I76-EoQZHP0PRte-71" style="shape=tableRow;horizontal=0;startSize=0;swimlaneHead=0;swimlaneBody=0;fillColor=none;collapsible=0;dropTarget=0;points=[[0,0.5],[1,0.5]];portConstraint=eastwest;top=0;left=0;right=0;bottom=0;" parent="QCRX9I76-EoQZHP0PRte-66" vertex="1">
          <mxGeometry y="45" width="150" height="22" as="geometry" />
        </mxCell>
        <mxCell id="QCRX9I76-EoQZHP0PRte-72" value="string" style="shape=partialRectangle;connectable=0;fillColor=none;top=0;left=0;bottom=0;right=0;align=left;spacingLeft=2;overflow=hidden;fontSize=11;" parent="QCRX9I76-EoQZHP0PRte-71" vertex="1">
          <mxGeometry width="50" height="22" as="geometry">
            <mxRectangle width="50" height="22" as="alternateBounds" />
          </mxGeometry>
        </mxCell>
        <mxCell id="QCRX9I76-EoQZHP0PRte-73" value="role_name " style="shape=partialRectangle;connectable=0;fillColor=none;top=0;left=0;bottom=0;right=0;align=left;spacingLeft=2;overflow=hidden;fontSize=11;" parent="QCRX9I76-EoQZHP0PRte-71" vertex="1">
          <mxGeometry x="50" width="70" height="22" as="geometry">
            <mxRectangle width="70" height="22" as="alternateBounds" />
          </mxGeometry>
        </mxCell>
        <mxCell id="QCRX9I76-EoQZHP0PRte-74" value="" style="shape=partialRectangle;connectable=0;fillColor=none;top=0;left=0;bottom=0;right=0;align=left;spacingLeft=2;overflow=hidden;fontSize=11;" parent="QCRX9I76-EoQZHP0PRte-71" vertex="1">
          <mxGeometry x="120" width="30" height="22" as="geometry">
            <mxRectangle width="30" height="22" as="alternateBounds" />
          </mxGeometry>
        </mxCell>
        <mxCell id="hIN84pvpRcrB91gMAEEG-1" value="" style="startArrow=ERmandOne;startSize=10;;endArrow=ERzeroToMany;endSize=10;;exitX=0;exitY=0.5;entryX=1;entryY=0.5;rounded=0;exitDx=0;exitDy=0;entryDx=0;entryDy=0;" parent="1" source="i-dMMfXqlk09ZkL_Bo82-3" target="i-dMMfXqlk09ZkL_Bo82-196" edge="1">
          <mxGeometry relative="1" as="geometry">
            <mxPoint x="1369" y="288" as="sourcePoint" />
            <mxPoint x="1114" y="456" as="targetPoint" />
          </mxGeometry>
        </mxCell>
      </root>
    </mxGraphModel>
  </diagram>
  <diagram id="dfDivf9NB4kB_iyykzua" name="Page-2">
    <mxGraphModel dx="-419" dy="614" grid="1" gridSize="10" guides="1" tooltips="1" connect="1" arrows="1" fold="1" page="1" pageScale="1" pageWidth="827" pageHeight="1169" math="0" shadow="0">
      <root>
        <mxCell id="0" />
        <mxCell id="1" parent="0" />
        <mxCell id="lFL2nlgRsIXrSDVABfzW-1" value="USERS" style="shape=table;startSize=25;container=1;collapsible=0;childLayout=tableLayout;fixedRows=1;rowLines=1;fontStyle=1;align=center;resizeLast=1;" vertex="1" parent="1">
          <mxGeometry x="1772" y="392" width="160" height="179" as="geometry" />
        </mxCell>
        <mxCell id="lFL2nlgRsIXrSDVABfzW-2" style="shape=tableRow;horizontal=0;startSize=0;swimlaneHead=0;swimlaneBody=0;fillColor=none;collapsible=0;dropTarget=0;points=[[0,0.5],[1,0.5]];portConstraint=eastwest;top=0;left=0;right=0;bottom=0;" vertex="1" parent="lFL2nlgRsIXrSDVABfzW-1">
          <mxGeometry y="25" width="160" height="22" as="geometry" />
        </mxCell>
        <mxCell id="lFL2nlgRsIXrSDVABfzW-3" value="int" style="shape=partialRectangle;connectable=0;fillColor=none;top=0;left=0;bottom=0;right=0;align=left;spacingLeft=2;overflow=hidden;fontSize=11;" vertex="1" parent="lFL2nlgRsIXrSDVABfzW-2">
          <mxGeometry width="58" height="22" as="geometry">
            <mxRectangle width="58" height="22" as="alternateBounds" />
          </mxGeometry>
        </mxCell>
        <mxCell id="lFL2nlgRsIXrSDVABfzW-4" value="user_id" style="shape=partialRectangle;connectable=0;fillColor=none;top=0;left=0;bottom=0;right=0;align=left;spacingLeft=2;overflow=hidden;fontSize=11;" vertex="1" parent="lFL2nlgRsIXrSDVABfzW-2">
          <mxGeometry x="58" width="80" height="22" as="geometry">
            <mxRectangle width="80" height="22" as="alternateBounds" />
          </mxGeometry>
        </mxCell>
        <mxCell id="lFL2nlgRsIXrSDVABfzW-5" value="PK" style="shape=partialRectangle;connectable=0;fillColor=none;top=0;left=0;bottom=0;right=0;align=left;spacingLeft=2;overflow=hidden;fontSize=11;" vertex="1" parent="lFL2nlgRsIXrSDVABfzW-2">
          <mxGeometry x="138" width="22" height="22" as="geometry">
            <mxRectangle width="22" height="22" as="alternateBounds" />
          </mxGeometry>
        </mxCell>
        <mxCell id="lFL2nlgRsIXrSDVABfzW-6" style="shape=tableRow;horizontal=0;startSize=0;swimlaneHead=0;swimlaneBody=0;fillColor=none;collapsible=0;dropTarget=0;points=[[0,0.5],[1,0.5]];portConstraint=eastwest;top=0;left=0;right=0;bottom=0;" vertex="1" parent="lFL2nlgRsIXrSDVABfzW-1">
          <mxGeometry y="47" width="160" height="22" as="geometry" />
        </mxCell>
        <mxCell id="lFL2nlgRsIXrSDVABfzW-7" value="varchar" style="shape=partialRectangle;connectable=0;fillColor=none;top=0;left=0;bottom=0;right=0;align=left;spacingLeft=2;overflow=hidden;fontSize=11;" vertex="1" parent="lFL2nlgRsIXrSDVABfzW-6">
          <mxGeometry width="58" height="22" as="geometry">
            <mxRectangle width="58" height="22" as="alternateBounds" />
          </mxGeometry>
        </mxCell>
        <mxCell id="lFL2nlgRsIXrSDVABfzW-8" value="name" style="shape=partialRectangle;connectable=0;fillColor=none;top=0;left=0;bottom=0;right=0;align=left;spacingLeft=2;overflow=hidden;fontSize=11;" vertex="1" parent="lFL2nlgRsIXrSDVABfzW-6">
          <mxGeometry x="58" width="80" height="22" as="geometry">
            <mxRectangle width="80" height="22" as="alternateBounds" />
          </mxGeometry>
        </mxCell>
        <mxCell id="lFL2nlgRsIXrSDVABfzW-9" value="" style="shape=partialRectangle;connectable=0;fillColor=none;top=0;left=0;bottom=0;right=0;align=left;spacingLeft=2;overflow=hidden;fontSize=11;" vertex="1" parent="lFL2nlgRsIXrSDVABfzW-6">
          <mxGeometry x="138" width="22" height="22" as="geometry">
            <mxRectangle width="22" height="22" as="alternateBounds" />
          </mxGeometry>
        </mxCell>
        <mxCell id="lFL2nlgRsIXrSDVABfzW-10" style="shape=tableRow;horizontal=0;startSize=0;swimlaneHead=0;swimlaneBody=0;fillColor=none;collapsible=0;dropTarget=0;points=[[0,0.5],[1,0.5]];portConstraint=eastwest;top=0;left=0;right=0;bottom=0;" vertex="1" parent="lFL2nlgRsIXrSDVABfzW-1">
          <mxGeometry y="69" width="160" height="22" as="geometry" />
        </mxCell>
        <mxCell id="lFL2nlgRsIXrSDVABfzW-11" value="varchar" style="shape=partialRectangle;connectable=0;fillColor=none;top=0;left=0;bottom=0;right=0;align=left;spacingLeft=2;overflow=hidden;fontSize=11;" vertex="1" parent="lFL2nlgRsIXrSDVABfzW-10">
          <mxGeometry width="58" height="22" as="geometry">
            <mxRectangle width="58" height="22" as="alternateBounds" />
          </mxGeometry>
        </mxCell>
        <mxCell id="lFL2nlgRsIXrSDVABfzW-12" value="email" style="shape=partialRectangle;connectable=0;fillColor=none;top=0;left=0;bottom=0;right=0;align=left;spacingLeft=2;overflow=hidden;fontSize=11;" vertex="1" parent="lFL2nlgRsIXrSDVABfzW-10">
          <mxGeometry x="58" width="80" height="22" as="geometry">
            <mxRectangle width="80" height="22" as="alternateBounds" />
          </mxGeometry>
        </mxCell>
        <mxCell id="lFL2nlgRsIXrSDVABfzW-13" value="UK" style="shape=partialRectangle;connectable=0;fillColor=none;top=0;left=0;bottom=0;right=0;align=left;spacingLeft=2;overflow=hidden;fontSize=11;" vertex="1" parent="lFL2nlgRsIXrSDVABfzW-10">
          <mxGeometry x="138" width="22" height="22" as="geometry">
            <mxRectangle width="22" height="22" as="alternateBounds" />
          </mxGeometry>
        </mxCell>
        <mxCell id="lFL2nlgRsIXrSDVABfzW-14" style="shape=tableRow;horizontal=0;startSize=0;swimlaneHead=0;swimlaneBody=0;fillColor=none;collapsible=0;dropTarget=0;points=[[0,0.5],[1,0.5]];portConstraint=eastwest;top=0;left=0;right=0;bottom=0;" vertex="1" parent="lFL2nlgRsIXrSDVABfzW-1">
          <mxGeometry y="91" width="160" height="22" as="geometry" />
        </mxCell>
        <mxCell id="lFL2nlgRsIXrSDVABfzW-15" value="varchar" style="shape=partialRectangle;connectable=0;fillColor=none;top=0;left=0;bottom=0;right=0;align=left;spacingLeft=2;overflow=hidden;fontSize=11;" vertex="1" parent="lFL2nlgRsIXrSDVABfzW-14">
          <mxGeometry width="58" height="22" as="geometry">
            <mxRectangle width="58" height="22" as="alternateBounds" />
          </mxGeometry>
        </mxCell>
        <mxCell id="lFL2nlgRsIXrSDVABfzW-16" value="phone" style="shape=partialRectangle;connectable=0;fillColor=none;top=0;left=0;bottom=0;right=0;align=left;spacingLeft=2;overflow=hidden;fontSize=11;" vertex="1" parent="lFL2nlgRsIXrSDVABfzW-14">
          <mxGeometry x="58" width="80" height="22" as="geometry">
            <mxRectangle width="80" height="22" as="alternateBounds" />
          </mxGeometry>
        </mxCell>
        <mxCell id="lFL2nlgRsIXrSDVABfzW-17" value="UK" style="shape=partialRectangle;connectable=0;fillColor=none;top=0;left=0;bottom=0;right=0;align=left;spacingLeft=2;overflow=hidden;fontSize=11;" vertex="1" parent="lFL2nlgRsIXrSDVABfzW-14">
          <mxGeometry x="138" width="22" height="22" as="geometry">
            <mxRectangle width="22" height="22" as="alternateBounds" />
          </mxGeometry>
        </mxCell>
        <mxCell id="lFL2nlgRsIXrSDVABfzW-18" style="shape=tableRow;horizontal=0;startSize=0;swimlaneHead=0;swimlaneBody=0;fillColor=none;collapsible=0;dropTarget=0;points=[[0,0.5],[1,0.5]];portConstraint=eastwest;top=0;left=0;right=0;bottom=0;" vertex="1" parent="lFL2nlgRsIXrSDVABfzW-1">
          <mxGeometry y="113" width="160" height="22" as="geometry" />
        </mxCell>
        <mxCell id="lFL2nlgRsIXrSDVABfzW-19" value="varchar" style="shape=partialRectangle;connectable=0;fillColor=none;top=0;left=0;bottom=0;right=0;align=left;spacingLeft=2;overflow=hidden;fontSize=11;" vertex="1" parent="lFL2nlgRsIXrSDVABfzW-18">
          <mxGeometry width="58" height="22" as="geometry">
            <mxRectangle width="58" height="22" as="alternateBounds" />
          </mxGeometry>
        </mxCell>
        <mxCell id="lFL2nlgRsIXrSDVABfzW-20" value="password_hash" style="shape=partialRectangle;connectable=0;fillColor=none;top=0;left=0;bottom=0;right=0;align=left;spacingLeft=2;overflow=hidden;fontSize=11;" vertex="1" parent="lFL2nlgRsIXrSDVABfzW-18">
          <mxGeometry x="58" width="80" height="22" as="geometry">
            <mxRectangle width="80" height="22" as="alternateBounds" />
          </mxGeometry>
        </mxCell>
        <mxCell id="lFL2nlgRsIXrSDVABfzW-21" value="" style="shape=partialRectangle;connectable=0;fillColor=none;top=0;left=0;bottom=0;right=0;align=left;spacingLeft=2;overflow=hidden;fontSize=11;" vertex="1" parent="lFL2nlgRsIXrSDVABfzW-18">
          <mxGeometry x="138" width="22" height="22" as="geometry">
            <mxRectangle width="22" height="22" as="alternateBounds" />
          </mxGeometry>
        </mxCell>
        <mxCell id="lFL2nlgRsIXrSDVABfzW-22" style="shape=tableRow;horizontal=0;startSize=0;swimlaneHead=0;swimlaneBody=0;fillColor=none;collapsible=0;dropTarget=0;points=[[0,0.5],[1,0.5]];portConstraint=eastwest;top=0;left=0;right=0;bottom=0;" vertex="1" parent="lFL2nlgRsIXrSDVABfzW-1">
          <mxGeometry y="135" width="160" height="22" as="geometry" />
        </mxCell>
        <mxCell id="lFL2nlgRsIXrSDVABfzW-23" value="int" style="shape=partialRectangle;connectable=0;fillColor=none;top=0;left=0;bottom=0;right=0;align=left;spacingLeft=2;overflow=hidden;fontSize=11;" vertex="1" parent="lFL2nlgRsIXrSDVABfzW-22">
          <mxGeometry width="58" height="22" as="geometry">
            <mxRectangle width="58" height="22" as="alternateBounds" />
          </mxGeometry>
        </mxCell>
        <mxCell id="lFL2nlgRsIXrSDVABfzW-24" value="role_id" style="shape=partialRectangle;connectable=0;fillColor=none;top=0;left=0;bottom=0;right=0;align=left;spacingLeft=2;overflow=hidden;fontSize=11;" vertex="1" parent="lFL2nlgRsIXrSDVABfzW-22">
          <mxGeometry x="58" width="80" height="22" as="geometry">
            <mxRectangle width="80" height="22" as="alternateBounds" />
          </mxGeometry>
        </mxCell>
        <mxCell id="lFL2nlgRsIXrSDVABfzW-25" value="FK" style="shape=partialRectangle;connectable=0;fillColor=none;top=0;left=0;bottom=0;right=0;align=left;spacingLeft=2;overflow=hidden;fontSize=11;" vertex="1" parent="lFL2nlgRsIXrSDVABfzW-22">
          <mxGeometry x="138" width="22" height="22" as="geometry">
            <mxRectangle width="22" height="22" as="alternateBounds" />
          </mxGeometry>
        </mxCell>
        <mxCell id="lFL2nlgRsIXrSDVABfzW-26" style="shape=tableRow;horizontal=0;startSize=0;swimlaneHead=0;swimlaneBody=0;fillColor=none;collapsible=0;dropTarget=0;points=[[0,0.5],[1,0.5]];portConstraint=eastwest;top=0;left=0;right=0;bottom=0;" vertex="1" parent="lFL2nlgRsIXrSDVABfzW-1">
          <mxGeometry y="157" width="160" height="22" as="geometry" />
        </mxCell>
        <mxCell id="lFL2nlgRsIXrSDVABfzW-27" value="timestamp" style="shape=partialRectangle;connectable=0;fillColor=none;top=0;left=0;bottom=0;right=0;align=left;spacingLeft=2;overflow=hidden;fontSize=11;" vertex="1" parent="lFL2nlgRsIXrSDVABfzW-26">
          <mxGeometry width="58" height="22" as="geometry">
            <mxRectangle width="58" height="22" as="alternateBounds" />
          </mxGeometry>
        </mxCell>
        <mxCell id="lFL2nlgRsIXrSDVABfzW-28" value="created_at" style="shape=partialRectangle;connectable=0;fillColor=none;top=0;left=0;bottom=0;right=0;align=left;spacingLeft=2;overflow=hidden;fontSize=11;" vertex="1" parent="lFL2nlgRsIXrSDVABfzW-26">
          <mxGeometry x="58" width="80" height="22" as="geometry">
            <mxRectangle width="80" height="22" as="alternateBounds" />
          </mxGeometry>
        </mxCell>
        <mxCell id="lFL2nlgRsIXrSDVABfzW-29" value="" style="shape=partialRectangle;connectable=0;fillColor=none;top=0;left=0;bottom=0;right=0;align=left;spacingLeft=2;overflow=hidden;fontSize=11;" vertex="1" parent="lFL2nlgRsIXrSDVABfzW-26">
          <mxGeometry x="138" width="22" height="22" as="geometry">
            <mxRectangle width="22" height="22" as="alternateBounds" />
          </mxGeometry>
        </mxCell>
        <mxCell id="lFL2nlgRsIXrSDVABfzW-30" value="" style="curved=1;startArrow=ERmandOne;startSize=10;;endArrow=ERzeroToMany;endSize=10;;exitX=0.474;exitY=1.029;entryX=0.5;entryY=0;rounded=0;exitDx=0;exitDy=0;exitPerimeter=0;" edge="1" parent="1" source="lFL2nlgRsIXrSDVABfzW-36" target="lFL2nlgRsIXrSDVABfzW-1">
          <mxGeometry relative="1" as="geometry">
            <Array as="points" />
            <mxPoint x="1853" y="270" as="sourcePoint" />
          </mxGeometry>
        </mxCell>
        <mxCell id="lFL2nlgRsIXrSDVABfzW-31" value="ROLES" style="shape=table;startSize=25;container=1;collapsible=0;childLayout=tableLayout;fixedRows=1;rowLines=1;fontStyle=1;align=center;resizeLast=1;" vertex="1" parent="1">
          <mxGeometry x="1782" y="203" width="150" height="67" as="geometry" />
        </mxCell>
        <mxCell id="lFL2nlgRsIXrSDVABfzW-32" style="shape=tableRow;horizontal=0;startSize=0;swimlaneHead=0;swimlaneBody=0;fillColor=none;collapsible=0;dropTarget=0;points=[[0,0.5],[1,0.5]];portConstraint=eastwest;top=0;left=0;right=0;bottom=0;" vertex="1" parent="lFL2nlgRsIXrSDVABfzW-31">
          <mxGeometry y="25" width="150" height="20" as="geometry" />
        </mxCell>
        <mxCell id="lFL2nlgRsIXrSDVABfzW-33" value="int" style="shape=partialRectangle;connectable=0;fillColor=none;top=0;left=0;bottom=0;right=0;align=left;spacingLeft=2;overflow=hidden;fontSize=11;" vertex="1" parent="lFL2nlgRsIXrSDVABfzW-32">
          <mxGeometry width="50" height="20" as="geometry">
            <mxRectangle width="50" height="20" as="alternateBounds" />
          </mxGeometry>
        </mxCell>
        <mxCell id="lFL2nlgRsIXrSDVABfzW-34" value="role_id " style="shape=partialRectangle;connectable=0;fillColor=none;top=0;left=0;bottom=0;right=0;align=left;spacingLeft=2;overflow=hidden;fontSize=11;" vertex="1" parent="lFL2nlgRsIXrSDVABfzW-32">
          <mxGeometry x="50" width="70" height="20" as="geometry">
            <mxRectangle width="70" height="20" as="alternateBounds" />
          </mxGeometry>
        </mxCell>
        <mxCell id="lFL2nlgRsIXrSDVABfzW-35" value="PK" style="shape=partialRectangle;connectable=0;fillColor=none;top=0;left=0;bottom=0;right=0;align=left;spacingLeft=2;overflow=hidden;fontSize=11;" vertex="1" parent="lFL2nlgRsIXrSDVABfzW-32">
          <mxGeometry x="120" width="30" height="20" as="geometry">
            <mxRectangle width="30" height="20" as="alternateBounds" />
          </mxGeometry>
        </mxCell>
        <mxCell id="lFL2nlgRsIXrSDVABfzW-36" style="shape=tableRow;horizontal=0;startSize=0;swimlaneHead=0;swimlaneBody=0;fillColor=none;collapsible=0;dropTarget=0;points=[[0,0.5],[1,0.5]];portConstraint=eastwest;top=0;left=0;right=0;bottom=0;" vertex="1" parent="lFL2nlgRsIXrSDVABfzW-31">
          <mxGeometry y="45" width="150" height="22" as="geometry" />
        </mxCell>
        <mxCell id="lFL2nlgRsIXrSDVABfzW-37" value="varchar" style="shape=partialRectangle;connectable=0;fillColor=none;top=0;left=0;bottom=0;right=0;align=left;spacingLeft=2;overflow=hidden;fontSize=11;" vertex="1" parent="lFL2nlgRsIXrSDVABfzW-36">
          <mxGeometry width="50" height="22" as="geometry">
            <mxRectangle width="50" height="22" as="alternateBounds" />
          </mxGeometry>
        </mxCell>
        <mxCell id="lFL2nlgRsIXrSDVABfzW-38" value="role_name " style="shape=partialRectangle;connectable=0;fillColor=none;top=0;left=0;bottom=0;right=0;align=left;spacingLeft=2;overflow=hidden;fontSize=11;" vertex="1" parent="lFL2nlgRsIXrSDVABfzW-36">
          <mxGeometry x="50" width="70" height="22" as="geometry">
            <mxRectangle width="70" height="22" as="alternateBounds" />
          </mxGeometry>
        </mxCell>
        <mxCell id="lFL2nlgRsIXrSDVABfzW-39" value="" style="shape=partialRectangle;connectable=0;fillColor=none;top=0;left=0;bottom=0;right=0;align=left;spacingLeft=2;overflow=hidden;fontSize=11;" vertex="1" parent="lFL2nlgRsIXrSDVABfzW-36">
          <mxGeometry x="120" width="30" height="22" as="geometry">
            <mxRectangle width="30" height="22" as="alternateBounds" />
          </mxGeometry>
        </mxCell>
        <mxCell id="YXDNueNZajrzVA4vGDVI-1" value="" style="curved=1;startArrow=ERmandOne;startSize=10;;endArrow=ERzeroToMany;endSize=10;;exitX=1.01;exitY=0.62;entryX=0.5;entryY=0;rounded=0;" edge="1" parent="1">
          <mxGeometry relative="1" as="geometry">
            <Array as="points">
              <mxPoint x="2473" y="642" />
            </Array>
            <mxPoint x="1932" y="503" as="sourcePoint" />
            <mxPoint x="2473" y="692" as="targetPoint" />
          </mxGeometry>
        </mxCell>
        <mxCell id="MkdL3KynZg6XnRy_stoO-1" value="PAYMENTS" style="shape=table;startSize=25;container=1;collapsible=0;childLayout=tableLayout;fixedRows=1;rowLines=1;fontStyle=1;align=center;resizeLast=1;" vertex="1" parent="1">
          <mxGeometry x="2394" y="692" width="157" height="157" as="geometry" />
        </mxCell>
        <mxCell id="MkdL3KynZg6XnRy_stoO-2" style="shape=tableRow;horizontal=0;startSize=0;swimlaneHead=0;swimlaneBody=0;fillColor=none;collapsible=0;dropTarget=0;points=[[0,0.5],[1,0.5]];portConstraint=eastwest;top=0;left=0;right=0;bottom=0;" vertex="1" parent="MkdL3KynZg6XnRy_stoO-1">
          <mxGeometry y="25" width="157" height="22" as="geometry" />
        </mxCell>
        <mxCell id="MkdL3KynZg6XnRy_stoO-3" value="int" style="shape=partialRectangle;connectable=0;fillColor=none;top=0;left=0;bottom=0;right=0;align=left;spacingLeft=2;overflow=hidden;fontSize=11;" vertex="1" parent="MkdL3KynZg6XnRy_stoO-2">
          <mxGeometry width="54" height="22" as="geometry">
            <mxRectangle width="54" height="22" as="alternateBounds" />
          </mxGeometry>
        </mxCell>
        <mxCell id="MkdL3KynZg6XnRy_stoO-4" value="payment_id" style="shape=partialRectangle;connectable=0;fillColor=none;top=0;left=0;bottom=0;right=0;align=left;spacingLeft=2;overflow=hidden;fontSize=11;" vertex="1" parent="MkdL3KynZg6XnRy_stoO-2">
          <mxGeometry x="54" width="81" height="22" as="geometry">
            <mxRectangle width="81" height="22" as="alternateBounds" />
          </mxGeometry>
        </mxCell>
        <mxCell id="MkdL3KynZg6XnRy_stoO-5" value="PK" style="shape=partialRectangle;connectable=0;fillColor=none;top=0;left=0;bottom=0;right=0;align=left;spacingLeft=2;overflow=hidden;fontSize=11;" vertex="1" parent="MkdL3KynZg6XnRy_stoO-2">
          <mxGeometry x="135" width="22" height="22" as="geometry">
            <mxRectangle width="22" height="22" as="alternateBounds" />
          </mxGeometry>
        </mxCell>
        <mxCell id="MkdL3KynZg6XnRy_stoO-6" style="shape=tableRow;horizontal=0;startSize=0;swimlaneHead=0;swimlaneBody=0;fillColor=none;collapsible=0;dropTarget=0;points=[[0,0.5],[1,0.5]];portConstraint=eastwest;top=0;left=0;right=0;bottom=0;" vertex="1" parent="MkdL3KynZg6XnRy_stoO-1">
          <mxGeometry y="47" width="157" height="22" as="geometry" />
        </mxCell>
        <mxCell id="MkdL3KynZg6XnRy_stoO-7" value="int" style="shape=partialRectangle;connectable=0;fillColor=none;top=0;left=0;bottom=0;right=0;align=left;spacingLeft=2;overflow=hidden;fontSize=11;" vertex="1" parent="MkdL3KynZg6XnRy_stoO-6">
          <mxGeometry width="54" height="22" as="geometry">
            <mxRectangle width="54" height="22" as="alternateBounds" />
          </mxGeometry>
        </mxCell>
        <mxCell id="MkdL3KynZg6XnRy_stoO-8" value="user_id" style="shape=partialRectangle;connectable=0;fillColor=none;top=0;left=0;bottom=0;right=0;align=left;spacingLeft=2;overflow=hidden;fontSize=11;" vertex="1" parent="MkdL3KynZg6XnRy_stoO-6">
          <mxGeometry x="54" width="81" height="22" as="geometry">
            <mxRectangle width="81" height="22" as="alternateBounds" />
          </mxGeometry>
        </mxCell>
        <mxCell id="MkdL3KynZg6XnRy_stoO-9" value="FK" style="shape=partialRectangle;connectable=0;fillColor=none;top=0;left=0;bottom=0;right=0;align=left;spacingLeft=2;overflow=hidden;fontSize=11;" vertex="1" parent="MkdL3KynZg6XnRy_stoO-6">
          <mxGeometry x="135" width="22" height="22" as="geometry">
            <mxRectangle width="22" height="22" as="alternateBounds" />
          </mxGeometry>
        </mxCell>
        <mxCell id="MkdL3KynZg6XnRy_stoO-10" style="shape=tableRow;horizontal=0;startSize=0;swimlaneHead=0;swimlaneBody=0;fillColor=none;collapsible=0;dropTarget=0;points=[[0,0.5],[1,0.5]];portConstraint=eastwest;top=0;left=0;right=0;bottom=0;" vertex="1" parent="MkdL3KynZg6XnRy_stoO-1">
          <mxGeometry y="69" width="157" height="22" as="geometry" />
        </mxCell>
        <mxCell id="MkdL3KynZg6XnRy_stoO-11" value="decimal" style="shape=partialRectangle;connectable=0;fillColor=none;top=0;left=0;bottom=0;right=0;align=left;spacingLeft=2;overflow=hidden;fontSize=11;" vertex="1" parent="MkdL3KynZg6XnRy_stoO-10">
          <mxGeometry width="54" height="22" as="geometry">
            <mxRectangle width="54" height="22" as="alternateBounds" />
          </mxGeometry>
        </mxCell>
        <mxCell id="MkdL3KynZg6XnRy_stoO-12" value="amount" style="shape=partialRectangle;connectable=0;fillColor=none;top=0;left=0;bottom=0;right=0;align=left;spacingLeft=2;overflow=hidden;fontSize=11;" vertex="1" parent="MkdL3KynZg6XnRy_stoO-10">
          <mxGeometry x="54" width="81" height="22" as="geometry">
            <mxRectangle width="81" height="22" as="alternateBounds" />
          </mxGeometry>
        </mxCell>
        <mxCell id="MkdL3KynZg6XnRy_stoO-13" value="" style="shape=partialRectangle;connectable=0;fillColor=none;top=0;left=0;bottom=0;right=0;align=left;spacingLeft=2;overflow=hidden;fontSize=11;" vertex="1" parent="MkdL3KynZg6XnRy_stoO-10">
          <mxGeometry x="135" width="22" height="22" as="geometry">
            <mxRectangle width="22" height="22" as="alternateBounds" />
          </mxGeometry>
        </mxCell>
        <mxCell id="MkdL3KynZg6XnRy_stoO-14" style="shape=tableRow;horizontal=0;startSize=0;swimlaneHead=0;swimlaneBody=0;fillColor=none;collapsible=0;dropTarget=0;points=[[0,0.5],[1,0.5]];portConstraint=eastwest;top=0;left=0;right=0;bottom=0;" vertex="1" parent="MkdL3KynZg6XnRy_stoO-1">
          <mxGeometry y="91" width="157" height="22" as="geometry" />
        </mxCell>
        <mxCell id="MkdL3KynZg6XnRy_stoO-15" value="varchar" style="shape=partialRectangle;connectable=0;fillColor=none;top=0;left=0;bottom=0;right=0;align=left;spacingLeft=2;overflow=hidden;fontSize=11;" vertex="1" parent="MkdL3KynZg6XnRy_stoO-14">
          <mxGeometry width="54" height="22" as="geometry">
            <mxRectangle width="54" height="22" as="alternateBounds" />
          </mxGeometry>
        </mxCell>
        <mxCell id="MkdL3KynZg6XnRy_stoO-16" value="method" style="shape=partialRectangle;connectable=0;fillColor=none;top=0;left=0;bottom=0;right=0;align=left;spacingLeft=2;overflow=hidden;fontSize=11;" vertex="1" parent="MkdL3KynZg6XnRy_stoO-14">
          <mxGeometry x="54" width="81" height="22" as="geometry">
            <mxRectangle width="81" height="22" as="alternateBounds" />
          </mxGeometry>
        </mxCell>
        <mxCell id="MkdL3KynZg6XnRy_stoO-17" value="" style="shape=partialRectangle;connectable=0;fillColor=none;top=0;left=0;bottom=0;right=0;align=left;spacingLeft=2;overflow=hidden;fontSize=11;" vertex="1" parent="MkdL3KynZg6XnRy_stoO-14">
          <mxGeometry x="135" width="22" height="22" as="geometry">
            <mxRectangle width="22" height="22" as="alternateBounds" />
          </mxGeometry>
        </mxCell>
        <mxCell id="MkdL3KynZg6XnRy_stoO-18" style="shape=tableRow;horizontal=0;startSize=0;swimlaneHead=0;swimlaneBody=0;fillColor=none;collapsible=0;dropTarget=0;points=[[0,0.5],[1,0.5]];portConstraint=eastwest;top=0;left=0;right=0;bottom=0;" vertex="1" parent="MkdL3KynZg6XnRy_stoO-1">
          <mxGeometry y="113" width="157" height="22" as="geometry" />
        </mxCell>
        <mxCell id="MkdL3KynZg6XnRy_stoO-19" value="varchar" style="shape=partialRectangle;connectable=0;fillColor=none;top=0;left=0;bottom=0;right=0;align=left;spacingLeft=2;overflow=hidden;fontSize=11;" vertex="1" parent="MkdL3KynZg6XnRy_stoO-18">
          <mxGeometry width="54" height="22" as="geometry">
            <mxRectangle width="54" height="22" as="alternateBounds" />
          </mxGeometry>
        </mxCell>
        <mxCell id="MkdL3KynZg6XnRy_stoO-20" value="status" style="shape=partialRectangle;connectable=0;fillColor=none;top=0;left=0;bottom=0;right=0;align=left;spacingLeft=2;overflow=hidden;fontSize=11;" vertex="1" parent="MkdL3KynZg6XnRy_stoO-18">
          <mxGeometry x="54" width="81" height="22" as="geometry">
            <mxRectangle width="81" height="22" as="alternateBounds" />
          </mxGeometry>
        </mxCell>
        <mxCell id="MkdL3KynZg6XnRy_stoO-21" value="" style="shape=partialRectangle;connectable=0;fillColor=none;top=0;left=0;bottom=0;right=0;align=left;spacingLeft=2;overflow=hidden;fontSize=11;" vertex="1" parent="MkdL3KynZg6XnRy_stoO-18">
          <mxGeometry x="135" width="22" height="22" as="geometry">
            <mxRectangle width="22" height="22" as="alternateBounds" />
          </mxGeometry>
        </mxCell>
        <mxCell id="MkdL3KynZg6XnRy_stoO-22" style="shape=tableRow;horizontal=0;startSize=0;swimlaneHead=0;swimlaneBody=0;fillColor=none;collapsible=0;dropTarget=0;points=[[0,0.5],[1,0.5]];portConstraint=eastwest;top=0;left=0;right=0;bottom=0;" vertex="1" parent="MkdL3KynZg6XnRy_stoO-1">
          <mxGeometry y="135" width="157" height="22" as="geometry" />
        </mxCell>
        <mxCell id="MkdL3KynZg6XnRy_stoO-23" value="timestamp" style="shape=partialRectangle;connectable=0;fillColor=none;top=0;left=0;bottom=0;right=0;align=left;spacingLeft=2;overflow=hidden;fontSize=11;" vertex="1" parent="MkdL3KynZg6XnRy_stoO-22">
          <mxGeometry width="54" height="22" as="geometry">
            <mxRectangle width="54" height="22" as="alternateBounds" />
          </mxGeometry>
        </mxCell>
        <mxCell id="MkdL3KynZg6XnRy_stoO-24" value="payment_date" style="shape=partialRectangle;connectable=0;fillColor=none;top=0;left=0;bottom=0;right=0;align=left;spacingLeft=2;overflow=hidden;fontSize=11;" vertex="1" parent="MkdL3KynZg6XnRy_stoO-22">
          <mxGeometry x="54" width="81" height="22" as="geometry">
            <mxRectangle width="81" height="22" as="alternateBounds" />
          </mxGeometry>
        </mxCell>
        <mxCell id="MkdL3KynZg6XnRy_stoO-25" value="" style="shape=partialRectangle;connectable=0;fillColor=none;top=0;left=0;bottom=0;right=0;align=left;spacingLeft=2;overflow=hidden;fontSize=11;" vertex="1" parent="MkdL3KynZg6XnRy_stoO-22">
          <mxGeometry x="135" width="22" height="22" as="geometry">
            <mxRectangle width="22" height="22" as="alternateBounds" />
          </mxGeometry>
        </mxCell>
      </root>
    </mxGraphModel>
  </diagram>
</mxfile>
